%TF.GenerationSoftware,KiCad,Pcbnew,9.0.7*%
%TF.CreationDate,2026-03-10T14:54:00+01:00*%
%TF.ProjectId,QO-100_V1,514f2d31-3030-45f5-9631-2e6b69636164,rev?*%
%TF.SameCoordinates,Original*%
%TF.FileFunction,Legend,Top*%
%TF.FilePolarity,Positive*%
%FSLAX46Y46*%
G04 Gerber Fmt 4.6, Leading zero omitted, Abs format (unit mm)*
G04 Created by KiCad (PCBNEW 9.0.7) date 2026-03-10 14:54:00*
%MOMM*%
%LPD*%
G01*
G04 APERTURE LIST*
%ADD10C,0.150000*%
%ADD11C,0.120000*%
%ADD12C,0.100000*%
G04 APERTURE END LIST*
D10*
X157559761Y-81535057D02*
X157464523Y-81487438D01*
X157464523Y-81487438D02*
X157369285Y-81392200D01*
X157369285Y-81392200D02*
X157226428Y-81249342D01*
X157226428Y-81249342D02*
X157131190Y-81201723D01*
X157131190Y-81201723D02*
X157035952Y-81201723D01*
X157083571Y-81439819D02*
X156988333Y-81392200D01*
X156988333Y-81392200D02*
X156893095Y-81296961D01*
X156893095Y-81296961D02*
X156845476Y-81106485D01*
X156845476Y-81106485D02*
X156845476Y-80773152D01*
X156845476Y-80773152D02*
X156893095Y-80582676D01*
X156893095Y-80582676D02*
X156988333Y-80487438D01*
X156988333Y-80487438D02*
X157083571Y-80439819D01*
X157083571Y-80439819D02*
X157274047Y-80439819D01*
X157274047Y-80439819D02*
X157369285Y-80487438D01*
X157369285Y-80487438D02*
X157464523Y-80582676D01*
X157464523Y-80582676D02*
X157512142Y-80773152D01*
X157512142Y-80773152D02*
X157512142Y-81106485D01*
X157512142Y-81106485D02*
X157464523Y-81296961D01*
X157464523Y-81296961D02*
X157369285Y-81392200D01*
X157369285Y-81392200D02*
X157274047Y-81439819D01*
X157274047Y-81439819D02*
X157083571Y-81439819D01*
X158464523Y-81439819D02*
X157893095Y-81439819D01*
X158178809Y-81439819D02*
X158178809Y-80439819D01*
X158178809Y-80439819D02*
X158083571Y-80582676D01*
X158083571Y-80582676D02*
X157988333Y-80677914D01*
X157988333Y-80677914D02*
X157893095Y-80725533D01*
X215074819Y-114858094D02*
X214074819Y-114858094D01*
X214074819Y-114858094D02*
X214074819Y-114619999D01*
X214074819Y-114619999D02*
X214122438Y-114477142D01*
X214122438Y-114477142D02*
X214217676Y-114381904D01*
X214217676Y-114381904D02*
X214312914Y-114334285D01*
X214312914Y-114334285D02*
X214503390Y-114286666D01*
X214503390Y-114286666D02*
X214646247Y-114286666D01*
X214646247Y-114286666D02*
X214836723Y-114334285D01*
X214836723Y-114334285D02*
X214931961Y-114381904D01*
X214931961Y-114381904D02*
X215027200Y-114477142D01*
X215027200Y-114477142D02*
X215074819Y-114619999D01*
X215074819Y-114619999D02*
X215074819Y-114858094D01*
X215074819Y-113810475D02*
X215074819Y-113619999D01*
X215074819Y-113619999D02*
X215027200Y-113524761D01*
X215027200Y-113524761D02*
X214979580Y-113477142D01*
X214979580Y-113477142D02*
X214836723Y-113381904D01*
X214836723Y-113381904D02*
X214646247Y-113334285D01*
X214646247Y-113334285D02*
X214265295Y-113334285D01*
X214265295Y-113334285D02*
X214170057Y-113381904D01*
X214170057Y-113381904D02*
X214122438Y-113429523D01*
X214122438Y-113429523D02*
X214074819Y-113524761D01*
X214074819Y-113524761D02*
X214074819Y-113715237D01*
X214074819Y-113715237D02*
X214122438Y-113810475D01*
X214122438Y-113810475D02*
X214170057Y-113858094D01*
X214170057Y-113858094D02*
X214265295Y-113905713D01*
X214265295Y-113905713D02*
X214503390Y-113905713D01*
X214503390Y-113905713D02*
X214598628Y-113858094D01*
X214598628Y-113858094D02*
X214646247Y-113810475D01*
X214646247Y-113810475D02*
X214693866Y-113715237D01*
X214693866Y-113715237D02*
X214693866Y-113524761D01*
X214693866Y-113524761D02*
X214646247Y-113429523D01*
X214646247Y-113429523D02*
X214598628Y-113381904D01*
X214598628Y-113381904D02*
X214503390Y-113334285D01*
X214754819Y-110571904D02*
X213754819Y-110571904D01*
X214754819Y-110000476D02*
X214183390Y-110429047D01*
X213754819Y-110000476D02*
X214326247Y-110571904D01*
X216091069Y-83388035D02*
X215091069Y-83388035D01*
X215091069Y-83388035D02*
X215091069Y-83149940D01*
X215091069Y-83149940D02*
X215138688Y-83007083D01*
X215138688Y-83007083D02*
X215233926Y-82911845D01*
X215233926Y-82911845D02*
X215329164Y-82864226D01*
X215329164Y-82864226D02*
X215519640Y-82816607D01*
X215519640Y-82816607D02*
X215662497Y-82816607D01*
X215662497Y-82816607D02*
X215852973Y-82864226D01*
X215852973Y-82864226D02*
X215948211Y-82911845D01*
X215948211Y-82911845D02*
X216043450Y-83007083D01*
X216043450Y-83007083D02*
X216091069Y-83149940D01*
X216091069Y-83149940D02*
X216091069Y-83388035D01*
X216091069Y-81864226D02*
X216091069Y-82435654D01*
X216091069Y-82149940D02*
X215091069Y-82149940D01*
X215091069Y-82149940D02*
X215233926Y-82245178D01*
X215233926Y-82245178D02*
X215329164Y-82340416D01*
X215329164Y-82340416D02*
X215376783Y-82435654D01*
X216091069Y-80911845D02*
X216091069Y-81483273D01*
X216091069Y-81197559D02*
X215091069Y-81197559D01*
X215091069Y-81197559D02*
X215233926Y-81292797D01*
X215233926Y-81292797D02*
X215329164Y-81388035D01*
X215329164Y-81388035D02*
X215376783Y-81483273D01*
X215771069Y-78625654D02*
X214771069Y-78625654D01*
X215771069Y-78054226D02*
X215199640Y-78482797D01*
X214771069Y-78054226D02*
X215342497Y-78625654D01*
X198175655Y-89081069D02*
X198175655Y-88081069D01*
X198747083Y-89081069D02*
X198318512Y-88509640D01*
X198747083Y-88081069D02*
X198175655Y-88652497D01*
X199651845Y-88081069D02*
X199175655Y-88081069D01*
X199175655Y-88081069D02*
X199128036Y-88557259D01*
X199128036Y-88557259D02*
X199175655Y-88509640D01*
X199175655Y-88509640D02*
X199270893Y-88462021D01*
X199270893Y-88462021D02*
X199508988Y-88462021D01*
X199508988Y-88462021D02*
X199604226Y-88509640D01*
X199604226Y-88509640D02*
X199651845Y-88557259D01*
X199651845Y-88557259D02*
X199699464Y-88652497D01*
X199699464Y-88652497D02*
X199699464Y-88890592D01*
X199699464Y-88890592D02*
X199651845Y-88985830D01*
X199651845Y-88985830D02*
X199604226Y-89033450D01*
X199604226Y-89033450D02*
X199508988Y-89081069D01*
X199508988Y-89081069D02*
X199270893Y-89081069D01*
X199270893Y-89081069D02*
X199175655Y-89033450D01*
X199175655Y-89033450D02*
X199128036Y-88985830D01*
X93238095Y-43304819D02*
X93238095Y-42304819D01*
X93238095Y-42781009D02*
X93809523Y-42781009D01*
X93809523Y-43304819D02*
X93809523Y-42304819D01*
X94809523Y-43304819D02*
X94238095Y-43304819D01*
X94523809Y-43304819D02*
X94523809Y-42304819D01*
X94523809Y-42304819D02*
X94428571Y-42447676D01*
X94428571Y-42447676D02*
X94333333Y-42542914D01*
X94333333Y-42542914D02*
X94238095Y-42590533D01*
X176654819Y-82059523D02*
X177369104Y-82059523D01*
X177369104Y-82059523D02*
X177511961Y-82107142D01*
X177511961Y-82107142D02*
X177607200Y-82202380D01*
X177607200Y-82202380D02*
X177654819Y-82345237D01*
X177654819Y-82345237D02*
X177654819Y-82440475D01*
X177654819Y-81059523D02*
X177654819Y-81630951D01*
X177654819Y-81345237D02*
X176654819Y-81345237D01*
X176654819Y-81345237D02*
X176797676Y-81440475D01*
X176797676Y-81440475D02*
X176892914Y-81535713D01*
X176892914Y-81535713D02*
X176940533Y-81630951D01*
X176654819Y-80202380D02*
X176654819Y-80392856D01*
X176654819Y-80392856D02*
X176702438Y-80488094D01*
X176702438Y-80488094D02*
X176750057Y-80535713D01*
X176750057Y-80535713D02*
X176892914Y-80630951D01*
X176892914Y-80630951D02*
X177083390Y-80678570D01*
X177083390Y-80678570D02*
X177464342Y-80678570D01*
X177464342Y-80678570D02*
X177559580Y-80630951D01*
X177559580Y-80630951D02*
X177607200Y-80583332D01*
X177607200Y-80583332D02*
X177654819Y-80488094D01*
X177654819Y-80488094D02*
X177654819Y-80297618D01*
X177654819Y-80297618D02*
X177607200Y-80202380D01*
X177607200Y-80202380D02*
X177559580Y-80154761D01*
X177559580Y-80154761D02*
X177464342Y-80107142D01*
X177464342Y-80107142D02*
X177226247Y-80107142D01*
X177226247Y-80107142D02*
X177131009Y-80154761D01*
X177131009Y-80154761D02*
X177083390Y-80202380D01*
X177083390Y-80202380D02*
X177035771Y-80297618D01*
X177035771Y-80297618D02*
X177035771Y-80488094D01*
X177035771Y-80488094D02*
X177083390Y-80583332D01*
X177083390Y-80583332D02*
X177131009Y-80630951D01*
X177131009Y-80630951D02*
X177226247Y-80678570D01*
X198634761Y-129570057D02*
X198539523Y-129522438D01*
X198539523Y-129522438D02*
X198444285Y-129427200D01*
X198444285Y-129427200D02*
X198301428Y-129284342D01*
X198301428Y-129284342D02*
X198206190Y-129236723D01*
X198206190Y-129236723D02*
X198110952Y-129236723D01*
X198158571Y-129474819D02*
X198063333Y-129427200D01*
X198063333Y-129427200D02*
X197968095Y-129331961D01*
X197968095Y-129331961D02*
X197920476Y-129141485D01*
X197920476Y-129141485D02*
X197920476Y-128808152D01*
X197920476Y-128808152D02*
X197968095Y-128617676D01*
X197968095Y-128617676D02*
X198063333Y-128522438D01*
X198063333Y-128522438D02*
X198158571Y-128474819D01*
X198158571Y-128474819D02*
X198349047Y-128474819D01*
X198349047Y-128474819D02*
X198444285Y-128522438D01*
X198444285Y-128522438D02*
X198539523Y-128617676D01*
X198539523Y-128617676D02*
X198587142Y-128808152D01*
X198587142Y-128808152D02*
X198587142Y-129141485D01*
X198587142Y-129141485D02*
X198539523Y-129331961D01*
X198539523Y-129331961D02*
X198444285Y-129427200D01*
X198444285Y-129427200D02*
X198349047Y-129474819D01*
X198349047Y-129474819D02*
X198158571Y-129474819D01*
X199444285Y-128808152D02*
X199444285Y-129474819D01*
X199206190Y-128427200D02*
X198968095Y-129141485D01*
X198968095Y-129141485D02*
X199587142Y-129141485D01*
X202849819Y-126071904D02*
X203659342Y-126071904D01*
X203659342Y-126071904D02*
X203754580Y-126024285D01*
X203754580Y-126024285D02*
X203802200Y-125976666D01*
X203802200Y-125976666D02*
X203849819Y-125881428D01*
X203849819Y-125881428D02*
X203849819Y-125690952D01*
X203849819Y-125690952D02*
X203802200Y-125595714D01*
X203802200Y-125595714D02*
X203754580Y-125548095D01*
X203754580Y-125548095D02*
X203659342Y-125500476D01*
X203659342Y-125500476D02*
X202849819Y-125500476D01*
X202849819Y-125119523D02*
X202849819Y-124452857D01*
X202849819Y-124452857D02*
X203849819Y-124881428D01*
X90738095Y-132304819D02*
X90738095Y-131304819D01*
X90738095Y-131781009D02*
X91309523Y-131781009D01*
X91309523Y-132304819D02*
X91309523Y-131304819D01*
X91690476Y-131304819D02*
X92309523Y-131304819D01*
X92309523Y-131304819D02*
X91976190Y-131685771D01*
X91976190Y-131685771D02*
X92119047Y-131685771D01*
X92119047Y-131685771D02*
X92214285Y-131733390D01*
X92214285Y-131733390D02*
X92261904Y-131781009D01*
X92261904Y-131781009D02*
X92309523Y-131876247D01*
X92309523Y-131876247D02*
X92309523Y-132114342D01*
X92309523Y-132114342D02*
X92261904Y-132209580D01*
X92261904Y-132209580D02*
X92214285Y-132257200D01*
X92214285Y-132257200D02*
X92119047Y-132304819D01*
X92119047Y-132304819D02*
X91833333Y-132304819D01*
X91833333Y-132304819D02*
X91738095Y-132257200D01*
X91738095Y-132257200D02*
X91690476Y-132209580D01*
X112761905Y-88954819D02*
X112761905Y-87954819D01*
X113333333Y-88954819D02*
X112904762Y-88383390D01*
X113333333Y-87954819D02*
X112761905Y-88526247D01*
X114190476Y-87954819D02*
X114000000Y-87954819D01*
X114000000Y-87954819D02*
X113904762Y-88002438D01*
X113904762Y-88002438D02*
X113857143Y-88050057D01*
X113857143Y-88050057D02*
X113761905Y-88192914D01*
X113761905Y-88192914D02*
X113714286Y-88383390D01*
X113714286Y-88383390D02*
X113714286Y-88764342D01*
X113714286Y-88764342D02*
X113761905Y-88859580D01*
X113761905Y-88859580D02*
X113809524Y-88907200D01*
X113809524Y-88907200D02*
X113904762Y-88954819D01*
X113904762Y-88954819D02*
X114095238Y-88954819D01*
X114095238Y-88954819D02*
X114190476Y-88907200D01*
X114190476Y-88907200D02*
X114238095Y-88859580D01*
X114238095Y-88859580D02*
X114285714Y-88764342D01*
X114285714Y-88764342D02*
X114285714Y-88526247D01*
X114285714Y-88526247D02*
X114238095Y-88431009D01*
X114238095Y-88431009D02*
X114190476Y-88383390D01*
X114190476Y-88383390D02*
X114095238Y-88335771D01*
X114095238Y-88335771D02*
X113904762Y-88335771D01*
X113904762Y-88335771D02*
X113809524Y-88383390D01*
X113809524Y-88383390D02*
X113761905Y-88431009D01*
X113761905Y-88431009D02*
X113714286Y-88526247D01*
X194453392Y-101068569D02*
X194120059Y-100592378D01*
X193881964Y-101068569D02*
X193881964Y-100068569D01*
X193881964Y-100068569D02*
X194262916Y-100068569D01*
X194262916Y-100068569D02*
X194358154Y-100116188D01*
X194358154Y-100116188D02*
X194405773Y-100163807D01*
X194405773Y-100163807D02*
X194453392Y-100259045D01*
X194453392Y-100259045D02*
X194453392Y-100401902D01*
X194453392Y-100401902D02*
X194405773Y-100497140D01*
X194405773Y-100497140D02*
X194358154Y-100544759D01*
X194358154Y-100544759D02*
X194262916Y-100592378D01*
X194262916Y-100592378D02*
X193881964Y-100592378D01*
X195405773Y-101068569D02*
X194834345Y-101068569D01*
X195120059Y-101068569D02*
X195120059Y-100068569D01*
X195120059Y-100068569D02*
X195024821Y-100211426D01*
X195024821Y-100211426D02*
X194929583Y-100306664D01*
X194929583Y-100306664D02*
X194834345Y-100354283D01*
X195881964Y-101068569D02*
X196072440Y-101068569D01*
X196072440Y-101068569D02*
X196167678Y-101020950D01*
X196167678Y-101020950D02*
X196215297Y-100973330D01*
X196215297Y-100973330D02*
X196310535Y-100830473D01*
X196310535Y-100830473D02*
X196358154Y-100639997D01*
X196358154Y-100639997D02*
X196358154Y-100259045D01*
X196358154Y-100259045D02*
X196310535Y-100163807D01*
X196310535Y-100163807D02*
X196262916Y-100116188D01*
X196262916Y-100116188D02*
X196167678Y-100068569D01*
X196167678Y-100068569D02*
X195977202Y-100068569D01*
X195977202Y-100068569D02*
X195881964Y-100116188D01*
X195881964Y-100116188D02*
X195834345Y-100163807D01*
X195834345Y-100163807D02*
X195786726Y-100259045D01*
X195786726Y-100259045D02*
X195786726Y-100497140D01*
X195786726Y-100497140D02*
X195834345Y-100592378D01*
X195834345Y-100592378D02*
X195881964Y-100639997D01*
X195881964Y-100639997D02*
X195977202Y-100687616D01*
X195977202Y-100687616D02*
X196167678Y-100687616D01*
X196167678Y-100687616D02*
X196262916Y-100639997D01*
X196262916Y-100639997D02*
X196310535Y-100592378D01*
X196310535Y-100592378D02*
X196358154Y-100497140D01*
X111084819Y-96586666D02*
X110608628Y-96919999D01*
X111084819Y-97158094D02*
X110084819Y-97158094D01*
X110084819Y-97158094D02*
X110084819Y-96777142D01*
X110084819Y-96777142D02*
X110132438Y-96681904D01*
X110132438Y-96681904D02*
X110180057Y-96634285D01*
X110180057Y-96634285D02*
X110275295Y-96586666D01*
X110275295Y-96586666D02*
X110418152Y-96586666D01*
X110418152Y-96586666D02*
X110513390Y-96634285D01*
X110513390Y-96634285D02*
X110561009Y-96681904D01*
X110561009Y-96681904D02*
X110608628Y-96777142D01*
X110608628Y-96777142D02*
X110608628Y-97158094D01*
X110513390Y-96015237D02*
X110465771Y-96110475D01*
X110465771Y-96110475D02*
X110418152Y-96158094D01*
X110418152Y-96158094D02*
X110322914Y-96205713D01*
X110322914Y-96205713D02*
X110275295Y-96205713D01*
X110275295Y-96205713D02*
X110180057Y-96158094D01*
X110180057Y-96158094D02*
X110132438Y-96110475D01*
X110132438Y-96110475D02*
X110084819Y-96015237D01*
X110084819Y-96015237D02*
X110084819Y-95824761D01*
X110084819Y-95824761D02*
X110132438Y-95729523D01*
X110132438Y-95729523D02*
X110180057Y-95681904D01*
X110180057Y-95681904D02*
X110275295Y-95634285D01*
X110275295Y-95634285D02*
X110322914Y-95634285D01*
X110322914Y-95634285D02*
X110418152Y-95681904D01*
X110418152Y-95681904D02*
X110465771Y-95729523D01*
X110465771Y-95729523D02*
X110513390Y-95824761D01*
X110513390Y-95824761D02*
X110513390Y-96015237D01*
X110513390Y-96015237D02*
X110561009Y-96110475D01*
X110561009Y-96110475D02*
X110608628Y-96158094D01*
X110608628Y-96158094D02*
X110703866Y-96205713D01*
X110703866Y-96205713D02*
X110894342Y-96205713D01*
X110894342Y-96205713D02*
X110989580Y-96158094D01*
X110989580Y-96158094D02*
X111037200Y-96110475D01*
X111037200Y-96110475D02*
X111084819Y-96015237D01*
X111084819Y-96015237D02*
X111084819Y-95824761D01*
X111084819Y-95824761D02*
X111037200Y-95729523D01*
X111037200Y-95729523D02*
X110989580Y-95681904D01*
X110989580Y-95681904D02*
X110894342Y-95634285D01*
X110894342Y-95634285D02*
X110703866Y-95634285D01*
X110703866Y-95634285D02*
X110608628Y-95681904D01*
X110608628Y-95681904D02*
X110561009Y-95729523D01*
X110561009Y-95729523D02*
X110513390Y-95824761D01*
X146107142Y-63109580D02*
X146059523Y-63157200D01*
X146059523Y-63157200D02*
X145916666Y-63204819D01*
X145916666Y-63204819D02*
X145821428Y-63204819D01*
X145821428Y-63204819D02*
X145678571Y-63157200D01*
X145678571Y-63157200D02*
X145583333Y-63061961D01*
X145583333Y-63061961D02*
X145535714Y-62966723D01*
X145535714Y-62966723D02*
X145488095Y-62776247D01*
X145488095Y-62776247D02*
X145488095Y-62633390D01*
X145488095Y-62633390D02*
X145535714Y-62442914D01*
X145535714Y-62442914D02*
X145583333Y-62347676D01*
X145583333Y-62347676D02*
X145678571Y-62252438D01*
X145678571Y-62252438D02*
X145821428Y-62204819D01*
X145821428Y-62204819D02*
X145916666Y-62204819D01*
X145916666Y-62204819D02*
X146059523Y-62252438D01*
X146059523Y-62252438D02*
X146107142Y-62300057D01*
X147059523Y-63204819D02*
X146488095Y-63204819D01*
X146773809Y-63204819D02*
X146773809Y-62204819D01*
X146773809Y-62204819D02*
X146678571Y-62347676D01*
X146678571Y-62347676D02*
X146583333Y-62442914D01*
X146583333Y-62442914D02*
X146488095Y-62490533D01*
X147678571Y-62204819D02*
X147773809Y-62204819D01*
X147773809Y-62204819D02*
X147869047Y-62252438D01*
X147869047Y-62252438D02*
X147916666Y-62300057D01*
X147916666Y-62300057D02*
X147964285Y-62395295D01*
X147964285Y-62395295D02*
X148011904Y-62585771D01*
X148011904Y-62585771D02*
X148011904Y-62823866D01*
X148011904Y-62823866D02*
X147964285Y-63014342D01*
X147964285Y-63014342D02*
X147916666Y-63109580D01*
X147916666Y-63109580D02*
X147869047Y-63157200D01*
X147869047Y-63157200D02*
X147773809Y-63204819D01*
X147773809Y-63204819D02*
X147678571Y-63204819D01*
X147678571Y-63204819D02*
X147583333Y-63157200D01*
X147583333Y-63157200D02*
X147535714Y-63109580D01*
X147535714Y-63109580D02*
X147488095Y-63014342D01*
X147488095Y-63014342D02*
X147440476Y-62823866D01*
X147440476Y-62823866D02*
X147440476Y-62585771D01*
X147440476Y-62585771D02*
X147488095Y-62395295D01*
X147488095Y-62395295D02*
X147535714Y-62300057D01*
X147535714Y-62300057D02*
X147583333Y-62252438D01*
X147583333Y-62252438D02*
X147678571Y-62204819D01*
X134954819Y-83738094D02*
X133954819Y-83738094D01*
X133954819Y-83738094D02*
X133954819Y-83499999D01*
X133954819Y-83499999D02*
X134002438Y-83357142D01*
X134002438Y-83357142D02*
X134097676Y-83261904D01*
X134097676Y-83261904D02*
X134192914Y-83214285D01*
X134192914Y-83214285D02*
X134383390Y-83166666D01*
X134383390Y-83166666D02*
X134526247Y-83166666D01*
X134526247Y-83166666D02*
X134716723Y-83214285D01*
X134716723Y-83214285D02*
X134811961Y-83261904D01*
X134811961Y-83261904D02*
X134907200Y-83357142D01*
X134907200Y-83357142D02*
X134954819Y-83499999D01*
X134954819Y-83499999D02*
X134954819Y-83738094D01*
X134383390Y-82595237D02*
X134335771Y-82690475D01*
X134335771Y-82690475D02*
X134288152Y-82738094D01*
X134288152Y-82738094D02*
X134192914Y-82785713D01*
X134192914Y-82785713D02*
X134145295Y-82785713D01*
X134145295Y-82785713D02*
X134050057Y-82738094D01*
X134050057Y-82738094D02*
X134002438Y-82690475D01*
X134002438Y-82690475D02*
X133954819Y-82595237D01*
X133954819Y-82595237D02*
X133954819Y-82404761D01*
X133954819Y-82404761D02*
X134002438Y-82309523D01*
X134002438Y-82309523D02*
X134050057Y-82261904D01*
X134050057Y-82261904D02*
X134145295Y-82214285D01*
X134145295Y-82214285D02*
X134192914Y-82214285D01*
X134192914Y-82214285D02*
X134288152Y-82261904D01*
X134288152Y-82261904D02*
X134335771Y-82309523D01*
X134335771Y-82309523D02*
X134383390Y-82404761D01*
X134383390Y-82404761D02*
X134383390Y-82595237D01*
X134383390Y-82595237D02*
X134431009Y-82690475D01*
X134431009Y-82690475D02*
X134478628Y-82738094D01*
X134478628Y-82738094D02*
X134573866Y-82785713D01*
X134573866Y-82785713D02*
X134764342Y-82785713D01*
X134764342Y-82785713D02*
X134859580Y-82738094D01*
X134859580Y-82738094D02*
X134907200Y-82690475D01*
X134907200Y-82690475D02*
X134954819Y-82595237D01*
X134954819Y-82595237D02*
X134954819Y-82404761D01*
X134954819Y-82404761D02*
X134907200Y-82309523D01*
X134907200Y-82309523D02*
X134859580Y-82261904D01*
X134859580Y-82261904D02*
X134764342Y-82214285D01*
X134764342Y-82214285D02*
X134573866Y-82214285D01*
X134573866Y-82214285D02*
X134478628Y-82261904D01*
X134478628Y-82261904D02*
X134431009Y-82309523D01*
X134431009Y-82309523D02*
X134383390Y-82404761D01*
X109947238Y-82441904D02*
X108947238Y-82441904D01*
X109947238Y-81870476D02*
X109375809Y-82299047D01*
X108947238Y-81870476D02*
X109518666Y-82441904D01*
X145357142Y-56359580D02*
X145309523Y-56407200D01*
X145309523Y-56407200D02*
X145166666Y-56454819D01*
X145166666Y-56454819D02*
X145071428Y-56454819D01*
X145071428Y-56454819D02*
X144928571Y-56407200D01*
X144928571Y-56407200D02*
X144833333Y-56311961D01*
X144833333Y-56311961D02*
X144785714Y-56216723D01*
X144785714Y-56216723D02*
X144738095Y-56026247D01*
X144738095Y-56026247D02*
X144738095Y-55883390D01*
X144738095Y-55883390D02*
X144785714Y-55692914D01*
X144785714Y-55692914D02*
X144833333Y-55597676D01*
X144833333Y-55597676D02*
X144928571Y-55502438D01*
X144928571Y-55502438D02*
X145071428Y-55454819D01*
X145071428Y-55454819D02*
X145166666Y-55454819D01*
X145166666Y-55454819D02*
X145309523Y-55502438D01*
X145309523Y-55502438D02*
X145357142Y-55550057D01*
X146309523Y-56454819D02*
X145738095Y-56454819D01*
X146023809Y-56454819D02*
X146023809Y-55454819D01*
X146023809Y-55454819D02*
X145928571Y-55597676D01*
X145928571Y-55597676D02*
X145833333Y-55692914D01*
X145833333Y-55692914D02*
X145738095Y-55740533D01*
X146690476Y-55550057D02*
X146738095Y-55502438D01*
X146738095Y-55502438D02*
X146833333Y-55454819D01*
X146833333Y-55454819D02*
X147071428Y-55454819D01*
X147071428Y-55454819D02*
X147166666Y-55502438D01*
X147166666Y-55502438D02*
X147214285Y-55550057D01*
X147214285Y-55550057D02*
X147261904Y-55645295D01*
X147261904Y-55645295D02*
X147261904Y-55740533D01*
X147261904Y-55740533D02*
X147214285Y-55883390D01*
X147214285Y-55883390D02*
X146642857Y-56454819D01*
X146642857Y-56454819D02*
X147261904Y-56454819D01*
X151954819Y-111738094D02*
X150954819Y-111738094D01*
X150954819Y-111738094D02*
X150954819Y-111499999D01*
X150954819Y-111499999D02*
X151002438Y-111357142D01*
X151002438Y-111357142D02*
X151097676Y-111261904D01*
X151097676Y-111261904D02*
X151192914Y-111214285D01*
X151192914Y-111214285D02*
X151383390Y-111166666D01*
X151383390Y-111166666D02*
X151526247Y-111166666D01*
X151526247Y-111166666D02*
X151716723Y-111214285D01*
X151716723Y-111214285D02*
X151811961Y-111261904D01*
X151811961Y-111261904D02*
X151907200Y-111357142D01*
X151907200Y-111357142D02*
X151954819Y-111499999D01*
X151954819Y-111499999D02*
X151954819Y-111738094D01*
X150954819Y-110833332D02*
X150954819Y-110214285D01*
X150954819Y-110214285D02*
X151335771Y-110547618D01*
X151335771Y-110547618D02*
X151335771Y-110404761D01*
X151335771Y-110404761D02*
X151383390Y-110309523D01*
X151383390Y-110309523D02*
X151431009Y-110261904D01*
X151431009Y-110261904D02*
X151526247Y-110214285D01*
X151526247Y-110214285D02*
X151764342Y-110214285D01*
X151764342Y-110214285D02*
X151859580Y-110261904D01*
X151859580Y-110261904D02*
X151907200Y-110309523D01*
X151907200Y-110309523D02*
X151954819Y-110404761D01*
X151954819Y-110404761D02*
X151954819Y-110690475D01*
X151954819Y-110690475D02*
X151907200Y-110785713D01*
X151907200Y-110785713D02*
X151859580Y-110833332D01*
X157607142Y-65609580D02*
X157559523Y-65657200D01*
X157559523Y-65657200D02*
X157416666Y-65704819D01*
X157416666Y-65704819D02*
X157321428Y-65704819D01*
X157321428Y-65704819D02*
X157178571Y-65657200D01*
X157178571Y-65657200D02*
X157083333Y-65561961D01*
X157083333Y-65561961D02*
X157035714Y-65466723D01*
X157035714Y-65466723D02*
X156988095Y-65276247D01*
X156988095Y-65276247D02*
X156988095Y-65133390D01*
X156988095Y-65133390D02*
X157035714Y-64942914D01*
X157035714Y-64942914D02*
X157083333Y-64847676D01*
X157083333Y-64847676D02*
X157178571Y-64752438D01*
X157178571Y-64752438D02*
X157321428Y-64704819D01*
X157321428Y-64704819D02*
X157416666Y-64704819D01*
X157416666Y-64704819D02*
X157559523Y-64752438D01*
X157559523Y-64752438D02*
X157607142Y-64800057D01*
X158559523Y-65704819D02*
X157988095Y-65704819D01*
X158273809Y-65704819D02*
X158273809Y-64704819D01*
X158273809Y-64704819D02*
X158178571Y-64847676D01*
X158178571Y-64847676D02*
X158083333Y-64942914D01*
X158083333Y-64942914D02*
X157988095Y-64990533D01*
X159464285Y-64704819D02*
X158988095Y-64704819D01*
X158988095Y-64704819D02*
X158940476Y-65181009D01*
X158940476Y-65181009D02*
X158988095Y-65133390D01*
X158988095Y-65133390D02*
X159083333Y-65085771D01*
X159083333Y-65085771D02*
X159321428Y-65085771D01*
X159321428Y-65085771D02*
X159416666Y-65133390D01*
X159416666Y-65133390D02*
X159464285Y-65181009D01*
X159464285Y-65181009D02*
X159511904Y-65276247D01*
X159511904Y-65276247D02*
X159511904Y-65514342D01*
X159511904Y-65514342D02*
X159464285Y-65609580D01*
X159464285Y-65609580D02*
X159416666Y-65657200D01*
X159416666Y-65657200D02*
X159321428Y-65704819D01*
X159321428Y-65704819D02*
X159083333Y-65704819D01*
X159083333Y-65704819D02*
X158988095Y-65657200D01*
X158988095Y-65657200D02*
X158940476Y-65609580D01*
X149464819Y-99738094D02*
X148464819Y-99738094D01*
X148464819Y-99738094D02*
X148464819Y-99499999D01*
X148464819Y-99499999D02*
X148512438Y-99357142D01*
X148512438Y-99357142D02*
X148607676Y-99261904D01*
X148607676Y-99261904D02*
X148702914Y-99214285D01*
X148702914Y-99214285D02*
X148893390Y-99166666D01*
X148893390Y-99166666D02*
X149036247Y-99166666D01*
X149036247Y-99166666D02*
X149226723Y-99214285D01*
X149226723Y-99214285D02*
X149321961Y-99261904D01*
X149321961Y-99261904D02*
X149417200Y-99357142D01*
X149417200Y-99357142D02*
X149464819Y-99499999D01*
X149464819Y-99499999D02*
X149464819Y-99738094D01*
X148464819Y-98309523D02*
X148464819Y-98499999D01*
X148464819Y-98499999D02*
X148512438Y-98595237D01*
X148512438Y-98595237D02*
X148560057Y-98642856D01*
X148560057Y-98642856D02*
X148702914Y-98738094D01*
X148702914Y-98738094D02*
X148893390Y-98785713D01*
X148893390Y-98785713D02*
X149274342Y-98785713D01*
X149274342Y-98785713D02*
X149369580Y-98738094D01*
X149369580Y-98738094D02*
X149417200Y-98690475D01*
X149417200Y-98690475D02*
X149464819Y-98595237D01*
X149464819Y-98595237D02*
X149464819Y-98404761D01*
X149464819Y-98404761D02*
X149417200Y-98309523D01*
X149417200Y-98309523D02*
X149369580Y-98261904D01*
X149369580Y-98261904D02*
X149274342Y-98214285D01*
X149274342Y-98214285D02*
X149036247Y-98214285D01*
X149036247Y-98214285D02*
X148941009Y-98261904D01*
X148941009Y-98261904D02*
X148893390Y-98309523D01*
X148893390Y-98309523D02*
X148845771Y-98404761D01*
X148845771Y-98404761D02*
X148845771Y-98595237D01*
X148845771Y-98595237D02*
X148893390Y-98690475D01*
X148893390Y-98690475D02*
X148941009Y-98738094D01*
X148941009Y-98738094D02*
X149036247Y-98785713D01*
X176654819Y-59583333D02*
X177369104Y-59583333D01*
X177369104Y-59583333D02*
X177511961Y-59630952D01*
X177511961Y-59630952D02*
X177607200Y-59726190D01*
X177607200Y-59726190D02*
X177654819Y-59869047D01*
X177654819Y-59869047D02*
X177654819Y-59964285D01*
X176654819Y-58678571D02*
X176654819Y-58869047D01*
X176654819Y-58869047D02*
X176702438Y-58964285D01*
X176702438Y-58964285D02*
X176750057Y-59011904D01*
X176750057Y-59011904D02*
X176892914Y-59107142D01*
X176892914Y-59107142D02*
X177083390Y-59154761D01*
X177083390Y-59154761D02*
X177464342Y-59154761D01*
X177464342Y-59154761D02*
X177559580Y-59107142D01*
X177559580Y-59107142D02*
X177607200Y-59059523D01*
X177607200Y-59059523D02*
X177654819Y-58964285D01*
X177654819Y-58964285D02*
X177654819Y-58773809D01*
X177654819Y-58773809D02*
X177607200Y-58678571D01*
X177607200Y-58678571D02*
X177559580Y-58630952D01*
X177559580Y-58630952D02*
X177464342Y-58583333D01*
X177464342Y-58583333D02*
X177226247Y-58583333D01*
X177226247Y-58583333D02*
X177131009Y-58630952D01*
X177131009Y-58630952D02*
X177083390Y-58678571D01*
X177083390Y-58678571D02*
X177035771Y-58773809D01*
X177035771Y-58773809D02*
X177035771Y-58964285D01*
X177035771Y-58964285D02*
X177083390Y-59059523D01*
X177083390Y-59059523D02*
X177131009Y-59107142D01*
X177131009Y-59107142D02*
X177226247Y-59154761D01*
X133084819Y-112062857D02*
X132608628Y-112396190D01*
X133084819Y-112634285D02*
X132084819Y-112634285D01*
X132084819Y-112634285D02*
X132084819Y-112253333D01*
X132084819Y-112253333D02*
X132132438Y-112158095D01*
X132132438Y-112158095D02*
X132180057Y-112110476D01*
X132180057Y-112110476D02*
X132275295Y-112062857D01*
X132275295Y-112062857D02*
X132418152Y-112062857D01*
X132418152Y-112062857D02*
X132513390Y-112110476D01*
X132513390Y-112110476D02*
X132561009Y-112158095D01*
X132561009Y-112158095D02*
X132608628Y-112253333D01*
X132608628Y-112253333D02*
X132608628Y-112634285D01*
X133084819Y-111110476D02*
X133084819Y-111681904D01*
X133084819Y-111396190D02*
X132084819Y-111396190D01*
X132084819Y-111396190D02*
X132227676Y-111491428D01*
X132227676Y-111491428D02*
X132322914Y-111586666D01*
X132322914Y-111586666D02*
X132370533Y-111681904D01*
X132084819Y-110491428D02*
X132084819Y-110396190D01*
X132084819Y-110396190D02*
X132132438Y-110300952D01*
X132132438Y-110300952D02*
X132180057Y-110253333D01*
X132180057Y-110253333D02*
X132275295Y-110205714D01*
X132275295Y-110205714D02*
X132465771Y-110158095D01*
X132465771Y-110158095D02*
X132703866Y-110158095D01*
X132703866Y-110158095D02*
X132894342Y-110205714D01*
X132894342Y-110205714D02*
X132989580Y-110253333D01*
X132989580Y-110253333D02*
X133037200Y-110300952D01*
X133037200Y-110300952D02*
X133084819Y-110396190D01*
X133084819Y-110396190D02*
X133084819Y-110491428D01*
X133084819Y-110491428D02*
X133037200Y-110586666D01*
X133037200Y-110586666D02*
X132989580Y-110634285D01*
X132989580Y-110634285D02*
X132894342Y-110681904D01*
X132894342Y-110681904D02*
X132703866Y-110729523D01*
X132703866Y-110729523D02*
X132465771Y-110729523D01*
X132465771Y-110729523D02*
X132275295Y-110681904D01*
X132275295Y-110681904D02*
X132180057Y-110634285D01*
X132180057Y-110634285D02*
X132132438Y-110586666D01*
X132132438Y-110586666D02*
X132084819Y-110491428D01*
X110166666Y-62431009D02*
X109833333Y-62431009D01*
X109833333Y-62954819D02*
X109833333Y-61954819D01*
X109833333Y-61954819D02*
X110309523Y-61954819D01*
X110642857Y-62050057D02*
X110690476Y-62002438D01*
X110690476Y-62002438D02*
X110785714Y-61954819D01*
X110785714Y-61954819D02*
X111023809Y-61954819D01*
X111023809Y-61954819D02*
X111119047Y-62002438D01*
X111119047Y-62002438D02*
X111166666Y-62050057D01*
X111166666Y-62050057D02*
X111214285Y-62145295D01*
X111214285Y-62145295D02*
X111214285Y-62240533D01*
X111214285Y-62240533D02*
X111166666Y-62383390D01*
X111166666Y-62383390D02*
X110595238Y-62954819D01*
X110595238Y-62954819D02*
X111214285Y-62954819D01*
X109274819Y-56333333D02*
X109989104Y-56333333D01*
X109989104Y-56333333D02*
X110131961Y-56380952D01*
X110131961Y-56380952D02*
X110227200Y-56476190D01*
X110227200Y-56476190D02*
X110274819Y-56619047D01*
X110274819Y-56619047D02*
X110274819Y-56714285D01*
X110274819Y-55333333D02*
X110274819Y-55904761D01*
X110274819Y-55619047D02*
X109274819Y-55619047D01*
X109274819Y-55619047D02*
X109417676Y-55714285D01*
X109417676Y-55714285D02*
X109512914Y-55809523D01*
X109512914Y-55809523D02*
X109560533Y-55904761D01*
X192421011Y-99663807D02*
X192325773Y-99616188D01*
X192325773Y-99616188D02*
X192230535Y-99520950D01*
X192230535Y-99520950D02*
X192087678Y-99378092D01*
X192087678Y-99378092D02*
X191992440Y-99330473D01*
X191992440Y-99330473D02*
X191897202Y-99330473D01*
X191944821Y-99568569D02*
X191849583Y-99520950D01*
X191849583Y-99520950D02*
X191754345Y-99425711D01*
X191754345Y-99425711D02*
X191706726Y-99235235D01*
X191706726Y-99235235D02*
X191706726Y-98901902D01*
X191706726Y-98901902D02*
X191754345Y-98711426D01*
X191754345Y-98711426D02*
X191849583Y-98616188D01*
X191849583Y-98616188D02*
X191944821Y-98568569D01*
X191944821Y-98568569D02*
X192135297Y-98568569D01*
X192135297Y-98568569D02*
X192230535Y-98616188D01*
X192230535Y-98616188D02*
X192325773Y-98711426D01*
X192325773Y-98711426D02*
X192373392Y-98901902D01*
X192373392Y-98901902D02*
X192373392Y-99235235D01*
X192373392Y-99235235D02*
X192325773Y-99425711D01*
X192325773Y-99425711D02*
X192230535Y-99520950D01*
X192230535Y-99520950D02*
X192135297Y-99568569D01*
X192135297Y-99568569D02*
X191944821Y-99568569D01*
X192706726Y-98568569D02*
X193325773Y-98568569D01*
X193325773Y-98568569D02*
X192992440Y-98949521D01*
X192992440Y-98949521D02*
X193135297Y-98949521D01*
X193135297Y-98949521D02*
X193230535Y-98997140D01*
X193230535Y-98997140D02*
X193278154Y-99044759D01*
X193278154Y-99044759D02*
X193325773Y-99139997D01*
X193325773Y-99139997D02*
X193325773Y-99378092D01*
X193325773Y-99378092D02*
X193278154Y-99473330D01*
X193278154Y-99473330D02*
X193230535Y-99520950D01*
X193230535Y-99520950D02*
X193135297Y-99568569D01*
X193135297Y-99568569D02*
X192849583Y-99568569D01*
X192849583Y-99568569D02*
X192754345Y-99520950D01*
X192754345Y-99520950D02*
X192706726Y-99473330D01*
X121454819Y-95166666D02*
X120978628Y-95499999D01*
X121454819Y-95738094D02*
X120454819Y-95738094D01*
X120454819Y-95738094D02*
X120454819Y-95357142D01*
X120454819Y-95357142D02*
X120502438Y-95261904D01*
X120502438Y-95261904D02*
X120550057Y-95214285D01*
X120550057Y-95214285D02*
X120645295Y-95166666D01*
X120645295Y-95166666D02*
X120788152Y-95166666D01*
X120788152Y-95166666D02*
X120883390Y-95214285D01*
X120883390Y-95214285D02*
X120931009Y-95261904D01*
X120931009Y-95261904D02*
X120978628Y-95357142D01*
X120978628Y-95357142D02*
X120978628Y-95738094D01*
X120454819Y-94833332D02*
X120454819Y-94214285D01*
X120454819Y-94214285D02*
X120835771Y-94547618D01*
X120835771Y-94547618D02*
X120835771Y-94404761D01*
X120835771Y-94404761D02*
X120883390Y-94309523D01*
X120883390Y-94309523D02*
X120931009Y-94261904D01*
X120931009Y-94261904D02*
X121026247Y-94214285D01*
X121026247Y-94214285D02*
X121264342Y-94214285D01*
X121264342Y-94214285D02*
X121359580Y-94261904D01*
X121359580Y-94261904D02*
X121407200Y-94309523D01*
X121407200Y-94309523D02*
X121454819Y-94404761D01*
X121454819Y-94404761D02*
X121454819Y-94690475D01*
X121454819Y-94690475D02*
X121407200Y-94785713D01*
X121407200Y-94785713D02*
X121359580Y-94833332D01*
X201559819Y-65571904D02*
X202369342Y-65571904D01*
X202369342Y-65571904D02*
X202464580Y-65524285D01*
X202464580Y-65524285D02*
X202512200Y-65476666D01*
X202512200Y-65476666D02*
X202559819Y-65381428D01*
X202559819Y-65381428D02*
X202559819Y-65190952D01*
X202559819Y-65190952D02*
X202512200Y-65095714D01*
X202512200Y-65095714D02*
X202464580Y-65048095D01*
X202464580Y-65048095D02*
X202369342Y-65000476D01*
X202369342Y-65000476D02*
X201559819Y-65000476D01*
X201988390Y-64381428D02*
X201940771Y-64476666D01*
X201940771Y-64476666D02*
X201893152Y-64524285D01*
X201893152Y-64524285D02*
X201797914Y-64571904D01*
X201797914Y-64571904D02*
X201750295Y-64571904D01*
X201750295Y-64571904D02*
X201655057Y-64524285D01*
X201655057Y-64524285D02*
X201607438Y-64476666D01*
X201607438Y-64476666D02*
X201559819Y-64381428D01*
X201559819Y-64381428D02*
X201559819Y-64190952D01*
X201559819Y-64190952D02*
X201607438Y-64095714D01*
X201607438Y-64095714D02*
X201655057Y-64048095D01*
X201655057Y-64048095D02*
X201750295Y-64000476D01*
X201750295Y-64000476D02*
X201797914Y-64000476D01*
X201797914Y-64000476D02*
X201893152Y-64048095D01*
X201893152Y-64048095D02*
X201940771Y-64095714D01*
X201940771Y-64095714D02*
X201988390Y-64190952D01*
X201988390Y-64190952D02*
X201988390Y-64381428D01*
X201988390Y-64381428D02*
X202036009Y-64476666D01*
X202036009Y-64476666D02*
X202083628Y-64524285D01*
X202083628Y-64524285D02*
X202178866Y-64571904D01*
X202178866Y-64571904D02*
X202369342Y-64571904D01*
X202369342Y-64571904D02*
X202464580Y-64524285D01*
X202464580Y-64524285D02*
X202512200Y-64476666D01*
X202512200Y-64476666D02*
X202559819Y-64381428D01*
X202559819Y-64381428D02*
X202559819Y-64190952D01*
X202559819Y-64190952D02*
X202512200Y-64095714D01*
X202512200Y-64095714D02*
X202464580Y-64048095D01*
X202464580Y-64048095D02*
X202369342Y-64000476D01*
X202369342Y-64000476D02*
X202178866Y-64000476D01*
X202178866Y-64000476D02*
X202083628Y-64048095D01*
X202083628Y-64048095D02*
X202036009Y-64095714D01*
X202036009Y-64095714D02*
X201988390Y-64190952D01*
X164190476Y-120134819D02*
X164190476Y-120849104D01*
X164190476Y-120849104D02*
X164142857Y-120991961D01*
X164142857Y-120991961D02*
X164047619Y-121087200D01*
X164047619Y-121087200D02*
X163904762Y-121134819D01*
X163904762Y-121134819D02*
X163809524Y-121134819D01*
X165190476Y-121134819D02*
X164619048Y-121134819D01*
X164904762Y-121134819D02*
X164904762Y-120134819D01*
X164904762Y-120134819D02*
X164809524Y-120277676D01*
X164809524Y-120277676D02*
X164714286Y-120372914D01*
X164714286Y-120372914D02*
X164619048Y-120420533D01*
X166047619Y-120468152D02*
X166047619Y-121134819D01*
X165809524Y-120087200D02*
X165571429Y-120801485D01*
X165571429Y-120801485D02*
X166190476Y-120801485D01*
X118859580Y-92166666D02*
X118907200Y-92214285D01*
X118907200Y-92214285D02*
X118954819Y-92357142D01*
X118954819Y-92357142D02*
X118954819Y-92452380D01*
X118954819Y-92452380D02*
X118907200Y-92595237D01*
X118907200Y-92595237D02*
X118811961Y-92690475D01*
X118811961Y-92690475D02*
X118716723Y-92738094D01*
X118716723Y-92738094D02*
X118526247Y-92785713D01*
X118526247Y-92785713D02*
X118383390Y-92785713D01*
X118383390Y-92785713D02*
X118192914Y-92738094D01*
X118192914Y-92738094D02*
X118097676Y-92690475D01*
X118097676Y-92690475D02*
X118002438Y-92595237D01*
X118002438Y-92595237D02*
X117954819Y-92452380D01*
X117954819Y-92452380D02*
X117954819Y-92357142D01*
X117954819Y-92357142D02*
X118002438Y-92214285D01*
X118002438Y-92214285D02*
X118050057Y-92166666D01*
X118288152Y-91309523D02*
X118954819Y-91309523D01*
X117907200Y-91547618D02*
X118621485Y-91785713D01*
X118621485Y-91785713D02*
X118621485Y-91166666D01*
X147824819Y-111166666D02*
X147348628Y-111499999D01*
X147824819Y-111738094D02*
X146824819Y-111738094D01*
X146824819Y-111738094D02*
X146824819Y-111357142D01*
X146824819Y-111357142D02*
X146872438Y-111261904D01*
X146872438Y-111261904D02*
X146920057Y-111214285D01*
X146920057Y-111214285D02*
X147015295Y-111166666D01*
X147015295Y-111166666D02*
X147158152Y-111166666D01*
X147158152Y-111166666D02*
X147253390Y-111214285D01*
X147253390Y-111214285D02*
X147301009Y-111261904D01*
X147301009Y-111261904D02*
X147348628Y-111357142D01*
X147348628Y-111357142D02*
X147348628Y-111738094D01*
X146824819Y-110261904D02*
X146824819Y-110738094D01*
X146824819Y-110738094D02*
X147301009Y-110785713D01*
X147301009Y-110785713D02*
X147253390Y-110738094D01*
X147253390Y-110738094D02*
X147205771Y-110642856D01*
X147205771Y-110642856D02*
X147205771Y-110404761D01*
X147205771Y-110404761D02*
X147253390Y-110309523D01*
X147253390Y-110309523D02*
X147301009Y-110261904D01*
X147301009Y-110261904D02*
X147396247Y-110214285D01*
X147396247Y-110214285D02*
X147634342Y-110214285D01*
X147634342Y-110214285D02*
X147729580Y-110261904D01*
X147729580Y-110261904D02*
X147777200Y-110309523D01*
X147777200Y-110309523D02*
X147824819Y-110404761D01*
X147824819Y-110404761D02*
X147824819Y-110642856D01*
X147824819Y-110642856D02*
X147777200Y-110738094D01*
X147777200Y-110738094D02*
X147729580Y-110785713D01*
X176654819Y-94083333D02*
X177369104Y-94083333D01*
X177369104Y-94083333D02*
X177511961Y-94130952D01*
X177511961Y-94130952D02*
X177607200Y-94226190D01*
X177607200Y-94226190D02*
X177654819Y-94369047D01*
X177654819Y-94369047D02*
X177654819Y-94464285D01*
X176654819Y-93130952D02*
X176654819Y-93607142D01*
X176654819Y-93607142D02*
X177131009Y-93654761D01*
X177131009Y-93654761D02*
X177083390Y-93607142D01*
X177083390Y-93607142D02*
X177035771Y-93511904D01*
X177035771Y-93511904D02*
X177035771Y-93273809D01*
X177035771Y-93273809D02*
X177083390Y-93178571D01*
X177083390Y-93178571D02*
X177131009Y-93130952D01*
X177131009Y-93130952D02*
X177226247Y-93083333D01*
X177226247Y-93083333D02*
X177464342Y-93083333D01*
X177464342Y-93083333D02*
X177559580Y-93130952D01*
X177559580Y-93130952D02*
X177607200Y-93178571D01*
X177607200Y-93178571D02*
X177654819Y-93273809D01*
X177654819Y-93273809D02*
X177654819Y-93511904D01*
X177654819Y-93511904D02*
X177607200Y-93607142D01*
X177607200Y-93607142D02*
X177559580Y-93654761D01*
X199857142Y-131204819D02*
X199523809Y-130728628D01*
X199285714Y-131204819D02*
X199285714Y-130204819D01*
X199285714Y-130204819D02*
X199666666Y-130204819D01*
X199666666Y-130204819D02*
X199761904Y-130252438D01*
X199761904Y-130252438D02*
X199809523Y-130300057D01*
X199809523Y-130300057D02*
X199857142Y-130395295D01*
X199857142Y-130395295D02*
X199857142Y-130538152D01*
X199857142Y-130538152D02*
X199809523Y-130633390D01*
X199809523Y-130633390D02*
X199761904Y-130681009D01*
X199761904Y-130681009D02*
X199666666Y-130728628D01*
X199666666Y-130728628D02*
X199285714Y-130728628D01*
X200809523Y-131204819D02*
X200238095Y-131204819D01*
X200523809Y-131204819D02*
X200523809Y-130204819D01*
X200523809Y-130204819D02*
X200428571Y-130347676D01*
X200428571Y-130347676D02*
X200333333Y-130442914D01*
X200333333Y-130442914D02*
X200238095Y-130490533D01*
X201666666Y-130538152D02*
X201666666Y-131204819D01*
X201428571Y-130157200D02*
X201190476Y-130871485D01*
X201190476Y-130871485D02*
X201809523Y-130871485D01*
X151669819Y-85956904D02*
X152479342Y-85956904D01*
X152479342Y-85956904D02*
X152574580Y-85909285D01*
X152574580Y-85909285D02*
X152622200Y-85861666D01*
X152622200Y-85861666D02*
X152669819Y-85766428D01*
X152669819Y-85766428D02*
X152669819Y-85575952D01*
X152669819Y-85575952D02*
X152622200Y-85480714D01*
X152622200Y-85480714D02*
X152574580Y-85433095D01*
X152574580Y-85433095D02*
X152479342Y-85385476D01*
X152479342Y-85385476D02*
X151669819Y-85385476D01*
X151669819Y-85004523D02*
X151669819Y-84385476D01*
X151669819Y-84385476D02*
X152050771Y-84718809D01*
X152050771Y-84718809D02*
X152050771Y-84575952D01*
X152050771Y-84575952D02*
X152098390Y-84480714D01*
X152098390Y-84480714D02*
X152146009Y-84433095D01*
X152146009Y-84433095D02*
X152241247Y-84385476D01*
X152241247Y-84385476D02*
X152479342Y-84385476D01*
X152479342Y-84385476D02*
X152574580Y-84433095D01*
X152574580Y-84433095D02*
X152622200Y-84480714D01*
X152622200Y-84480714D02*
X152669819Y-84575952D01*
X152669819Y-84575952D02*
X152669819Y-84861666D01*
X152669819Y-84861666D02*
X152622200Y-84956904D01*
X152622200Y-84956904D02*
X152574580Y-85004523D01*
X159738095Y-92454819D02*
X159738095Y-93264342D01*
X159738095Y-93264342D02*
X159785714Y-93359580D01*
X159785714Y-93359580D02*
X159833333Y-93407200D01*
X159833333Y-93407200D02*
X159928571Y-93454819D01*
X159928571Y-93454819D02*
X160119047Y-93454819D01*
X160119047Y-93454819D02*
X160214285Y-93407200D01*
X160214285Y-93407200D02*
X160261904Y-93359580D01*
X160261904Y-93359580D02*
X160309523Y-93264342D01*
X160309523Y-93264342D02*
X160309523Y-92454819D01*
X161309523Y-93454819D02*
X160738095Y-93454819D01*
X161023809Y-93454819D02*
X161023809Y-92454819D01*
X161023809Y-92454819D02*
X160928571Y-92597676D01*
X160928571Y-92597676D02*
X160833333Y-92692914D01*
X160833333Y-92692914D02*
X160738095Y-92740533D01*
X189084819Y-65722857D02*
X188608628Y-66056190D01*
X189084819Y-66294285D02*
X188084819Y-66294285D01*
X188084819Y-66294285D02*
X188084819Y-65913333D01*
X188084819Y-65913333D02*
X188132438Y-65818095D01*
X188132438Y-65818095D02*
X188180057Y-65770476D01*
X188180057Y-65770476D02*
X188275295Y-65722857D01*
X188275295Y-65722857D02*
X188418152Y-65722857D01*
X188418152Y-65722857D02*
X188513390Y-65770476D01*
X188513390Y-65770476D02*
X188561009Y-65818095D01*
X188561009Y-65818095D02*
X188608628Y-65913333D01*
X188608628Y-65913333D02*
X188608628Y-66294285D01*
X189084819Y-64770476D02*
X189084819Y-65341904D01*
X189084819Y-65056190D02*
X188084819Y-65056190D01*
X188084819Y-65056190D02*
X188227676Y-65151428D01*
X188227676Y-65151428D02*
X188322914Y-65246666D01*
X188322914Y-65246666D02*
X188370533Y-65341904D01*
X188084819Y-63913333D02*
X188084819Y-64103809D01*
X188084819Y-64103809D02*
X188132438Y-64199047D01*
X188132438Y-64199047D02*
X188180057Y-64246666D01*
X188180057Y-64246666D02*
X188322914Y-64341904D01*
X188322914Y-64341904D02*
X188513390Y-64389523D01*
X188513390Y-64389523D02*
X188894342Y-64389523D01*
X188894342Y-64389523D02*
X188989580Y-64341904D01*
X188989580Y-64341904D02*
X189037200Y-64294285D01*
X189037200Y-64294285D02*
X189084819Y-64199047D01*
X189084819Y-64199047D02*
X189084819Y-64008571D01*
X189084819Y-64008571D02*
X189037200Y-63913333D01*
X189037200Y-63913333D02*
X188989580Y-63865714D01*
X188989580Y-63865714D02*
X188894342Y-63818095D01*
X188894342Y-63818095D02*
X188656247Y-63818095D01*
X188656247Y-63818095D02*
X188561009Y-63865714D01*
X188561009Y-63865714D02*
X188513390Y-63913333D01*
X188513390Y-63913333D02*
X188465771Y-64008571D01*
X188465771Y-64008571D02*
X188465771Y-64199047D01*
X188465771Y-64199047D02*
X188513390Y-64294285D01*
X188513390Y-64294285D02*
X188561009Y-64341904D01*
X188561009Y-64341904D02*
X188656247Y-64389523D01*
X144209580Y-97166666D02*
X144257200Y-97214285D01*
X144257200Y-97214285D02*
X144304819Y-97357142D01*
X144304819Y-97357142D02*
X144304819Y-97452380D01*
X144304819Y-97452380D02*
X144257200Y-97595237D01*
X144257200Y-97595237D02*
X144161961Y-97690475D01*
X144161961Y-97690475D02*
X144066723Y-97738094D01*
X144066723Y-97738094D02*
X143876247Y-97785713D01*
X143876247Y-97785713D02*
X143733390Y-97785713D01*
X143733390Y-97785713D02*
X143542914Y-97738094D01*
X143542914Y-97738094D02*
X143447676Y-97690475D01*
X143447676Y-97690475D02*
X143352438Y-97595237D01*
X143352438Y-97595237D02*
X143304819Y-97452380D01*
X143304819Y-97452380D02*
X143304819Y-97357142D01*
X143304819Y-97357142D02*
X143352438Y-97214285D01*
X143352438Y-97214285D02*
X143400057Y-97166666D01*
X143304819Y-96261904D02*
X143304819Y-96738094D01*
X143304819Y-96738094D02*
X143781009Y-96785713D01*
X143781009Y-96785713D02*
X143733390Y-96738094D01*
X143733390Y-96738094D02*
X143685771Y-96642856D01*
X143685771Y-96642856D02*
X143685771Y-96404761D01*
X143685771Y-96404761D02*
X143733390Y-96309523D01*
X143733390Y-96309523D02*
X143781009Y-96261904D01*
X143781009Y-96261904D02*
X143876247Y-96214285D01*
X143876247Y-96214285D02*
X144114342Y-96214285D01*
X144114342Y-96214285D02*
X144209580Y-96261904D01*
X144209580Y-96261904D02*
X144257200Y-96309523D01*
X144257200Y-96309523D02*
X144304819Y-96404761D01*
X144304819Y-96404761D02*
X144304819Y-96642856D01*
X144304819Y-96642856D02*
X144257200Y-96738094D01*
X144257200Y-96738094D02*
X144209580Y-96785713D01*
X138738095Y-47804819D02*
X138738095Y-48614342D01*
X138738095Y-48614342D02*
X138785714Y-48709580D01*
X138785714Y-48709580D02*
X138833333Y-48757200D01*
X138833333Y-48757200D02*
X138928571Y-48804819D01*
X138928571Y-48804819D02*
X139119047Y-48804819D01*
X139119047Y-48804819D02*
X139214285Y-48757200D01*
X139214285Y-48757200D02*
X139261904Y-48709580D01*
X139261904Y-48709580D02*
X139309523Y-48614342D01*
X139309523Y-48614342D02*
X139309523Y-47804819D01*
X140214285Y-48138152D02*
X140214285Y-48804819D01*
X139976190Y-47757200D02*
X139738095Y-48471485D01*
X139738095Y-48471485D02*
X140357142Y-48471485D01*
X151607142Y-48109580D02*
X151559523Y-48157200D01*
X151559523Y-48157200D02*
X151416666Y-48204819D01*
X151416666Y-48204819D02*
X151321428Y-48204819D01*
X151321428Y-48204819D02*
X151178571Y-48157200D01*
X151178571Y-48157200D02*
X151083333Y-48061961D01*
X151083333Y-48061961D02*
X151035714Y-47966723D01*
X151035714Y-47966723D02*
X150988095Y-47776247D01*
X150988095Y-47776247D02*
X150988095Y-47633390D01*
X150988095Y-47633390D02*
X151035714Y-47442914D01*
X151035714Y-47442914D02*
X151083333Y-47347676D01*
X151083333Y-47347676D02*
X151178571Y-47252438D01*
X151178571Y-47252438D02*
X151321428Y-47204819D01*
X151321428Y-47204819D02*
X151416666Y-47204819D01*
X151416666Y-47204819D02*
X151559523Y-47252438D01*
X151559523Y-47252438D02*
X151607142Y-47300057D01*
X152559523Y-48204819D02*
X151988095Y-48204819D01*
X152273809Y-48204819D02*
X152273809Y-47204819D01*
X152273809Y-47204819D02*
X152178571Y-47347676D01*
X152178571Y-47347676D02*
X152083333Y-47442914D01*
X152083333Y-47442914D02*
X151988095Y-47490533D01*
X152892857Y-47204819D02*
X153511904Y-47204819D01*
X153511904Y-47204819D02*
X153178571Y-47585771D01*
X153178571Y-47585771D02*
X153321428Y-47585771D01*
X153321428Y-47585771D02*
X153416666Y-47633390D01*
X153416666Y-47633390D02*
X153464285Y-47681009D01*
X153464285Y-47681009D02*
X153511904Y-47776247D01*
X153511904Y-47776247D02*
X153511904Y-48014342D01*
X153511904Y-48014342D02*
X153464285Y-48109580D01*
X153464285Y-48109580D02*
X153416666Y-48157200D01*
X153416666Y-48157200D02*
X153321428Y-48204819D01*
X153321428Y-48204819D02*
X153035714Y-48204819D01*
X153035714Y-48204819D02*
X152940476Y-48157200D01*
X152940476Y-48157200D02*
X152892857Y-48109580D01*
X163357142Y-54859580D02*
X163309523Y-54907200D01*
X163309523Y-54907200D02*
X163166666Y-54954819D01*
X163166666Y-54954819D02*
X163071428Y-54954819D01*
X163071428Y-54954819D02*
X162928571Y-54907200D01*
X162928571Y-54907200D02*
X162833333Y-54811961D01*
X162833333Y-54811961D02*
X162785714Y-54716723D01*
X162785714Y-54716723D02*
X162738095Y-54526247D01*
X162738095Y-54526247D02*
X162738095Y-54383390D01*
X162738095Y-54383390D02*
X162785714Y-54192914D01*
X162785714Y-54192914D02*
X162833333Y-54097676D01*
X162833333Y-54097676D02*
X162928571Y-54002438D01*
X162928571Y-54002438D02*
X163071428Y-53954819D01*
X163071428Y-53954819D02*
X163166666Y-53954819D01*
X163166666Y-53954819D02*
X163309523Y-54002438D01*
X163309523Y-54002438D02*
X163357142Y-54050057D01*
X164309523Y-54954819D02*
X163738095Y-54954819D01*
X164023809Y-54954819D02*
X164023809Y-53954819D01*
X164023809Y-53954819D02*
X163928571Y-54097676D01*
X163928571Y-54097676D02*
X163833333Y-54192914D01*
X163833333Y-54192914D02*
X163738095Y-54240533D01*
X165166666Y-53954819D02*
X164976190Y-53954819D01*
X164976190Y-53954819D02*
X164880952Y-54002438D01*
X164880952Y-54002438D02*
X164833333Y-54050057D01*
X164833333Y-54050057D02*
X164738095Y-54192914D01*
X164738095Y-54192914D02*
X164690476Y-54383390D01*
X164690476Y-54383390D02*
X164690476Y-54764342D01*
X164690476Y-54764342D02*
X164738095Y-54859580D01*
X164738095Y-54859580D02*
X164785714Y-54907200D01*
X164785714Y-54907200D02*
X164880952Y-54954819D01*
X164880952Y-54954819D02*
X165071428Y-54954819D01*
X165071428Y-54954819D02*
X165166666Y-54907200D01*
X165166666Y-54907200D02*
X165214285Y-54859580D01*
X165214285Y-54859580D02*
X165261904Y-54764342D01*
X165261904Y-54764342D02*
X165261904Y-54526247D01*
X165261904Y-54526247D02*
X165214285Y-54431009D01*
X165214285Y-54431009D02*
X165166666Y-54383390D01*
X165166666Y-54383390D02*
X165071428Y-54335771D01*
X165071428Y-54335771D02*
X164880952Y-54335771D01*
X164880952Y-54335771D02*
X164785714Y-54383390D01*
X164785714Y-54383390D02*
X164738095Y-54431009D01*
X164738095Y-54431009D02*
X164690476Y-54526247D01*
X168009793Y-65109580D02*
X167962174Y-65157200D01*
X167962174Y-65157200D02*
X167819317Y-65204819D01*
X167819317Y-65204819D02*
X167724079Y-65204819D01*
X167724079Y-65204819D02*
X167581222Y-65157200D01*
X167581222Y-65157200D02*
X167485984Y-65061961D01*
X167485984Y-65061961D02*
X167438365Y-64966723D01*
X167438365Y-64966723D02*
X167390746Y-64776247D01*
X167390746Y-64776247D02*
X167390746Y-64633390D01*
X167390746Y-64633390D02*
X167438365Y-64442914D01*
X167438365Y-64442914D02*
X167485984Y-64347676D01*
X167485984Y-64347676D02*
X167581222Y-64252438D01*
X167581222Y-64252438D02*
X167724079Y-64204819D01*
X167724079Y-64204819D02*
X167819317Y-64204819D01*
X167819317Y-64204819D02*
X167962174Y-64252438D01*
X167962174Y-64252438D02*
X168009793Y-64300057D01*
X168962174Y-65204819D02*
X168390746Y-65204819D01*
X168676460Y-65204819D02*
X168676460Y-64204819D01*
X168676460Y-64204819D02*
X168581222Y-64347676D01*
X168581222Y-64347676D02*
X168485984Y-64442914D01*
X168485984Y-64442914D02*
X168390746Y-64490533D01*
X169533603Y-64633390D02*
X169438365Y-64585771D01*
X169438365Y-64585771D02*
X169390746Y-64538152D01*
X169390746Y-64538152D02*
X169343127Y-64442914D01*
X169343127Y-64442914D02*
X169343127Y-64395295D01*
X169343127Y-64395295D02*
X169390746Y-64300057D01*
X169390746Y-64300057D02*
X169438365Y-64252438D01*
X169438365Y-64252438D02*
X169533603Y-64204819D01*
X169533603Y-64204819D02*
X169724079Y-64204819D01*
X169724079Y-64204819D02*
X169819317Y-64252438D01*
X169819317Y-64252438D02*
X169866936Y-64300057D01*
X169866936Y-64300057D02*
X169914555Y-64395295D01*
X169914555Y-64395295D02*
X169914555Y-64442914D01*
X169914555Y-64442914D02*
X169866936Y-64538152D01*
X169866936Y-64538152D02*
X169819317Y-64585771D01*
X169819317Y-64585771D02*
X169724079Y-64633390D01*
X169724079Y-64633390D02*
X169533603Y-64633390D01*
X169533603Y-64633390D02*
X169438365Y-64681009D01*
X169438365Y-64681009D02*
X169390746Y-64728628D01*
X169390746Y-64728628D02*
X169343127Y-64823866D01*
X169343127Y-64823866D02*
X169343127Y-65014342D01*
X169343127Y-65014342D02*
X169390746Y-65109580D01*
X169390746Y-65109580D02*
X169438365Y-65157200D01*
X169438365Y-65157200D02*
X169533603Y-65204819D01*
X169533603Y-65204819D02*
X169724079Y-65204819D01*
X169724079Y-65204819D02*
X169819317Y-65157200D01*
X169819317Y-65157200D02*
X169866936Y-65109580D01*
X169866936Y-65109580D02*
X169914555Y-65014342D01*
X169914555Y-65014342D02*
X169914555Y-64823866D01*
X169914555Y-64823866D02*
X169866936Y-64728628D01*
X169866936Y-64728628D02*
X169819317Y-64681009D01*
X169819317Y-64681009D02*
X169724079Y-64633390D01*
X121954819Y-128818094D02*
X120954819Y-128818094D01*
X120954819Y-128818094D02*
X120954819Y-128579999D01*
X120954819Y-128579999D02*
X121002438Y-128437142D01*
X121002438Y-128437142D02*
X121097676Y-128341904D01*
X121097676Y-128341904D02*
X121192914Y-128294285D01*
X121192914Y-128294285D02*
X121383390Y-128246666D01*
X121383390Y-128246666D02*
X121526247Y-128246666D01*
X121526247Y-128246666D02*
X121716723Y-128294285D01*
X121716723Y-128294285D02*
X121811961Y-128341904D01*
X121811961Y-128341904D02*
X121907200Y-128437142D01*
X121907200Y-128437142D02*
X121954819Y-128579999D01*
X121954819Y-128579999D02*
X121954819Y-128818094D01*
X121954819Y-127294285D02*
X121954819Y-127865713D01*
X121954819Y-127579999D02*
X120954819Y-127579999D01*
X120954819Y-127579999D02*
X121097676Y-127675237D01*
X121097676Y-127675237D02*
X121192914Y-127770475D01*
X121192914Y-127770475D02*
X121240533Y-127865713D01*
X112859580Y-123746666D02*
X112907200Y-123794285D01*
X112907200Y-123794285D02*
X112954819Y-123937142D01*
X112954819Y-123937142D02*
X112954819Y-124032380D01*
X112954819Y-124032380D02*
X112907200Y-124175237D01*
X112907200Y-124175237D02*
X112811961Y-124270475D01*
X112811961Y-124270475D02*
X112716723Y-124318094D01*
X112716723Y-124318094D02*
X112526247Y-124365713D01*
X112526247Y-124365713D02*
X112383390Y-124365713D01*
X112383390Y-124365713D02*
X112192914Y-124318094D01*
X112192914Y-124318094D02*
X112097676Y-124270475D01*
X112097676Y-124270475D02*
X112002438Y-124175237D01*
X112002438Y-124175237D02*
X111954819Y-124032380D01*
X111954819Y-124032380D02*
X111954819Y-123937142D01*
X111954819Y-123937142D02*
X112002438Y-123794285D01*
X112002438Y-123794285D02*
X112050057Y-123746666D01*
X112954819Y-122794285D02*
X112954819Y-123365713D01*
X112954819Y-123079999D02*
X111954819Y-123079999D01*
X111954819Y-123079999D02*
X112097676Y-123175237D01*
X112097676Y-123175237D02*
X112192914Y-123270475D01*
X112192914Y-123270475D02*
X112240533Y-123365713D01*
X125824819Y-109166666D02*
X125348628Y-109499999D01*
X125824819Y-109738094D02*
X124824819Y-109738094D01*
X124824819Y-109738094D02*
X124824819Y-109357142D01*
X124824819Y-109357142D02*
X124872438Y-109261904D01*
X124872438Y-109261904D02*
X124920057Y-109214285D01*
X124920057Y-109214285D02*
X125015295Y-109166666D01*
X125015295Y-109166666D02*
X125158152Y-109166666D01*
X125158152Y-109166666D02*
X125253390Y-109214285D01*
X125253390Y-109214285D02*
X125301009Y-109261904D01*
X125301009Y-109261904D02*
X125348628Y-109357142D01*
X125348628Y-109357142D02*
X125348628Y-109738094D01*
X124920057Y-108785713D02*
X124872438Y-108738094D01*
X124872438Y-108738094D02*
X124824819Y-108642856D01*
X124824819Y-108642856D02*
X124824819Y-108404761D01*
X124824819Y-108404761D02*
X124872438Y-108309523D01*
X124872438Y-108309523D02*
X124920057Y-108261904D01*
X124920057Y-108261904D02*
X125015295Y-108214285D01*
X125015295Y-108214285D02*
X125110533Y-108214285D01*
X125110533Y-108214285D02*
X125253390Y-108261904D01*
X125253390Y-108261904D02*
X125824819Y-108833332D01*
X125824819Y-108833332D02*
X125824819Y-108214285D01*
X222854819Y-99059523D02*
X223569104Y-99059523D01*
X223569104Y-99059523D02*
X223711961Y-99107142D01*
X223711961Y-99107142D02*
X223807200Y-99202380D01*
X223807200Y-99202380D02*
X223854819Y-99345237D01*
X223854819Y-99345237D02*
X223854819Y-99440475D01*
X223854819Y-98059523D02*
X223854819Y-98630951D01*
X223854819Y-98345237D02*
X222854819Y-98345237D01*
X222854819Y-98345237D02*
X222997676Y-98440475D01*
X222997676Y-98440475D02*
X223092914Y-98535713D01*
X223092914Y-98535713D02*
X223140533Y-98630951D01*
X223283390Y-97488094D02*
X223235771Y-97583332D01*
X223235771Y-97583332D02*
X223188152Y-97630951D01*
X223188152Y-97630951D02*
X223092914Y-97678570D01*
X223092914Y-97678570D02*
X223045295Y-97678570D01*
X223045295Y-97678570D02*
X222950057Y-97630951D01*
X222950057Y-97630951D02*
X222902438Y-97583332D01*
X222902438Y-97583332D02*
X222854819Y-97488094D01*
X222854819Y-97488094D02*
X222854819Y-97297618D01*
X222854819Y-97297618D02*
X222902438Y-97202380D01*
X222902438Y-97202380D02*
X222950057Y-97154761D01*
X222950057Y-97154761D02*
X223045295Y-97107142D01*
X223045295Y-97107142D02*
X223092914Y-97107142D01*
X223092914Y-97107142D02*
X223188152Y-97154761D01*
X223188152Y-97154761D02*
X223235771Y-97202380D01*
X223235771Y-97202380D02*
X223283390Y-97297618D01*
X223283390Y-97297618D02*
X223283390Y-97488094D01*
X223283390Y-97488094D02*
X223331009Y-97583332D01*
X223331009Y-97583332D02*
X223378628Y-97630951D01*
X223378628Y-97630951D02*
X223473866Y-97678570D01*
X223473866Y-97678570D02*
X223664342Y-97678570D01*
X223664342Y-97678570D02*
X223759580Y-97630951D01*
X223759580Y-97630951D02*
X223807200Y-97583332D01*
X223807200Y-97583332D02*
X223854819Y-97488094D01*
X223854819Y-97488094D02*
X223854819Y-97297618D01*
X223854819Y-97297618D02*
X223807200Y-97202380D01*
X223807200Y-97202380D02*
X223759580Y-97154761D01*
X223759580Y-97154761D02*
X223664342Y-97107142D01*
X223664342Y-97107142D02*
X223473866Y-97107142D01*
X223473866Y-97107142D02*
X223378628Y-97154761D01*
X223378628Y-97154761D02*
X223331009Y-97202380D01*
X223331009Y-97202380D02*
X223283390Y-97297618D01*
X207674761Y-61150057D02*
X207579523Y-61102438D01*
X207579523Y-61102438D02*
X207484285Y-61007200D01*
X207484285Y-61007200D02*
X207341428Y-60864342D01*
X207341428Y-60864342D02*
X207246190Y-60816723D01*
X207246190Y-60816723D02*
X207150952Y-60816723D01*
X207198571Y-61054819D02*
X207103333Y-61007200D01*
X207103333Y-61007200D02*
X207008095Y-60911961D01*
X207008095Y-60911961D02*
X206960476Y-60721485D01*
X206960476Y-60721485D02*
X206960476Y-60388152D01*
X206960476Y-60388152D02*
X207008095Y-60197676D01*
X207008095Y-60197676D02*
X207103333Y-60102438D01*
X207103333Y-60102438D02*
X207198571Y-60054819D01*
X207198571Y-60054819D02*
X207389047Y-60054819D01*
X207389047Y-60054819D02*
X207484285Y-60102438D01*
X207484285Y-60102438D02*
X207579523Y-60197676D01*
X207579523Y-60197676D02*
X207627142Y-60388152D01*
X207627142Y-60388152D02*
X207627142Y-60721485D01*
X207627142Y-60721485D02*
X207579523Y-60911961D01*
X207579523Y-60911961D02*
X207484285Y-61007200D01*
X207484285Y-61007200D02*
X207389047Y-61054819D01*
X207389047Y-61054819D02*
X207198571Y-61054819D01*
X208531904Y-60054819D02*
X208055714Y-60054819D01*
X208055714Y-60054819D02*
X208008095Y-60531009D01*
X208008095Y-60531009D02*
X208055714Y-60483390D01*
X208055714Y-60483390D02*
X208150952Y-60435771D01*
X208150952Y-60435771D02*
X208389047Y-60435771D01*
X208389047Y-60435771D02*
X208484285Y-60483390D01*
X208484285Y-60483390D02*
X208531904Y-60531009D01*
X208531904Y-60531009D02*
X208579523Y-60626247D01*
X208579523Y-60626247D02*
X208579523Y-60864342D01*
X208579523Y-60864342D02*
X208531904Y-60959580D01*
X208531904Y-60959580D02*
X208484285Y-61007200D01*
X208484285Y-61007200D02*
X208389047Y-61054819D01*
X208389047Y-61054819D02*
X208150952Y-61054819D01*
X208150952Y-61054819D02*
X208055714Y-61007200D01*
X208055714Y-61007200D02*
X208008095Y-60959580D01*
X126454819Y-112738094D02*
X125454819Y-112738094D01*
X125454819Y-112738094D02*
X125454819Y-112499999D01*
X125454819Y-112499999D02*
X125502438Y-112357142D01*
X125502438Y-112357142D02*
X125597676Y-112261904D01*
X125597676Y-112261904D02*
X125692914Y-112214285D01*
X125692914Y-112214285D02*
X125883390Y-112166666D01*
X125883390Y-112166666D02*
X126026247Y-112166666D01*
X126026247Y-112166666D02*
X126216723Y-112214285D01*
X126216723Y-112214285D02*
X126311961Y-112261904D01*
X126311961Y-112261904D02*
X126407200Y-112357142D01*
X126407200Y-112357142D02*
X126454819Y-112499999D01*
X126454819Y-112499999D02*
X126454819Y-112738094D01*
X125788152Y-111309523D02*
X126454819Y-111309523D01*
X125407200Y-111547618D02*
X126121485Y-111785713D01*
X126121485Y-111785713D02*
X126121485Y-111166666D01*
X176654819Y-105083333D02*
X177369104Y-105083333D01*
X177369104Y-105083333D02*
X177511961Y-105130952D01*
X177511961Y-105130952D02*
X177607200Y-105226190D01*
X177607200Y-105226190D02*
X177654819Y-105369047D01*
X177654819Y-105369047D02*
X177654819Y-105464285D01*
X176988152Y-104178571D02*
X177654819Y-104178571D01*
X176607200Y-104416666D02*
X177321485Y-104654761D01*
X177321485Y-104654761D02*
X177321485Y-104035714D01*
X176654819Y-116083333D02*
X177369104Y-116083333D01*
X177369104Y-116083333D02*
X177511961Y-116130952D01*
X177511961Y-116130952D02*
X177607200Y-116226190D01*
X177607200Y-116226190D02*
X177654819Y-116369047D01*
X177654819Y-116369047D02*
X177654819Y-116464285D01*
X176654819Y-115702380D02*
X176654819Y-115035714D01*
X176654819Y-115035714D02*
X177654819Y-115464285D01*
X119824819Y-128246666D02*
X119348628Y-128579999D01*
X119824819Y-128818094D02*
X118824819Y-128818094D01*
X118824819Y-128818094D02*
X118824819Y-128437142D01*
X118824819Y-128437142D02*
X118872438Y-128341904D01*
X118872438Y-128341904D02*
X118920057Y-128294285D01*
X118920057Y-128294285D02*
X119015295Y-128246666D01*
X119015295Y-128246666D02*
X119158152Y-128246666D01*
X119158152Y-128246666D02*
X119253390Y-128294285D01*
X119253390Y-128294285D02*
X119301009Y-128341904D01*
X119301009Y-128341904D02*
X119348628Y-128437142D01*
X119348628Y-128437142D02*
X119348628Y-128818094D01*
X119824819Y-127294285D02*
X119824819Y-127865713D01*
X119824819Y-127579999D02*
X118824819Y-127579999D01*
X118824819Y-127579999D02*
X118967676Y-127675237D01*
X118967676Y-127675237D02*
X119062914Y-127770475D01*
X119062914Y-127770475D02*
X119110533Y-127865713D01*
X137357142Y-58859580D02*
X137309523Y-58907200D01*
X137309523Y-58907200D02*
X137166666Y-58954819D01*
X137166666Y-58954819D02*
X137071428Y-58954819D01*
X137071428Y-58954819D02*
X136928571Y-58907200D01*
X136928571Y-58907200D02*
X136833333Y-58811961D01*
X136833333Y-58811961D02*
X136785714Y-58716723D01*
X136785714Y-58716723D02*
X136738095Y-58526247D01*
X136738095Y-58526247D02*
X136738095Y-58383390D01*
X136738095Y-58383390D02*
X136785714Y-58192914D01*
X136785714Y-58192914D02*
X136833333Y-58097676D01*
X136833333Y-58097676D02*
X136928571Y-58002438D01*
X136928571Y-58002438D02*
X137071428Y-57954819D01*
X137071428Y-57954819D02*
X137166666Y-57954819D01*
X137166666Y-57954819D02*
X137309523Y-58002438D01*
X137309523Y-58002438D02*
X137357142Y-58050057D01*
X138309523Y-58954819D02*
X137738095Y-58954819D01*
X138023809Y-58954819D02*
X138023809Y-57954819D01*
X138023809Y-57954819D02*
X137928571Y-58097676D01*
X137928571Y-58097676D02*
X137833333Y-58192914D01*
X137833333Y-58192914D02*
X137738095Y-58240533D01*
X139261904Y-58954819D02*
X138690476Y-58954819D01*
X138976190Y-58954819D02*
X138976190Y-57954819D01*
X138976190Y-57954819D02*
X138880952Y-58097676D01*
X138880952Y-58097676D02*
X138785714Y-58192914D01*
X138785714Y-58192914D02*
X138690476Y-58240533D01*
X142859580Y-111666666D02*
X142907200Y-111714285D01*
X142907200Y-111714285D02*
X142954819Y-111857142D01*
X142954819Y-111857142D02*
X142954819Y-111952380D01*
X142954819Y-111952380D02*
X142907200Y-112095237D01*
X142907200Y-112095237D02*
X142811961Y-112190475D01*
X142811961Y-112190475D02*
X142716723Y-112238094D01*
X142716723Y-112238094D02*
X142526247Y-112285713D01*
X142526247Y-112285713D02*
X142383390Y-112285713D01*
X142383390Y-112285713D02*
X142192914Y-112238094D01*
X142192914Y-112238094D02*
X142097676Y-112190475D01*
X142097676Y-112190475D02*
X142002438Y-112095237D01*
X142002438Y-112095237D02*
X141954819Y-111952380D01*
X141954819Y-111952380D02*
X141954819Y-111857142D01*
X141954819Y-111857142D02*
X142002438Y-111714285D01*
X142002438Y-111714285D02*
X142050057Y-111666666D01*
X142050057Y-111285713D02*
X142002438Y-111238094D01*
X142002438Y-111238094D02*
X141954819Y-111142856D01*
X141954819Y-111142856D02*
X141954819Y-110904761D01*
X141954819Y-110904761D02*
X142002438Y-110809523D01*
X142002438Y-110809523D02*
X142050057Y-110761904D01*
X142050057Y-110761904D02*
X142145295Y-110714285D01*
X142145295Y-110714285D02*
X142240533Y-110714285D01*
X142240533Y-110714285D02*
X142383390Y-110761904D01*
X142383390Y-110761904D02*
X142954819Y-111333332D01*
X142954819Y-111333332D02*
X142954819Y-110714285D01*
X193824819Y-127262857D02*
X193348628Y-127596190D01*
X193824819Y-127834285D02*
X192824819Y-127834285D01*
X192824819Y-127834285D02*
X192824819Y-127453333D01*
X192824819Y-127453333D02*
X192872438Y-127358095D01*
X192872438Y-127358095D02*
X192920057Y-127310476D01*
X192920057Y-127310476D02*
X193015295Y-127262857D01*
X193015295Y-127262857D02*
X193158152Y-127262857D01*
X193158152Y-127262857D02*
X193253390Y-127310476D01*
X193253390Y-127310476D02*
X193301009Y-127358095D01*
X193301009Y-127358095D02*
X193348628Y-127453333D01*
X193348628Y-127453333D02*
X193348628Y-127834285D01*
X193824819Y-126310476D02*
X193824819Y-126881904D01*
X193824819Y-126596190D02*
X192824819Y-126596190D01*
X192824819Y-126596190D02*
X192967676Y-126691428D01*
X192967676Y-126691428D02*
X193062914Y-126786666D01*
X193062914Y-126786666D02*
X193110533Y-126881904D01*
X192824819Y-125405714D02*
X192824819Y-125881904D01*
X192824819Y-125881904D02*
X193301009Y-125929523D01*
X193301009Y-125929523D02*
X193253390Y-125881904D01*
X193253390Y-125881904D02*
X193205771Y-125786666D01*
X193205771Y-125786666D02*
X193205771Y-125548571D01*
X193205771Y-125548571D02*
X193253390Y-125453333D01*
X193253390Y-125453333D02*
X193301009Y-125405714D01*
X193301009Y-125405714D02*
X193396247Y-125358095D01*
X193396247Y-125358095D02*
X193634342Y-125358095D01*
X193634342Y-125358095D02*
X193729580Y-125405714D01*
X193729580Y-125405714D02*
X193777200Y-125453333D01*
X193777200Y-125453333D02*
X193824819Y-125548571D01*
X193824819Y-125548571D02*
X193824819Y-125786666D01*
X193824819Y-125786666D02*
X193777200Y-125881904D01*
X193777200Y-125881904D02*
X193729580Y-125929523D01*
X220238095Y-43304819D02*
X220238095Y-42304819D01*
X220238095Y-42781009D02*
X220809523Y-42781009D01*
X220809523Y-43304819D02*
X220809523Y-42304819D01*
X221238095Y-42400057D02*
X221285714Y-42352438D01*
X221285714Y-42352438D02*
X221380952Y-42304819D01*
X221380952Y-42304819D02*
X221619047Y-42304819D01*
X221619047Y-42304819D02*
X221714285Y-42352438D01*
X221714285Y-42352438D02*
X221761904Y-42400057D01*
X221761904Y-42400057D02*
X221809523Y-42495295D01*
X221809523Y-42495295D02*
X221809523Y-42590533D01*
X221809523Y-42590533D02*
X221761904Y-42733390D01*
X221761904Y-42733390D02*
X221190476Y-43304819D01*
X221190476Y-43304819D02*
X221809523Y-43304819D01*
X133084819Y-96746666D02*
X132608628Y-97079999D01*
X133084819Y-97318094D02*
X132084819Y-97318094D01*
X132084819Y-97318094D02*
X132084819Y-96937142D01*
X132084819Y-96937142D02*
X132132438Y-96841904D01*
X132132438Y-96841904D02*
X132180057Y-96794285D01*
X132180057Y-96794285D02*
X132275295Y-96746666D01*
X132275295Y-96746666D02*
X132418152Y-96746666D01*
X132418152Y-96746666D02*
X132513390Y-96794285D01*
X132513390Y-96794285D02*
X132561009Y-96841904D01*
X132561009Y-96841904D02*
X132608628Y-96937142D01*
X132608628Y-96937142D02*
X132608628Y-97318094D01*
X133084819Y-96270475D02*
X133084819Y-96079999D01*
X133084819Y-96079999D02*
X133037200Y-95984761D01*
X133037200Y-95984761D02*
X132989580Y-95937142D01*
X132989580Y-95937142D02*
X132846723Y-95841904D01*
X132846723Y-95841904D02*
X132656247Y-95794285D01*
X132656247Y-95794285D02*
X132275295Y-95794285D01*
X132275295Y-95794285D02*
X132180057Y-95841904D01*
X132180057Y-95841904D02*
X132132438Y-95889523D01*
X132132438Y-95889523D02*
X132084819Y-95984761D01*
X132084819Y-95984761D02*
X132084819Y-96175237D01*
X132084819Y-96175237D02*
X132132438Y-96270475D01*
X132132438Y-96270475D02*
X132180057Y-96318094D01*
X132180057Y-96318094D02*
X132275295Y-96365713D01*
X132275295Y-96365713D02*
X132513390Y-96365713D01*
X132513390Y-96365713D02*
X132608628Y-96318094D01*
X132608628Y-96318094D02*
X132656247Y-96270475D01*
X132656247Y-96270475D02*
X132703866Y-96175237D01*
X132703866Y-96175237D02*
X132703866Y-95984761D01*
X132703866Y-95984761D02*
X132656247Y-95889523D01*
X132656247Y-95889523D02*
X132608628Y-95841904D01*
X132608628Y-95841904D02*
X132513390Y-95794285D01*
X167857142Y-58859580D02*
X167809523Y-58907200D01*
X167809523Y-58907200D02*
X167666666Y-58954819D01*
X167666666Y-58954819D02*
X167571428Y-58954819D01*
X167571428Y-58954819D02*
X167428571Y-58907200D01*
X167428571Y-58907200D02*
X167333333Y-58811961D01*
X167333333Y-58811961D02*
X167285714Y-58716723D01*
X167285714Y-58716723D02*
X167238095Y-58526247D01*
X167238095Y-58526247D02*
X167238095Y-58383390D01*
X167238095Y-58383390D02*
X167285714Y-58192914D01*
X167285714Y-58192914D02*
X167333333Y-58097676D01*
X167333333Y-58097676D02*
X167428571Y-58002438D01*
X167428571Y-58002438D02*
X167571428Y-57954819D01*
X167571428Y-57954819D02*
X167666666Y-57954819D01*
X167666666Y-57954819D02*
X167809523Y-58002438D01*
X167809523Y-58002438D02*
X167857142Y-58050057D01*
X168809523Y-58954819D02*
X168238095Y-58954819D01*
X168523809Y-58954819D02*
X168523809Y-57954819D01*
X168523809Y-57954819D02*
X168428571Y-58097676D01*
X168428571Y-58097676D02*
X168333333Y-58192914D01*
X168333333Y-58192914D02*
X168238095Y-58240533D01*
X169142857Y-57954819D02*
X169809523Y-57954819D01*
X169809523Y-57954819D02*
X169380952Y-58954819D01*
X106084819Y-128246666D02*
X105608628Y-128579999D01*
X106084819Y-128818094D02*
X105084819Y-128818094D01*
X105084819Y-128818094D02*
X105084819Y-128437142D01*
X105084819Y-128437142D02*
X105132438Y-128341904D01*
X105132438Y-128341904D02*
X105180057Y-128294285D01*
X105180057Y-128294285D02*
X105275295Y-128246666D01*
X105275295Y-128246666D02*
X105418152Y-128246666D01*
X105418152Y-128246666D02*
X105513390Y-128294285D01*
X105513390Y-128294285D02*
X105561009Y-128341904D01*
X105561009Y-128341904D02*
X105608628Y-128437142D01*
X105608628Y-128437142D02*
X105608628Y-128818094D01*
X105084819Y-127389523D02*
X105084819Y-127579999D01*
X105084819Y-127579999D02*
X105132438Y-127675237D01*
X105132438Y-127675237D02*
X105180057Y-127722856D01*
X105180057Y-127722856D02*
X105322914Y-127818094D01*
X105322914Y-127818094D02*
X105513390Y-127865713D01*
X105513390Y-127865713D02*
X105894342Y-127865713D01*
X105894342Y-127865713D02*
X105989580Y-127818094D01*
X105989580Y-127818094D02*
X106037200Y-127770475D01*
X106037200Y-127770475D02*
X106084819Y-127675237D01*
X106084819Y-127675237D02*
X106084819Y-127484761D01*
X106084819Y-127484761D02*
X106037200Y-127389523D01*
X106037200Y-127389523D02*
X105989580Y-127341904D01*
X105989580Y-127341904D02*
X105894342Y-127294285D01*
X105894342Y-127294285D02*
X105656247Y-127294285D01*
X105656247Y-127294285D02*
X105561009Y-127341904D01*
X105561009Y-127341904D02*
X105513390Y-127389523D01*
X105513390Y-127389523D02*
X105465771Y-127484761D01*
X105465771Y-127484761D02*
X105465771Y-127675237D01*
X105465771Y-127675237D02*
X105513390Y-127770475D01*
X105513390Y-127770475D02*
X105561009Y-127818094D01*
X105561009Y-127818094D02*
X105656247Y-127865713D01*
X118359580Y-106666666D02*
X118407200Y-106714285D01*
X118407200Y-106714285D02*
X118454819Y-106857142D01*
X118454819Y-106857142D02*
X118454819Y-106952380D01*
X118454819Y-106952380D02*
X118407200Y-107095237D01*
X118407200Y-107095237D02*
X118311961Y-107190475D01*
X118311961Y-107190475D02*
X118216723Y-107238094D01*
X118216723Y-107238094D02*
X118026247Y-107285713D01*
X118026247Y-107285713D02*
X117883390Y-107285713D01*
X117883390Y-107285713D02*
X117692914Y-107238094D01*
X117692914Y-107238094D02*
X117597676Y-107190475D01*
X117597676Y-107190475D02*
X117502438Y-107095237D01*
X117502438Y-107095237D02*
X117454819Y-106952380D01*
X117454819Y-106952380D02*
X117454819Y-106857142D01*
X117454819Y-106857142D02*
X117502438Y-106714285D01*
X117502438Y-106714285D02*
X117550057Y-106666666D01*
X117454819Y-106333332D02*
X117454819Y-105714285D01*
X117454819Y-105714285D02*
X117835771Y-106047618D01*
X117835771Y-106047618D02*
X117835771Y-105904761D01*
X117835771Y-105904761D02*
X117883390Y-105809523D01*
X117883390Y-105809523D02*
X117931009Y-105761904D01*
X117931009Y-105761904D02*
X118026247Y-105714285D01*
X118026247Y-105714285D02*
X118264342Y-105714285D01*
X118264342Y-105714285D02*
X118359580Y-105761904D01*
X118359580Y-105761904D02*
X118407200Y-105809523D01*
X118407200Y-105809523D02*
X118454819Y-105904761D01*
X118454819Y-105904761D02*
X118454819Y-106190475D01*
X118454819Y-106190475D02*
X118407200Y-106285713D01*
X118407200Y-106285713D02*
X118359580Y-106333332D01*
X123881905Y-58454819D02*
X123881905Y-57454819D01*
X123881905Y-57454819D02*
X124120000Y-57454819D01*
X124120000Y-57454819D02*
X124262857Y-57502438D01*
X124262857Y-57502438D02*
X124358095Y-57597676D01*
X124358095Y-57597676D02*
X124405714Y-57692914D01*
X124405714Y-57692914D02*
X124453333Y-57883390D01*
X124453333Y-57883390D02*
X124453333Y-58026247D01*
X124453333Y-58026247D02*
X124405714Y-58216723D01*
X124405714Y-58216723D02*
X124358095Y-58311961D01*
X124358095Y-58311961D02*
X124262857Y-58407200D01*
X124262857Y-58407200D02*
X124120000Y-58454819D01*
X124120000Y-58454819D02*
X123881905Y-58454819D01*
X124834286Y-57550057D02*
X124881905Y-57502438D01*
X124881905Y-57502438D02*
X124977143Y-57454819D01*
X124977143Y-57454819D02*
X125215238Y-57454819D01*
X125215238Y-57454819D02*
X125310476Y-57502438D01*
X125310476Y-57502438D02*
X125358095Y-57550057D01*
X125358095Y-57550057D02*
X125405714Y-57645295D01*
X125405714Y-57645295D02*
X125405714Y-57740533D01*
X125405714Y-57740533D02*
X125358095Y-57883390D01*
X125358095Y-57883390D02*
X124786667Y-58454819D01*
X124786667Y-58454819D02*
X125405714Y-58454819D01*
X127858095Y-56154819D02*
X127858095Y-55154819D01*
X128429523Y-56154819D02*
X128000952Y-55583390D01*
X128429523Y-55154819D02*
X127858095Y-55726247D01*
X208101069Y-95546607D02*
X207624878Y-95879940D01*
X208101069Y-96118035D02*
X207101069Y-96118035D01*
X207101069Y-96118035D02*
X207101069Y-95737083D01*
X207101069Y-95737083D02*
X207148688Y-95641845D01*
X207148688Y-95641845D02*
X207196307Y-95594226D01*
X207196307Y-95594226D02*
X207291545Y-95546607D01*
X207291545Y-95546607D02*
X207434402Y-95546607D01*
X207434402Y-95546607D02*
X207529640Y-95594226D01*
X207529640Y-95594226D02*
X207577259Y-95641845D01*
X207577259Y-95641845D02*
X207624878Y-95737083D01*
X207624878Y-95737083D02*
X207624878Y-96118035D01*
X208101069Y-94594226D02*
X208101069Y-95165654D01*
X208101069Y-94879940D02*
X207101069Y-94879940D01*
X207101069Y-94879940D02*
X207243926Y-94975178D01*
X207243926Y-94975178D02*
X207339164Y-95070416D01*
X207339164Y-95070416D02*
X207386783Y-95165654D01*
X207529640Y-94022797D02*
X207482021Y-94118035D01*
X207482021Y-94118035D02*
X207434402Y-94165654D01*
X207434402Y-94165654D02*
X207339164Y-94213273D01*
X207339164Y-94213273D02*
X207291545Y-94213273D01*
X207291545Y-94213273D02*
X207196307Y-94165654D01*
X207196307Y-94165654D02*
X207148688Y-94118035D01*
X207148688Y-94118035D02*
X207101069Y-94022797D01*
X207101069Y-94022797D02*
X207101069Y-93832321D01*
X207101069Y-93832321D02*
X207148688Y-93737083D01*
X207148688Y-93737083D02*
X207196307Y-93689464D01*
X207196307Y-93689464D02*
X207291545Y-93641845D01*
X207291545Y-93641845D02*
X207339164Y-93641845D01*
X207339164Y-93641845D02*
X207434402Y-93689464D01*
X207434402Y-93689464D02*
X207482021Y-93737083D01*
X207482021Y-93737083D02*
X207529640Y-93832321D01*
X207529640Y-93832321D02*
X207529640Y-94022797D01*
X207529640Y-94022797D02*
X207577259Y-94118035D01*
X207577259Y-94118035D02*
X207624878Y-94165654D01*
X207624878Y-94165654D02*
X207720116Y-94213273D01*
X207720116Y-94213273D02*
X207910592Y-94213273D01*
X207910592Y-94213273D02*
X208005830Y-94165654D01*
X208005830Y-94165654D02*
X208053450Y-94118035D01*
X208053450Y-94118035D02*
X208101069Y-94022797D01*
X208101069Y-94022797D02*
X208101069Y-93832321D01*
X208101069Y-93832321D02*
X208053450Y-93737083D01*
X208053450Y-93737083D02*
X208005830Y-93689464D01*
X208005830Y-93689464D02*
X207910592Y-93641845D01*
X207910592Y-93641845D02*
X207720116Y-93641845D01*
X207720116Y-93641845D02*
X207624878Y-93689464D01*
X207624878Y-93689464D02*
X207577259Y-93737083D01*
X207577259Y-93737083D02*
X207529640Y-93832321D01*
X161469819Y-84027857D02*
X160993628Y-84361190D01*
X161469819Y-84599285D02*
X160469819Y-84599285D01*
X160469819Y-84599285D02*
X160469819Y-84218333D01*
X160469819Y-84218333D02*
X160517438Y-84123095D01*
X160517438Y-84123095D02*
X160565057Y-84075476D01*
X160565057Y-84075476D02*
X160660295Y-84027857D01*
X160660295Y-84027857D02*
X160803152Y-84027857D01*
X160803152Y-84027857D02*
X160898390Y-84075476D01*
X160898390Y-84075476D02*
X160946009Y-84123095D01*
X160946009Y-84123095D02*
X160993628Y-84218333D01*
X160993628Y-84218333D02*
X160993628Y-84599285D01*
X160565057Y-83646904D02*
X160517438Y-83599285D01*
X160517438Y-83599285D02*
X160469819Y-83504047D01*
X160469819Y-83504047D02*
X160469819Y-83265952D01*
X160469819Y-83265952D02*
X160517438Y-83170714D01*
X160517438Y-83170714D02*
X160565057Y-83123095D01*
X160565057Y-83123095D02*
X160660295Y-83075476D01*
X160660295Y-83075476D02*
X160755533Y-83075476D01*
X160755533Y-83075476D02*
X160898390Y-83123095D01*
X160898390Y-83123095D02*
X161469819Y-83694523D01*
X161469819Y-83694523D02*
X161469819Y-83075476D01*
X161469819Y-82123095D02*
X161469819Y-82694523D01*
X161469819Y-82408809D02*
X160469819Y-82408809D01*
X160469819Y-82408809D02*
X160612676Y-82504047D01*
X160612676Y-82504047D02*
X160707914Y-82599285D01*
X160707914Y-82599285D02*
X160755533Y-82694523D01*
X220238095Y-132304819D02*
X220238095Y-131304819D01*
X220238095Y-131781009D02*
X220809523Y-131781009D01*
X220809523Y-132304819D02*
X220809523Y-131304819D01*
X221714285Y-131638152D02*
X221714285Y-132304819D01*
X221476190Y-131257200D02*
X221238095Y-131971485D01*
X221238095Y-131971485D02*
X221857142Y-131971485D01*
X107274819Y-106333333D02*
X107989104Y-106333333D01*
X107989104Y-106333333D02*
X108131961Y-106380952D01*
X108131961Y-106380952D02*
X108227200Y-106476190D01*
X108227200Y-106476190D02*
X108274819Y-106619047D01*
X108274819Y-106619047D02*
X108274819Y-106714285D01*
X107370057Y-105904761D02*
X107322438Y-105857142D01*
X107322438Y-105857142D02*
X107274819Y-105761904D01*
X107274819Y-105761904D02*
X107274819Y-105523809D01*
X107274819Y-105523809D02*
X107322438Y-105428571D01*
X107322438Y-105428571D02*
X107370057Y-105380952D01*
X107370057Y-105380952D02*
X107465295Y-105333333D01*
X107465295Y-105333333D02*
X107560533Y-105333333D01*
X107560533Y-105333333D02*
X107703390Y-105380952D01*
X107703390Y-105380952D02*
X108274819Y-105952380D01*
X108274819Y-105952380D02*
X108274819Y-105333333D01*
X176654819Y-126083333D02*
X177369104Y-126083333D01*
X177369104Y-126083333D02*
X177511961Y-126130952D01*
X177511961Y-126130952D02*
X177607200Y-126226190D01*
X177607200Y-126226190D02*
X177654819Y-126369047D01*
X177654819Y-126369047D02*
X177654819Y-126464285D01*
X176654819Y-125702380D02*
X176654819Y-125083333D01*
X176654819Y-125083333D02*
X177035771Y-125416666D01*
X177035771Y-125416666D02*
X177035771Y-125273809D01*
X177035771Y-125273809D02*
X177083390Y-125178571D01*
X177083390Y-125178571D02*
X177131009Y-125130952D01*
X177131009Y-125130952D02*
X177226247Y-125083333D01*
X177226247Y-125083333D02*
X177464342Y-125083333D01*
X177464342Y-125083333D02*
X177559580Y-125130952D01*
X177559580Y-125130952D02*
X177607200Y-125178571D01*
X177607200Y-125178571D02*
X177654819Y-125273809D01*
X177654819Y-125273809D02*
X177654819Y-125559523D01*
X177654819Y-125559523D02*
X177607200Y-125654761D01*
X177607200Y-125654761D02*
X177559580Y-125702380D01*
X166698095Y-47804819D02*
X166698095Y-48614342D01*
X166698095Y-48614342D02*
X166745714Y-48709580D01*
X166745714Y-48709580D02*
X166793333Y-48757200D01*
X166793333Y-48757200D02*
X166888571Y-48804819D01*
X166888571Y-48804819D02*
X167079047Y-48804819D01*
X167079047Y-48804819D02*
X167174285Y-48757200D01*
X167174285Y-48757200D02*
X167221904Y-48709580D01*
X167221904Y-48709580D02*
X167269523Y-48614342D01*
X167269523Y-48614342D02*
X167269523Y-47804819D01*
X168174285Y-47804819D02*
X167983809Y-47804819D01*
X167983809Y-47804819D02*
X167888571Y-47852438D01*
X167888571Y-47852438D02*
X167840952Y-47900057D01*
X167840952Y-47900057D02*
X167745714Y-48042914D01*
X167745714Y-48042914D02*
X167698095Y-48233390D01*
X167698095Y-48233390D02*
X167698095Y-48614342D01*
X167698095Y-48614342D02*
X167745714Y-48709580D01*
X167745714Y-48709580D02*
X167793333Y-48757200D01*
X167793333Y-48757200D02*
X167888571Y-48804819D01*
X167888571Y-48804819D02*
X168079047Y-48804819D01*
X168079047Y-48804819D02*
X168174285Y-48757200D01*
X168174285Y-48757200D02*
X168221904Y-48709580D01*
X168221904Y-48709580D02*
X168269523Y-48614342D01*
X168269523Y-48614342D02*
X168269523Y-48376247D01*
X168269523Y-48376247D02*
X168221904Y-48281009D01*
X168221904Y-48281009D02*
X168174285Y-48233390D01*
X168174285Y-48233390D02*
X168079047Y-48185771D01*
X168079047Y-48185771D02*
X167888571Y-48185771D01*
X167888571Y-48185771D02*
X167793333Y-48233390D01*
X167793333Y-48233390D02*
X167745714Y-48281009D01*
X167745714Y-48281009D02*
X167698095Y-48376247D01*
X176654819Y-72059523D02*
X177369104Y-72059523D01*
X177369104Y-72059523D02*
X177511961Y-72107142D01*
X177511961Y-72107142D02*
X177607200Y-72202380D01*
X177607200Y-72202380D02*
X177654819Y-72345237D01*
X177654819Y-72345237D02*
X177654819Y-72440475D01*
X177654819Y-71059523D02*
X177654819Y-71630951D01*
X177654819Y-71345237D02*
X176654819Y-71345237D01*
X176654819Y-71345237D02*
X176797676Y-71440475D01*
X176797676Y-71440475D02*
X176892914Y-71535713D01*
X176892914Y-71535713D02*
X176940533Y-71630951D01*
X176654819Y-70726189D02*
X176654819Y-70059523D01*
X176654819Y-70059523D02*
X177654819Y-70488094D01*
X197961905Y-120354819D02*
X197961905Y-119354819D01*
X198533333Y-120354819D02*
X198104762Y-119783390D01*
X198533333Y-119354819D02*
X197961905Y-119926247D01*
X198866667Y-119354819D02*
X199485714Y-119354819D01*
X199485714Y-119354819D02*
X199152381Y-119735771D01*
X199152381Y-119735771D02*
X199295238Y-119735771D01*
X199295238Y-119735771D02*
X199390476Y-119783390D01*
X199390476Y-119783390D02*
X199438095Y-119831009D01*
X199438095Y-119831009D02*
X199485714Y-119926247D01*
X199485714Y-119926247D02*
X199485714Y-120164342D01*
X199485714Y-120164342D02*
X199438095Y-120259580D01*
X199438095Y-120259580D02*
X199390476Y-120307200D01*
X199390476Y-120307200D02*
X199295238Y-120354819D01*
X199295238Y-120354819D02*
X199009524Y-120354819D01*
X199009524Y-120354819D02*
X198914286Y-120307200D01*
X198914286Y-120307200D02*
X198866667Y-120259580D01*
X110584819Y-111086666D02*
X110108628Y-111419999D01*
X110584819Y-111658094D02*
X109584819Y-111658094D01*
X109584819Y-111658094D02*
X109584819Y-111277142D01*
X109584819Y-111277142D02*
X109632438Y-111181904D01*
X109632438Y-111181904D02*
X109680057Y-111134285D01*
X109680057Y-111134285D02*
X109775295Y-111086666D01*
X109775295Y-111086666D02*
X109918152Y-111086666D01*
X109918152Y-111086666D02*
X110013390Y-111134285D01*
X110013390Y-111134285D02*
X110061009Y-111181904D01*
X110061009Y-111181904D02*
X110108628Y-111277142D01*
X110108628Y-111277142D02*
X110108628Y-111658094D01*
X109584819Y-110753332D02*
X109584819Y-110086666D01*
X109584819Y-110086666D02*
X110584819Y-110515237D01*
X197866069Y-95740654D02*
X198675592Y-95740654D01*
X198675592Y-95740654D02*
X198770830Y-95693035D01*
X198770830Y-95693035D02*
X198818450Y-95645416D01*
X198818450Y-95645416D02*
X198866069Y-95550178D01*
X198866069Y-95550178D02*
X198866069Y-95359702D01*
X198866069Y-95359702D02*
X198818450Y-95264464D01*
X198818450Y-95264464D02*
X198770830Y-95216845D01*
X198770830Y-95216845D02*
X198675592Y-95169226D01*
X198675592Y-95169226D02*
X197866069Y-95169226D01*
X198866069Y-94645416D02*
X198866069Y-94454940D01*
X198866069Y-94454940D02*
X198818450Y-94359702D01*
X198818450Y-94359702D02*
X198770830Y-94312083D01*
X198770830Y-94312083D02*
X198627973Y-94216845D01*
X198627973Y-94216845D02*
X198437497Y-94169226D01*
X198437497Y-94169226D02*
X198056545Y-94169226D01*
X198056545Y-94169226D02*
X197961307Y-94216845D01*
X197961307Y-94216845D02*
X197913688Y-94264464D01*
X197913688Y-94264464D02*
X197866069Y-94359702D01*
X197866069Y-94359702D02*
X197866069Y-94550178D01*
X197866069Y-94550178D02*
X197913688Y-94645416D01*
X197913688Y-94645416D02*
X197961307Y-94693035D01*
X197961307Y-94693035D02*
X198056545Y-94740654D01*
X198056545Y-94740654D02*
X198294640Y-94740654D01*
X198294640Y-94740654D02*
X198389878Y-94693035D01*
X198389878Y-94693035D02*
X198437497Y-94645416D01*
X198437497Y-94645416D02*
X198485116Y-94550178D01*
X198485116Y-94550178D02*
X198485116Y-94359702D01*
X198485116Y-94359702D02*
X198437497Y-94264464D01*
X198437497Y-94264464D02*
X198389878Y-94216845D01*
X198389878Y-94216845D02*
X198294640Y-94169226D01*
X201061905Y-45674819D02*
X201061905Y-44674819D01*
X201633333Y-45674819D02*
X201204762Y-45103390D01*
X201633333Y-44674819D02*
X201061905Y-45246247D01*
X202490476Y-45008152D02*
X202490476Y-45674819D01*
X202252381Y-44627200D02*
X202014286Y-45341485D01*
X202014286Y-45341485D02*
X202633333Y-45341485D01*
X153857142Y-75954819D02*
X153523809Y-75478628D01*
X153285714Y-75954819D02*
X153285714Y-74954819D01*
X153285714Y-74954819D02*
X153666666Y-74954819D01*
X153666666Y-74954819D02*
X153761904Y-75002438D01*
X153761904Y-75002438D02*
X153809523Y-75050057D01*
X153809523Y-75050057D02*
X153857142Y-75145295D01*
X153857142Y-75145295D02*
X153857142Y-75288152D01*
X153857142Y-75288152D02*
X153809523Y-75383390D01*
X153809523Y-75383390D02*
X153761904Y-75431009D01*
X153761904Y-75431009D02*
X153666666Y-75478628D01*
X153666666Y-75478628D02*
X153285714Y-75478628D01*
X154809523Y-75954819D02*
X154238095Y-75954819D01*
X154523809Y-75954819D02*
X154523809Y-74954819D01*
X154523809Y-74954819D02*
X154428571Y-75097676D01*
X154428571Y-75097676D02*
X154333333Y-75192914D01*
X154333333Y-75192914D02*
X154238095Y-75240533D01*
X155761904Y-75954819D02*
X155190476Y-75954819D01*
X155476190Y-75954819D02*
X155476190Y-74954819D01*
X155476190Y-74954819D02*
X155380952Y-75097676D01*
X155380952Y-75097676D02*
X155285714Y-75192914D01*
X155285714Y-75192914D02*
X155190476Y-75240533D01*
X201277142Y-70954819D02*
X200943809Y-70478628D01*
X200705714Y-70954819D02*
X200705714Y-69954819D01*
X200705714Y-69954819D02*
X201086666Y-69954819D01*
X201086666Y-69954819D02*
X201181904Y-70002438D01*
X201181904Y-70002438D02*
X201229523Y-70050057D01*
X201229523Y-70050057D02*
X201277142Y-70145295D01*
X201277142Y-70145295D02*
X201277142Y-70288152D01*
X201277142Y-70288152D02*
X201229523Y-70383390D01*
X201229523Y-70383390D02*
X201181904Y-70431009D01*
X201181904Y-70431009D02*
X201086666Y-70478628D01*
X201086666Y-70478628D02*
X200705714Y-70478628D01*
X202229523Y-70954819D02*
X201658095Y-70954819D01*
X201943809Y-70954819D02*
X201943809Y-69954819D01*
X201943809Y-69954819D02*
X201848571Y-70097676D01*
X201848571Y-70097676D02*
X201753333Y-70192914D01*
X201753333Y-70192914D02*
X201658095Y-70240533D01*
X202562857Y-69954819D02*
X203229523Y-69954819D01*
X203229523Y-69954819D02*
X202800952Y-70954819D01*
X186334819Y-52714285D02*
X185334819Y-52714285D01*
X185334819Y-52714285D02*
X185334819Y-52476190D01*
X185334819Y-52476190D02*
X185382438Y-52333333D01*
X185382438Y-52333333D02*
X185477676Y-52238095D01*
X185477676Y-52238095D02*
X185572914Y-52190476D01*
X185572914Y-52190476D02*
X185763390Y-52142857D01*
X185763390Y-52142857D02*
X185906247Y-52142857D01*
X185906247Y-52142857D02*
X186096723Y-52190476D01*
X186096723Y-52190476D02*
X186191961Y-52238095D01*
X186191961Y-52238095D02*
X186287200Y-52333333D01*
X186287200Y-52333333D02*
X186334819Y-52476190D01*
X186334819Y-52476190D02*
X186334819Y-52714285D01*
X186334819Y-51190476D02*
X186334819Y-51761904D01*
X186334819Y-51476190D02*
X185334819Y-51476190D01*
X185334819Y-51476190D02*
X185477676Y-51571428D01*
X185477676Y-51571428D02*
X185572914Y-51666666D01*
X185572914Y-51666666D02*
X185620533Y-51761904D01*
X185334819Y-50571428D02*
X185334819Y-50476190D01*
X185334819Y-50476190D02*
X185382438Y-50380952D01*
X185382438Y-50380952D02*
X185430057Y-50333333D01*
X185430057Y-50333333D02*
X185525295Y-50285714D01*
X185525295Y-50285714D02*
X185715771Y-50238095D01*
X185715771Y-50238095D02*
X185953866Y-50238095D01*
X185953866Y-50238095D02*
X186144342Y-50285714D01*
X186144342Y-50285714D02*
X186239580Y-50333333D01*
X186239580Y-50333333D02*
X186287200Y-50380952D01*
X186287200Y-50380952D02*
X186334819Y-50476190D01*
X186334819Y-50476190D02*
X186334819Y-50571428D01*
X186334819Y-50571428D02*
X186287200Y-50666666D01*
X186287200Y-50666666D02*
X186239580Y-50714285D01*
X186239580Y-50714285D02*
X186144342Y-50761904D01*
X186144342Y-50761904D02*
X185953866Y-50809523D01*
X185953866Y-50809523D02*
X185715771Y-50809523D01*
X185715771Y-50809523D02*
X185525295Y-50761904D01*
X185525295Y-50761904D02*
X185430057Y-50714285D01*
X185430057Y-50714285D02*
X185382438Y-50666666D01*
X185382438Y-50666666D02*
X185334819Y-50571428D01*
X186654819Y-55571904D02*
X185654819Y-55571904D01*
X186654819Y-55000476D02*
X186083390Y-55429047D01*
X185654819Y-55000476D02*
X186226247Y-55571904D01*
X125954819Y-98738094D02*
X124954819Y-98738094D01*
X124954819Y-98738094D02*
X124954819Y-98499999D01*
X124954819Y-98499999D02*
X125002438Y-98357142D01*
X125002438Y-98357142D02*
X125097676Y-98261904D01*
X125097676Y-98261904D02*
X125192914Y-98214285D01*
X125192914Y-98214285D02*
X125383390Y-98166666D01*
X125383390Y-98166666D02*
X125526247Y-98166666D01*
X125526247Y-98166666D02*
X125716723Y-98214285D01*
X125716723Y-98214285D02*
X125811961Y-98261904D01*
X125811961Y-98261904D02*
X125907200Y-98357142D01*
X125907200Y-98357142D02*
X125954819Y-98499999D01*
X125954819Y-98499999D02*
X125954819Y-98738094D01*
X124954819Y-97261904D02*
X124954819Y-97738094D01*
X124954819Y-97738094D02*
X125431009Y-97785713D01*
X125431009Y-97785713D02*
X125383390Y-97738094D01*
X125383390Y-97738094D02*
X125335771Y-97642856D01*
X125335771Y-97642856D02*
X125335771Y-97404761D01*
X125335771Y-97404761D02*
X125383390Y-97309523D01*
X125383390Y-97309523D02*
X125431009Y-97261904D01*
X125431009Y-97261904D02*
X125526247Y-97214285D01*
X125526247Y-97214285D02*
X125764342Y-97214285D01*
X125764342Y-97214285D02*
X125859580Y-97261904D01*
X125859580Y-97261904D02*
X125907200Y-97309523D01*
X125907200Y-97309523D02*
X125954819Y-97404761D01*
X125954819Y-97404761D02*
X125954819Y-97642856D01*
X125954819Y-97642856D02*
X125907200Y-97738094D01*
X125907200Y-97738094D02*
X125859580Y-97785713D01*
D11*
%TO.C,Q1*%
X155855000Y-87235000D02*
X159455000Y-87235000D01*
X155843125Y-87226741D02*
G75*
G02*
X156835000Y-82935000I1811875J1841741D01*
G01*
X158435000Y-82935000D02*
G75*
G02*
X159463445Y-87212684I-780000J-2450000D01*
G01*
%TO.C,D9*%
X212500000Y-111350000D02*
X212500000Y-112000000D01*
X212500000Y-116890000D02*
X212500000Y-116240000D01*
X213620000Y-112600000D02*
X211380000Y-112600000D01*
X213620000Y-112720000D02*
X211380000Y-112720000D01*
X213620000Y-112840000D02*
X211380000Y-112840000D01*
X213620000Y-112000000D02*
X211380000Y-112000000D01*
X211380000Y-116240000D01*
X213620000Y-116240000D01*
X213620000Y-112000000D01*
%TO.C,D11*%
X213516250Y-79403750D02*
X213516250Y-80053750D01*
X213516250Y-84943750D02*
X213516250Y-84293750D01*
X214636250Y-80653750D02*
X212396250Y-80653750D01*
X214636250Y-80773750D02*
X212396250Y-80773750D01*
X214636250Y-80893750D02*
X212396250Y-80893750D01*
X214636250Y-80053750D02*
X212396250Y-80053750D01*
X212396250Y-84293750D01*
X214636250Y-84293750D01*
X214636250Y-80053750D01*
%TO.C,K5*%
X189413750Y-77326250D02*
X209813750Y-77326250D01*
X189413750Y-77926250D02*
X189413750Y-77326250D01*
X189413750Y-85526250D02*
X189413750Y-79526250D01*
X189413750Y-87226250D02*
X189913750Y-87726250D01*
X189413750Y-87326250D02*
X189813750Y-87726250D01*
X189413750Y-87426250D02*
X189813750Y-87726250D01*
X189413750Y-87726250D02*
X189413750Y-87126250D01*
X189613750Y-87726250D02*
X189413750Y-87526250D01*
X190013750Y-87726250D02*
X189413750Y-87126250D01*
X207613750Y-82126250D02*
X207613750Y-82826250D01*
X207613750Y-82826250D02*
X208813750Y-82826250D01*
X208013750Y-82126250D02*
X208413750Y-82826250D01*
X208213750Y-77226250D02*
X209913750Y-77226250D01*
X208213750Y-82126250D02*
X208213750Y-81026250D01*
X208213750Y-82826250D02*
X208213750Y-83926250D01*
X208813750Y-82126250D02*
X207613750Y-82126250D01*
X208813750Y-82826250D02*
X208813750Y-82126250D01*
X209813750Y-77326250D02*
X209813750Y-87726250D01*
X209813750Y-87726250D02*
X189413750Y-87726250D01*
X209913750Y-77226250D02*
X209913750Y-78726250D01*
%TO.C,ACS1*%
D12*
X103620000Y-119880000D02*
X93460000Y-119880000D01*
X93460000Y-135120000D01*
X103620000Y-135120000D01*
X103620000Y-119880000D01*
D11*
%TO.C,J16*%
X178790000Y-77890000D02*
X180000000Y-77890000D01*
X178790000Y-84610000D02*
X178790000Y-77890000D01*
X180000000Y-77890000D02*
X180000000Y-77390000D01*
X180000000Y-84610000D02*
X178790000Y-84610000D01*
X180000000Y-85110000D02*
X180000000Y-84610000D01*
X180110000Y-85410000D02*
X182610000Y-85410000D01*
X180810000Y-77390000D02*
X180810000Y-78390000D01*
X180810000Y-78390000D02*
X182310000Y-78390000D01*
X180810000Y-84110000D02*
X182310000Y-84110000D01*
X180810000Y-85110000D02*
X180810000Y-84110000D01*
X182610000Y-85410000D02*
X182610000Y-82910000D01*
X178290000Y-85110000D02*
X182310000Y-85110000D01*
X182310000Y-77390000D01*
X178290000Y-77390000D01*
X178290000Y-85110000D01*
%TO.C,Q4*%
X200530000Y-122770000D02*
X196930000Y-122770000D01*
X197950000Y-127070000D02*
G75*
G02*
X196921555Y-122792316I780000J2450000D01*
G01*
X200541875Y-122778259D02*
G75*
G02*
X199550000Y-127070000I-1811875J-1841741D01*
G01*
%TO.C,U7*%
X204395000Y-122660000D02*
X204395000Y-124310000D01*
X204395000Y-126310000D02*
X204395000Y-127960000D01*
X204395000Y-127960000D02*
X209595000Y-127960000D01*
X209595000Y-122660000D02*
X204395000Y-122660000D01*
X209595000Y-127960000D02*
X209595000Y-122660000D01*
X204395000Y-124310000D02*
G75*
G02*
X204395000Y-126310000I0J-1000000D01*
G01*
%TO.C,C14*%
X155380000Y-59630000D02*
X160620000Y-59630000D01*
X155380000Y-59967000D02*
X155380000Y-59630000D01*
X155380000Y-62370000D02*
X155380000Y-62033000D01*
X160620000Y-59630000D02*
X160620000Y-59967000D01*
X160620000Y-62033000D02*
X160620000Y-62370000D01*
X160620000Y-62370000D02*
X155380000Y-62370000D01*
%TO.C,K6*%
X98880000Y-74930000D02*
X98880000Y-76900000D01*
X98880000Y-74930000D02*
X128120000Y-74930000D01*
X98880000Y-84400000D02*
X98880000Y-78100000D01*
X98880000Y-85600000D02*
X98880000Y-87570000D01*
X120420000Y-78650000D02*
X122960000Y-78650000D01*
X120420000Y-83730000D02*
X120420000Y-78650000D01*
X121690000Y-77380000D02*
X122960000Y-77380000D01*
X121690000Y-78650000D02*
X121690000Y-77380000D01*
X121690000Y-83730000D02*
X120420000Y-83730000D01*
X121690000Y-85000000D02*
X121690000Y-83730000D01*
X122960000Y-78650000D02*
X122960000Y-83730000D01*
X122960000Y-81825000D02*
X120420000Y-80555000D01*
X122960000Y-83730000D02*
X121690000Y-83730000D01*
X122960000Y-85000000D02*
X121690000Y-85000000D01*
X128120000Y-80850000D02*
X128120000Y-74930000D01*
X128120000Y-81650000D02*
X128120000Y-87570000D01*
X128120000Y-87570000D02*
X98880000Y-87570000D01*
X128459411Y-81450000D02*
X128120000Y-81250000D01*
X128459411Y-81050000D01*
X128459411Y-81450000D01*
G36*
X128459411Y-81450000D02*
G01*
X128120000Y-81250000D01*
X128459411Y-81050000D01*
X128459411Y-81450000D01*
G37*
%TO.C,R19*%
X191056250Y-102983750D02*
X191826250Y-102983750D01*
X199136250Y-102983750D02*
X198366250Y-102983750D01*
X191826250Y-101613750D02*
X198366250Y-101613750D01*
X198366250Y-104353750D01*
X191826250Y-104353750D01*
X191826250Y-101613750D01*
%TO.C,R8*%
X113000000Y-92380000D02*
X113000000Y-93150000D01*
X113000000Y-100460000D02*
X113000000Y-99690000D01*
X111630000Y-99690000D02*
X114370000Y-99690000D01*
X114370000Y-93150000D01*
X111630000Y-93150000D01*
X111630000Y-99690000D01*
%TO.C,C10*%
X142340302Y-65685000D02*
X143140302Y-65685000D01*
X142740302Y-65285000D02*
X142740302Y-66085000D01*
X146750000Y-63920000D02*
X146750000Y-72080000D01*
X146790000Y-63920000D02*
X146790000Y-72080000D01*
X146830000Y-63921000D02*
X146830000Y-72079000D01*
X146870000Y-63922000D02*
X146870000Y-72078000D01*
X146910000Y-63923000D02*
X146910000Y-72077000D01*
X146950000Y-63925000D02*
X146950000Y-72075000D01*
X146990000Y-63927000D02*
X146990000Y-72073000D01*
X147030000Y-63930000D02*
X147030000Y-72070000D01*
X147070000Y-63932000D02*
X147070000Y-72068000D01*
X147110000Y-63936000D02*
X147110000Y-72064000D01*
X147150000Y-63939000D02*
X147150000Y-72061000D01*
X147190000Y-63944000D02*
X147190000Y-72056000D01*
X147230000Y-63948000D02*
X147230000Y-72052000D01*
X147270000Y-63953000D02*
X147270000Y-72047000D01*
X147310000Y-63958000D02*
X147310000Y-72042000D01*
X147350000Y-63964000D02*
X147350000Y-72036000D01*
X147390000Y-63970000D02*
X147390000Y-72030000D01*
X147430000Y-63977000D02*
X147430000Y-72023000D01*
X147470000Y-63983000D02*
X147470000Y-66960000D01*
X147470000Y-69040000D02*
X147470000Y-72017000D01*
X147510000Y-63991000D02*
X147510000Y-66960000D01*
X147510000Y-69040000D02*
X147510000Y-72009000D01*
X147550000Y-63998000D02*
X147550000Y-66960000D01*
X147550000Y-69040000D02*
X147550000Y-72002000D01*
X147590000Y-64007000D02*
X147590000Y-66960000D01*
X147590000Y-69040000D02*
X147590000Y-71993000D01*
X147630000Y-64015000D02*
X147630000Y-66960000D01*
X147630000Y-69040000D02*
X147630000Y-71985000D01*
X147670000Y-64024000D02*
X147670000Y-66960000D01*
X147670000Y-69040000D02*
X147670000Y-71976000D01*
X147710000Y-64033000D02*
X147710000Y-66960000D01*
X147710000Y-69040000D02*
X147710000Y-71967000D01*
X147750000Y-64043000D02*
X147750000Y-66960000D01*
X147750000Y-69040000D02*
X147750000Y-71957000D01*
X147790000Y-64053000D02*
X147790000Y-66960000D01*
X147790000Y-69040000D02*
X147790000Y-71947000D01*
X147830000Y-64064000D02*
X147830000Y-66960000D01*
X147830000Y-69040000D02*
X147830000Y-71936000D01*
X147870000Y-64075000D02*
X147870000Y-66960000D01*
X147870000Y-69040000D02*
X147870000Y-71925000D01*
X147910000Y-64087000D02*
X147910000Y-66960000D01*
X147910000Y-69040000D02*
X147910000Y-71913000D01*
X147950000Y-64099000D02*
X147950000Y-66960000D01*
X147950000Y-69040000D02*
X147950000Y-71901000D01*
X147990000Y-64111000D02*
X147990000Y-66960000D01*
X147990000Y-69040000D02*
X147990000Y-71889000D01*
X148030000Y-64124000D02*
X148030000Y-66960000D01*
X148030000Y-69040000D02*
X148030000Y-71876000D01*
X148070000Y-64137000D02*
X148070000Y-66960000D01*
X148070000Y-69040000D02*
X148070000Y-71863000D01*
X148110000Y-64151000D02*
X148110000Y-66960000D01*
X148110000Y-69040000D02*
X148110000Y-71849000D01*
X148150000Y-64165000D02*
X148150000Y-66960000D01*
X148150000Y-69040000D02*
X148150000Y-71835000D01*
X148190000Y-64180000D02*
X148190000Y-66960000D01*
X148190000Y-69040000D02*
X148190000Y-71820000D01*
X148230000Y-64195000D02*
X148230000Y-66960000D01*
X148230000Y-69040000D02*
X148230000Y-71805000D01*
X148270000Y-64211000D02*
X148270000Y-66960000D01*
X148270000Y-69040000D02*
X148270000Y-71789000D01*
X148310000Y-64227000D02*
X148310000Y-66960000D01*
X148310000Y-69040000D02*
X148310000Y-71773000D01*
X148350000Y-64243000D02*
X148350000Y-66960000D01*
X148350000Y-69040000D02*
X148350000Y-71757000D01*
X148390000Y-64260000D02*
X148390000Y-66960000D01*
X148390000Y-69040000D02*
X148390000Y-71740000D01*
X148430000Y-64278000D02*
X148430000Y-66960000D01*
X148430000Y-69040000D02*
X148430000Y-71722000D01*
X148470000Y-64296000D02*
X148470000Y-66960000D01*
X148470000Y-69040000D02*
X148470000Y-71704000D01*
X148510000Y-64315000D02*
X148510000Y-66960000D01*
X148510000Y-69040000D02*
X148510000Y-71685000D01*
X148550000Y-64334000D02*
X148550000Y-66960000D01*
X148550000Y-69040000D02*
X148550000Y-71666000D01*
X148590000Y-64354000D02*
X148590000Y-66960000D01*
X148590000Y-69040000D02*
X148590000Y-71646000D01*
X148630000Y-64374000D02*
X148630000Y-66960000D01*
X148630000Y-69040000D02*
X148630000Y-71626000D01*
X148670000Y-64395000D02*
X148670000Y-66960000D01*
X148670000Y-69040000D02*
X148670000Y-71605000D01*
X148710000Y-64416000D02*
X148710000Y-66960000D01*
X148710000Y-69040000D02*
X148710000Y-71584000D01*
X148750000Y-64438000D02*
X148750000Y-66960000D01*
X148750000Y-69040000D02*
X148750000Y-71562000D01*
X148790000Y-64461000D02*
X148790000Y-66960000D01*
X148790000Y-69040000D02*
X148790000Y-71539000D01*
X148830000Y-64484000D02*
X148830000Y-66960000D01*
X148830000Y-69040000D02*
X148830000Y-71516000D01*
X148870000Y-64507000D02*
X148870000Y-66960000D01*
X148870000Y-69040000D02*
X148870000Y-71493000D01*
X148910000Y-64532000D02*
X148910000Y-66960000D01*
X148910000Y-69040000D02*
X148910000Y-71468000D01*
X148950000Y-64557000D02*
X148950000Y-66960000D01*
X148950000Y-69040000D02*
X148950000Y-71443000D01*
X148990000Y-64582000D02*
X148990000Y-66960000D01*
X148990000Y-69040000D02*
X148990000Y-71418000D01*
X149030000Y-64608000D02*
X149030000Y-66960000D01*
X149030000Y-69040000D02*
X149030000Y-71392000D01*
X149070000Y-64635000D02*
X149070000Y-66960000D01*
X149070000Y-69040000D02*
X149070000Y-71365000D01*
X149110000Y-64663000D02*
X149110000Y-66960000D01*
X149110000Y-69040000D02*
X149110000Y-71337000D01*
X149150000Y-64691000D02*
X149150000Y-66960000D01*
X149150000Y-69040000D02*
X149150000Y-71309000D01*
X149190000Y-64720000D02*
X149190000Y-66960000D01*
X149190000Y-69040000D02*
X149190000Y-71280000D01*
X149230000Y-64750000D02*
X149230000Y-66960000D01*
X149230000Y-69040000D02*
X149230000Y-71250000D01*
X149270000Y-64781000D02*
X149270000Y-66960000D01*
X149270000Y-69040000D02*
X149270000Y-71219000D01*
X149310000Y-64812000D02*
X149310000Y-66960000D01*
X149310000Y-69040000D02*
X149310000Y-71188000D01*
X149350000Y-64844000D02*
X149350000Y-66960000D01*
X149350000Y-69040000D02*
X149350000Y-71156000D01*
X149390000Y-64877000D02*
X149390000Y-66960000D01*
X149390000Y-69040000D02*
X149390000Y-71123000D01*
X149430000Y-64911000D02*
X149430000Y-66960000D01*
X149430000Y-69040000D02*
X149430000Y-71089000D01*
X149470000Y-64945000D02*
X149470000Y-66960000D01*
X149470000Y-69040000D02*
X149470000Y-71055000D01*
X149510000Y-64981000D02*
X149510000Y-66960000D01*
X149510000Y-69040000D02*
X149510000Y-71019000D01*
X149550000Y-65018000D02*
X149550000Y-70982000D01*
X149590000Y-65055000D02*
X149590000Y-70945000D01*
X149630000Y-65094000D02*
X149630000Y-70906000D01*
X149670000Y-65133000D02*
X149670000Y-70867000D01*
X149710000Y-65174000D02*
X149710000Y-70826000D01*
X149750000Y-65216000D02*
X149750000Y-70784000D01*
X149790000Y-65259000D02*
X149790000Y-70741000D01*
X149830000Y-65304000D02*
X149830000Y-70696000D01*
X149870000Y-65349000D02*
X149870000Y-70651000D01*
X149910000Y-65396000D02*
X149910000Y-70604000D01*
X149950000Y-65445000D02*
X149950000Y-70555000D01*
X149990000Y-65495000D02*
X149990000Y-70505000D01*
X150030000Y-65547000D02*
X150030000Y-70453000D01*
X150070000Y-65600000D02*
X150070000Y-70400000D01*
X150110000Y-65656000D02*
X150110000Y-70344000D01*
X150150000Y-65713000D02*
X150150000Y-70287000D01*
X150190000Y-65773000D02*
X150190000Y-70227000D01*
X150230000Y-65835000D02*
X150230000Y-70165000D01*
X150270000Y-65899000D02*
X150270000Y-70101000D01*
X150310000Y-65966000D02*
X150310000Y-70034000D01*
X150350000Y-66036000D02*
X150350000Y-69964000D01*
X150390000Y-66110000D02*
X150390000Y-69890000D01*
X150430000Y-66187000D02*
X150430000Y-69813000D01*
X150470000Y-66269000D02*
X150470000Y-69731000D01*
X150510000Y-66356000D02*
X150510000Y-69644000D01*
X150550000Y-66448000D02*
X150550000Y-69552000D01*
X150590000Y-66547000D02*
X150590000Y-69453000D01*
X150630000Y-66654000D02*
X150630000Y-69346000D01*
X150670000Y-66772000D02*
X150670000Y-69228000D01*
X150710000Y-66903000D02*
X150710000Y-69097000D01*
X150750000Y-67053000D02*
X150750000Y-68947000D01*
X150790000Y-67232000D02*
X150790000Y-68768000D01*
X150830000Y-67467000D02*
X150830000Y-68533000D01*
X150870000Y-68000000D02*
G75*
G02*
X142630000Y-68000000I-4120000J0D01*
G01*
X142630000Y-68000000D02*
G75*
G02*
X150870000Y-68000000I4120000J0D01*
G01*
%TO.C,D8*%
X129880000Y-82780000D02*
X132120000Y-82780000D01*
X129880000Y-82900000D02*
X132120000Y-82900000D01*
X129880000Y-83020000D02*
X132120000Y-83020000D01*
X131000000Y-78730000D02*
X131000000Y-79380000D01*
X131000000Y-84270000D02*
X131000000Y-83620000D01*
X129880000Y-83620000D02*
X132120000Y-83620000D01*
X132120000Y-79380000D01*
X129880000Y-79380000D01*
X129880000Y-83620000D01*
%TO.C,C12*%
X146380000Y-57630000D02*
X151620000Y-57630000D01*
X146380000Y-57967000D02*
X146380000Y-57630000D01*
X146380000Y-60370000D02*
X146380000Y-60033000D01*
X151620000Y-57630000D02*
X151620000Y-57967000D01*
X151620000Y-60033000D02*
X151620000Y-60370000D01*
X151620000Y-60370000D02*
X146380000Y-60370000D01*
%TO.C,D3*%
X148380000Y-112360000D02*
X150620000Y-112360000D01*
X148380000Y-112480000D02*
X150620000Y-112480000D01*
X148380000Y-112600000D02*
X150620000Y-112600000D01*
X149500000Y-107040000D02*
X149500000Y-108960000D01*
X149500000Y-115120000D02*
X149500000Y-113200000D01*
X148380000Y-113200000D02*
X150620000Y-113200000D01*
X150620000Y-108960000D01*
X148380000Y-108960000D01*
X148380000Y-113200000D01*
%TO.C,C15*%
X153840302Y-68185000D02*
X154640302Y-68185000D01*
X154240302Y-67785000D02*
X154240302Y-68585000D01*
X158250000Y-66420000D02*
X158250000Y-74580000D01*
X158290000Y-66420000D02*
X158290000Y-74580000D01*
X158330000Y-66421000D02*
X158330000Y-74579000D01*
X158370000Y-66422000D02*
X158370000Y-74578000D01*
X158410000Y-66423000D02*
X158410000Y-74577000D01*
X158450000Y-66425000D02*
X158450000Y-74575000D01*
X158490000Y-66427000D02*
X158490000Y-74573000D01*
X158530000Y-66430000D02*
X158530000Y-74570000D01*
X158570000Y-66432000D02*
X158570000Y-74568000D01*
X158610000Y-66436000D02*
X158610000Y-74564000D01*
X158650000Y-66439000D02*
X158650000Y-74561000D01*
X158690000Y-66444000D02*
X158690000Y-74556000D01*
X158730000Y-66448000D02*
X158730000Y-74552000D01*
X158770000Y-66453000D02*
X158770000Y-74547000D01*
X158810000Y-66458000D02*
X158810000Y-74542000D01*
X158850000Y-66464000D02*
X158850000Y-74536000D01*
X158890000Y-66470000D02*
X158890000Y-74530000D01*
X158930000Y-66477000D02*
X158930000Y-74523000D01*
X158970000Y-66483000D02*
X158970000Y-69460000D01*
X158970000Y-71540000D02*
X158970000Y-74517000D01*
X159010000Y-66491000D02*
X159010000Y-69460000D01*
X159010000Y-71540000D02*
X159010000Y-74509000D01*
X159050000Y-66498000D02*
X159050000Y-69460000D01*
X159050000Y-71540000D02*
X159050000Y-74502000D01*
X159090000Y-66507000D02*
X159090000Y-69460000D01*
X159090000Y-71540000D02*
X159090000Y-74493000D01*
X159130000Y-66515000D02*
X159130000Y-69460000D01*
X159130000Y-71540000D02*
X159130000Y-74485000D01*
X159170000Y-66524000D02*
X159170000Y-69460000D01*
X159170000Y-71540000D02*
X159170000Y-74476000D01*
X159210000Y-66533000D02*
X159210000Y-69460000D01*
X159210000Y-71540000D02*
X159210000Y-74467000D01*
X159250000Y-66543000D02*
X159250000Y-69460000D01*
X159250000Y-71540000D02*
X159250000Y-74457000D01*
X159290000Y-66553000D02*
X159290000Y-69460000D01*
X159290000Y-71540000D02*
X159290000Y-74447000D01*
X159330000Y-66564000D02*
X159330000Y-69460000D01*
X159330000Y-71540000D02*
X159330000Y-74436000D01*
X159370000Y-66575000D02*
X159370000Y-69460000D01*
X159370000Y-71540000D02*
X159370000Y-74425000D01*
X159410000Y-66587000D02*
X159410000Y-69460000D01*
X159410000Y-71540000D02*
X159410000Y-74413000D01*
X159450000Y-66599000D02*
X159450000Y-69460000D01*
X159450000Y-71540000D02*
X159450000Y-74401000D01*
X159490000Y-66611000D02*
X159490000Y-69460000D01*
X159490000Y-71540000D02*
X159490000Y-74389000D01*
X159530000Y-66624000D02*
X159530000Y-69460000D01*
X159530000Y-71540000D02*
X159530000Y-74376000D01*
X159570000Y-66637000D02*
X159570000Y-69460000D01*
X159570000Y-71540000D02*
X159570000Y-74363000D01*
X159610000Y-66651000D02*
X159610000Y-69460000D01*
X159610000Y-71540000D02*
X159610000Y-74349000D01*
X159650000Y-66665000D02*
X159650000Y-69460000D01*
X159650000Y-71540000D02*
X159650000Y-74335000D01*
X159690000Y-66680000D02*
X159690000Y-69460000D01*
X159690000Y-71540000D02*
X159690000Y-74320000D01*
X159730000Y-66695000D02*
X159730000Y-69460000D01*
X159730000Y-71540000D02*
X159730000Y-74305000D01*
X159770000Y-66711000D02*
X159770000Y-69460000D01*
X159770000Y-71540000D02*
X159770000Y-74289000D01*
X159810000Y-66727000D02*
X159810000Y-69460000D01*
X159810000Y-71540000D02*
X159810000Y-74273000D01*
X159850000Y-66743000D02*
X159850000Y-69460000D01*
X159850000Y-71540000D02*
X159850000Y-74257000D01*
X159890000Y-66760000D02*
X159890000Y-69460000D01*
X159890000Y-71540000D02*
X159890000Y-74240000D01*
X159930000Y-66778000D02*
X159930000Y-69460000D01*
X159930000Y-71540000D02*
X159930000Y-74222000D01*
X159970000Y-66796000D02*
X159970000Y-69460000D01*
X159970000Y-71540000D02*
X159970000Y-74204000D01*
X160010000Y-66815000D02*
X160010000Y-69460000D01*
X160010000Y-71540000D02*
X160010000Y-74185000D01*
X160050000Y-66834000D02*
X160050000Y-69460000D01*
X160050000Y-71540000D02*
X160050000Y-74166000D01*
X160090000Y-66854000D02*
X160090000Y-69460000D01*
X160090000Y-71540000D02*
X160090000Y-74146000D01*
X160130000Y-66874000D02*
X160130000Y-69460000D01*
X160130000Y-71540000D02*
X160130000Y-74126000D01*
X160170000Y-66895000D02*
X160170000Y-69460000D01*
X160170000Y-71540000D02*
X160170000Y-74105000D01*
X160210000Y-66916000D02*
X160210000Y-69460000D01*
X160210000Y-71540000D02*
X160210000Y-74084000D01*
X160250000Y-66938000D02*
X160250000Y-69460000D01*
X160250000Y-71540000D02*
X160250000Y-74062000D01*
X160290000Y-66961000D02*
X160290000Y-69460000D01*
X160290000Y-71540000D02*
X160290000Y-74039000D01*
X160330000Y-66984000D02*
X160330000Y-69460000D01*
X160330000Y-71540000D02*
X160330000Y-74016000D01*
X160370000Y-67007000D02*
X160370000Y-69460000D01*
X160370000Y-71540000D02*
X160370000Y-73993000D01*
X160410000Y-67032000D02*
X160410000Y-69460000D01*
X160410000Y-71540000D02*
X160410000Y-73968000D01*
X160450000Y-67057000D02*
X160450000Y-69460000D01*
X160450000Y-71540000D02*
X160450000Y-73943000D01*
X160490000Y-67082000D02*
X160490000Y-69460000D01*
X160490000Y-71540000D02*
X160490000Y-73918000D01*
X160530000Y-67108000D02*
X160530000Y-69460000D01*
X160530000Y-71540000D02*
X160530000Y-73892000D01*
X160570000Y-67135000D02*
X160570000Y-69460000D01*
X160570000Y-71540000D02*
X160570000Y-73865000D01*
X160610000Y-67163000D02*
X160610000Y-69460000D01*
X160610000Y-71540000D02*
X160610000Y-73837000D01*
X160650000Y-67191000D02*
X160650000Y-69460000D01*
X160650000Y-71540000D02*
X160650000Y-73809000D01*
X160690000Y-67220000D02*
X160690000Y-69460000D01*
X160690000Y-71540000D02*
X160690000Y-73780000D01*
X160730000Y-67250000D02*
X160730000Y-69460000D01*
X160730000Y-71540000D02*
X160730000Y-73750000D01*
X160770000Y-67281000D02*
X160770000Y-69460000D01*
X160770000Y-71540000D02*
X160770000Y-73719000D01*
X160810000Y-67312000D02*
X160810000Y-69460000D01*
X160810000Y-71540000D02*
X160810000Y-73688000D01*
X160850000Y-67344000D02*
X160850000Y-69460000D01*
X160850000Y-71540000D02*
X160850000Y-73656000D01*
X160890000Y-67377000D02*
X160890000Y-69460000D01*
X160890000Y-71540000D02*
X160890000Y-73623000D01*
X160930000Y-67411000D02*
X160930000Y-69460000D01*
X160930000Y-71540000D02*
X160930000Y-73589000D01*
X160970000Y-67445000D02*
X160970000Y-69460000D01*
X160970000Y-71540000D02*
X160970000Y-73555000D01*
X161010000Y-67481000D02*
X161010000Y-69460000D01*
X161010000Y-71540000D02*
X161010000Y-73519000D01*
X161050000Y-67518000D02*
X161050000Y-73482000D01*
X161090000Y-67555000D02*
X161090000Y-73445000D01*
X161130000Y-67594000D02*
X161130000Y-73406000D01*
X161170000Y-67633000D02*
X161170000Y-73367000D01*
X161210000Y-67674000D02*
X161210000Y-73326000D01*
X161250000Y-67716000D02*
X161250000Y-73284000D01*
X161290000Y-67759000D02*
X161290000Y-73241000D01*
X161330000Y-67804000D02*
X161330000Y-73196000D01*
X161370000Y-67849000D02*
X161370000Y-73151000D01*
X161410000Y-67896000D02*
X161410000Y-73104000D01*
X161450000Y-67945000D02*
X161450000Y-73055000D01*
X161490000Y-67995000D02*
X161490000Y-73005000D01*
X161530000Y-68047000D02*
X161530000Y-72953000D01*
X161570000Y-68100000D02*
X161570000Y-72900000D01*
X161610000Y-68156000D02*
X161610000Y-72844000D01*
X161650000Y-68213000D02*
X161650000Y-72787000D01*
X161690000Y-68273000D02*
X161690000Y-72727000D01*
X161730000Y-68335000D02*
X161730000Y-72665000D01*
X161770000Y-68399000D02*
X161770000Y-72601000D01*
X161810000Y-68466000D02*
X161810000Y-72534000D01*
X161850000Y-68536000D02*
X161850000Y-72464000D01*
X161890000Y-68610000D02*
X161890000Y-72390000D01*
X161930000Y-68687000D02*
X161930000Y-72313000D01*
X161970000Y-68769000D02*
X161970000Y-72231000D01*
X162010000Y-68856000D02*
X162010000Y-72144000D01*
X162050000Y-68948000D02*
X162050000Y-72052000D01*
X162090000Y-69047000D02*
X162090000Y-71953000D01*
X162130000Y-69154000D02*
X162130000Y-71846000D01*
X162170000Y-69272000D02*
X162170000Y-71728000D01*
X162210000Y-69403000D02*
X162210000Y-71597000D01*
X162250000Y-69553000D02*
X162250000Y-71447000D01*
X162290000Y-69732000D02*
X162290000Y-71268000D01*
X162330000Y-69967000D02*
X162330000Y-71033000D01*
X162370000Y-70500000D02*
G75*
G02*
X154130000Y-70500000I-4120000J0D01*
G01*
X154130000Y-70500000D02*
G75*
G02*
X162370000Y-70500000I4120000J0D01*
G01*
%TO.C,D6*%
X149880000Y-98280000D02*
X152120000Y-98280000D01*
X149880000Y-98400000D02*
X152120000Y-98400000D01*
X149880000Y-98520000D02*
X152120000Y-98520000D01*
X151000000Y-92960000D02*
X151000000Y-94880000D01*
X151000000Y-101040000D02*
X151000000Y-99120000D01*
X149880000Y-99120000D02*
X152120000Y-99120000D01*
X152120000Y-94880000D01*
X149880000Y-94880000D01*
X149880000Y-99120000D01*
%TO.C,J6*%
X178790000Y-55890000D02*
X180000000Y-55890000D01*
X178790000Y-62610000D02*
X178790000Y-55890000D01*
X180000000Y-55890000D02*
X180000000Y-55390000D01*
X180000000Y-62610000D02*
X178790000Y-62610000D01*
X180000000Y-63110000D02*
X180000000Y-62610000D01*
X180110000Y-63410000D02*
X182610000Y-63410000D01*
X180810000Y-55390000D02*
X180810000Y-56390000D01*
X180810000Y-56390000D02*
X182310000Y-56390000D01*
X180810000Y-62110000D02*
X182310000Y-62110000D01*
X180810000Y-63110000D02*
X180810000Y-62110000D01*
X182610000Y-63410000D02*
X182610000Y-60910000D01*
X178290000Y-63110000D02*
X182310000Y-63110000D01*
X182310000Y-55390000D01*
X178290000Y-55390000D01*
X178290000Y-63110000D01*
%TO.C,R10*%
X135000000Y-107380000D02*
X135000000Y-108150000D01*
X135000000Y-115460000D02*
X135000000Y-114690000D01*
X133630000Y-114690000D02*
X136370000Y-114690000D01*
X136370000Y-108150000D01*
X133630000Y-108150000D01*
X133630000Y-114690000D01*
%TO.C,F2*%
X100330000Y-63800000D02*
X100330000Y-65400000D01*
X100330000Y-70200000D02*
X100330000Y-68600000D01*
X106630000Y-63800000D02*
X100330000Y-63800000D01*
X106630000Y-63800000D02*
X106630000Y-65400000D01*
X106630000Y-70200000D02*
X100330000Y-70200000D01*
X106630000Y-70200000D02*
X106630000Y-68600000D01*
X114370000Y-63800000D02*
X114370000Y-65400000D01*
X114370000Y-64500000D02*
X106630000Y-64500000D01*
X114370000Y-69500000D02*
X106630000Y-69500000D01*
X114370000Y-70200000D02*
X114370000Y-68600000D01*
X114370000Y-70200000D02*
X120670000Y-70200000D01*
X120670000Y-63800000D02*
X114370000Y-63800000D01*
X120670000Y-65400000D02*
X120670000Y-63800000D01*
X120670000Y-68600000D02*
X120670000Y-70200000D01*
%TO.C,J1*%
X98780000Y-50880000D02*
X108820000Y-50880000D01*
X98780000Y-53200000D02*
X98780000Y-50880000D01*
X98780000Y-61120000D02*
X98780000Y-53800000D01*
X99400000Y-50880000D02*
X99400000Y-61120000D01*
X100900000Y-50880000D02*
X100900000Y-61120000D01*
X105800000Y-50880000D02*
X105800000Y-61120000D01*
X108820000Y-50880000D02*
X108820000Y-61120000D01*
X108820000Y-61120000D02*
X98780000Y-61120000D01*
X98780000Y-53500000D02*
X98170000Y-53940000D01*
X98170000Y-53060000D01*
X98780000Y-53500000D01*
G36*
X98780000Y-53500000D02*
G01*
X98170000Y-53940000D01*
X98170000Y-53060000D01*
X98780000Y-53500000D01*
G37*
%TO.C,Q3*%
X194316250Y-92863750D02*
X190716250Y-92863750D01*
X191736250Y-97163750D02*
G75*
G02*
X190707805Y-92886066I780000J2450000D01*
G01*
X194328125Y-92872009D02*
G75*
G02*
X193336250Y-97163750I-1811875J-1841741D01*
G01*
%TO.C,R3*%
X123000000Y-92540000D02*
X123000000Y-93310000D01*
X123000000Y-100620000D02*
X123000000Y-99850000D01*
X124370000Y-93310000D02*
X121630000Y-93310000D01*
X121630000Y-99850000D01*
X124370000Y-99850000D01*
X124370000Y-93310000D01*
%TO.C,U8*%
X195905000Y-62160000D02*
X195905000Y-67460000D01*
X195905000Y-67460000D02*
X201105000Y-67460000D01*
X201105000Y-62160000D02*
X195905000Y-62160000D01*
X201105000Y-63810000D02*
X201105000Y-62160000D01*
X201105000Y-67460000D02*
X201105000Y-65810000D01*
X201105000Y-65810000D02*
G75*
G02*
X201105000Y-63810000I0J1000000D01*
G01*
%TO.C,J14*%
X154880000Y-121680000D02*
X175120000Y-121680000D01*
X154880000Y-124700000D02*
X175120000Y-124700000D01*
X154880000Y-129600000D02*
X175120000Y-129600000D01*
X154880000Y-131100000D02*
X175120000Y-131100000D01*
X154880000Y-131720000D02*
X154880000Y-121680000D01*
X157200000Y-131720000D02*
X154880000Y-131720000D01*
X175120000Y-121680000D02*
X175120000Y-131720000D01*
X175120000Y-131720000D02*
X157800000Y-131720000D01*
X157940000Y-132330000D02*
X157060000Y-132330000D01*
X157500000Y-131720000D01*
X157940000Y-132330000D01*
G36*
X157940000Y-132330000D02*
G01*
X157060000Y-132330000D01*
X157500000Y-131720000D01*
X157940000Y-132330000D01*
G37*
%TO.C,C4*%
X116780000Y-94330000D02*
X117474000Y-94330000D01*
X116780000Y-99670000D02*
X116780000Y-94330000D01*
X117474000Y-99670000D02*
X116780000Y-99670000D01*
X119526000Y-94330000D02*
X120220000Y-94330000D01*
X120220000Y-94330000D02*
X120220000Y-99670000D01*
X120220000Y-99670000D02*
X119526000Y-99670000D01*
%TO.C,R5*%
X145000000Y-106960000D02*
X145000000Y-107730000D01*
X145000000Y-115040000D02*
X145000000Y-114270000D01*
X146370000Y-107730000D02*
X143630000Y-107730000D01*
X143630000Y-114270000D01*
X146370000Y-114270000D01*
X146370000Y-107730000D01*
%TO.C,J5*%
X178790000Y-90390000D02*
X180000000Y-90390000D01*
X178790000Y-97110000D02*
X178790000Y-90390000D01*
X180000000Y-90390000D02*
X180000000Y-89890000D01*
X180000000Y-97110000D02*
X178790000Y-97110000D01*
X180000000Y-97610000D02*
X180000000Y-97110000D01*
X180110000Y-97910000D02*
X182610000Y-97910000D01*
X180810000Y-89890000D02*
X180810000Y-90890000D01*
X180810000Y-90890000D02*
X182310000Y-90890000D01*
X180810000Y-96610000D02*
X182310000Y-96610000D01*
X180810000Y-97610000D02*
X180810000Y-96610000D01*
X182610000Y-97910000D02*
X182610000Y-95410000D01*
X178290000Y-97610000D02*
X182310000Y-97610000D01*
X182310000Y-89890000D01*
X178290000Y-89890000D01*
X178290000Y-97610000D01*
%TO.C,R14*%
X196460000Y-133120000D02*
X197230000Y-133120000D01*
X204540000Y-133120000D02*
X203770000Y-133120000D01*
X197230000Y-131750000D02*
X203770000Y-131750000D01*
X203770000Y-134490000D01*
X197230000Y-134490000D01*
X197230000Y-131750000D01*
%TO.C,U3*%
X146015000Y-82545000D02*
X146015000Y-87845000D01*
X146015000Y-87845000D02*
X151215000Y-87845000D01*
X151215000Y-82545000D02*
X146015000Y-82545000D01*
X151215000Y-84195000D02*
X151215000Y-82545000D01*
X151215000Y-87845000D02*
X151215000Y-86195000D01*
X151215000Y-86195000D02*
G75*
G02*
X151215000Y-84195000I0J1000000D01*
G01*
%TO.C,U1*%
X157340000Y-94900000D02*
X157340000Y-96900000D01*
X157340000Y-94900000D02*
X158950000Y-94900000D01*
X157620000Y-107440000D02*
X157620000Y-95190000D01*
X157630000Y-95180000D02*
X163370000Y-95180000D01*
X163380000Y-95180000D02*
X163380000Y-107440000D01*
X163380000Y-107440000D02*
X157620000Y-107440000D01*
%TO.C,R16*%
X191000000Y-61040000D02*
X191000000Y-61810000D01*
X191000000Y-69120000D02*
X191000000Y-68350000D01*
X189630000Y-68350000D02*
X192370000Y-68350000D01*
X192370000Y-61810000D01*
X189630000Y-61810000D01*
X189630000Y-68350000D01*
%TO.C,C5*%
X139280000Y-94330000D02*
X139974000Y-94330000D01*
X139280000Y-99670000D02*
X139280000Y-94330000D01*
X139974000Y-99670000D02*
X139280000Y-99670000D01*
X142026000Y-94330000D02*
X142720000Y-94330000D01*
X142720000Y-94330000D02*
X142720000Y-99670000D01*
X142720000Y-99670000D02*
X142026000Y-99670000D01*
%TO.C,U4*%
X134390000Y-49190000D02*
X144610000Y-49190000D01*
X134390000Y-50570000D02*
X144610000Y-50570000D01*
X134390000Y-53810000D02*
X134390000Y-49190000D01*
X137650000Y-49190000D02*
X137650000Y-50570000D01*
X141350000Y-49190000D02*
X141350000Y-50570000D01*
X144610000Y-49190000D02*
X144610000Y-53810000D01*
X144610000Y-53810000D02*
X134390000Y-53810000D01*
%TO.C,C13*%
X147840302Y-50685000D02*
X148640302Y-50685000D01*
X148240302Y-50285000D02*
X148240302Y-51085000D01*
X152250000Y-48920000D02*
X152250000Y-57080000D01*
X152290000Y-48920000D02*
X152290000Y-57080000D01*
X152330000Y-48921000D02*
X152330000Y-57079000D01*
X152370000Y-48922000D02*
X152370000Y-57078000D01*
X152410000Y-48923000D02*
X152410000Y-57077000D01*
X152450000Y-48925000D02*
X152450000Y-57075000D01*
X152490000Y-48927000D02*
X152490000Y-57073000D01*
X152530000Y-48930000D02*
X152530000Y-57070000D01*
X152570000Y-48932000D02*
X152570000Y-57068000D01*
X152610000Y-48936000D02*
X152610000Y-57064000D01*
X152650000Y-48939000D02*
X152650000Y-57061000D01*
X152690000Y-48944000D02*
X152690000Y-57056000D01*
X152730000Y-48948000D02*
X152730000Y-57052000D01*
X152770000Y-48953000D02*
X152770000Y-57047000D01*
X152810000Y-48958000D02*
X152810000Y-57042000D01*
X152850000Y-48964000D02*
X152850000Y-57036000D01*
X152890000Y-48970000D02*
X152890000Y-57030000D01*
X152930000Y-48977000D02*
X152930000Y-57023000D01*
X152970000Y-48983000D02*
X152970000Y-51960000D01*
X152970000Y-54040000D02*
X152970000Y-57017000D01*
X153010000Y-48991000D02*
X153010000Y-51960000D01*
X153010000Y-54040000D02*
X153010000Y-57009000D01*
X153050000Y-48998000D02*
X153050000Y-51960000D01*
X153050000Y-54040000D02*
X153050000Y-57002000D01*
X153090000Y-49007000D02*
X153090000Y-51960000D01*
X153090000Y-54040000D02*
X153090000Y-56993000D01*
X153130000Y-49015000D02*
X153130000Y-51960000D01*
X153130000Y-54040000D02*
X153130000Y-56985000D01*
X153170000Y-49024000D02*
X153170000Y-51960000D01*
X153170000Y-54040000D02*
X153170000Y-56976000D01*
X153210000Y-49033000D02*
X153210000Y-51960000D01*
X153210000Y-54040000D02*
X153210000Y-56967000D01*
X153250000Y-49043000D02*
X153250000Y-51960000D01*
X153250000Y-54040000D02*
X153250000Y-56957000D01*
X153290000Y-49053000D02*
X153290000Y-51960000D01*
X153290000Y-54040000D02*
X153290000Y-56947000D01*
X153330000Y-49064000D02*
X153330000Y-51960000D01*
X153330000Y-54040000D02*
X153330000Y-56936000D01*
X153370000Y-49075000D02*
X153370000Y-51960000D01*
X153370000Y-54040000D02*
X153370000Y-56925000D01*
X153410000Y-49087000D02*
X153410000Y-51960000D01*
X153410000Y-54040000D02*
X153410000Y-56913000D01*
X153450000Y-49099000D02*
X153450000Y-51960000D01*
X153450000Y-54040000D02*
X153450000Y-56901000D01*
X153490000Y-49111000D02*
X153490000Y-51960000D01*
X153490000Y-54040000D02*
X153490000Y-56889000D01*
X153530000Y-49124000D02*
X153530000Y-51960000D01*
X153530000Y-54040000D02*
X153530000Y-56876000D01*
X153570000Y-49137000D02*
X153570000Y-51960000D01*
X153570000Y-54040000D02*
X153570000Y-56863000D01*
X153610000Y-49151000D02*
X153610000Y-51960000D01*
X153610000Y-54040000D02*
X153610000Y-56849000D01*
X153650000Y-49165000D02*
X153650000Y-51960000D01*
X153650000Y-54040000D02*
X153650000Y-56835000D01*
X153690000Y-49180000D02*
X153690000Y-51960000D01*
X153690000Y-54040000D02*
X153690000Y-56820000D01*
X153730000Y-49195000D02*
X153730000Y-51960000D01*
X153730000Y-54040000D02*
X153730000Y-56805000D01*
X153770000Y-49211000D02*
X153770000Y-51960000D01*
X153770000Y-54040000D02*
X153770000Y-56789000D01*
X153810000Y-49227000D02*
X153810000Y-51960000D01*
X153810000Y-54040000D02*
X153810000Y-56773000D01*
X153850000Y-49243000D02*
X153850000Y-51960000D01*
X153850000Y-54040000D02*
X153850000Y-56757000D01*
X153890000Y-49260000D02*
X153890000Y-51960000D01*
X153890000Y-54040000D02*
X153890000Y-56740000D01*
X153930000Y-49278000D02*
X153930000Y-51960000D01*
X153930000Y-54040000D02*
X153930000Y-56722000D01*
X153970000Y-49296000D02*
X153970000Y-51960000D01*
X153970000Y-54040000D02*
X153970000Y-56704000D01*
X154010000Y-49315000D02*
X154010000Y-51960000D01*
X154010000Y-54040000D02*
X154010000Y-56685000D01*
X154050000Y-49334000D02*
X154050000Y-51960000D01*
X154050000Y-54040000D02*
X154050000Y-56666000D01*
X154090000Y-49354000D02*
X154090000Y-51960000D01*
X154090000Y-54040000D02*
X154090000Y-56646000D01*
X154130000Y-49374000D02*
X154130000Y-51960000D01*
X154130000Y-54040000D02*
X154130000Y-56626000D01*
X154170000Y-49395000D02*
X154170000Y-51960000D01*
X154170000Y-54040000D02*
X154170000Y-56605000D01*
X154210000Y-49416000D02*
X154210000Y-51960000D01*
X154210000Y-54040000D02*
X154210000Y-56584000D01*
X154250000Y-49438000D02*
X154250000Y-51960000D01*
X154250000Y-54040000D02*
X154250000Y-56562000D01*
X154290000Y-49461000D02*
X154290000Y-51960000D01*
X154290000Y-54040000D02*
X154290000Y-56539000D01*
X154330000Y-49484000D02*
X154330000Y-51960000D01*
X154330000Y-54040000D02*
X154330000Y-56516000D01*
X154370000Y-49507000D02*
X154370000Y-51960000D01*
X154370000Y-54040000D02*
X154370000Y-56493000D01*
X154410000Y-49532000D02*
X154410000Y-51960000D01*
X154410000Y-54040000D02*
X154410000Y-56468000D01*
X154450000Y-49557000D02*
X154450000Y-51960000D01*
X154450000Y-54040000D02*
X154450000Y-56443000D01*
X154490000Y-49582000D02*
X154490000Y-51960000D01*
X154490000Y-54040000D02*
X154490000Y-56418000D01*
X154530000Y-49608000D02*
X154530000Y-51960000D01*
X154530000Y-54040000D02*
X154530000Y-56392000D01*
X154570000Y-49635000D02*
X154570000Y-51960000D01*
X154570000Y-54040000D02*
X154570000Y-56365000D01*
X154610000Y-49663000D02*
X154610000Y-51960000D01*
X154610000Y-54040000D02*
X154610000Y-56337000D01*
X154650000Y-49691000D02*
X154650000Y-51960000D01*
X154650000Y-54040000D02*
X154650000Y-56309000D01*
X154690000Y-49720000D02*
X154690000Y-51960000D01*
X154690000Y-54040000D02*
X154690000Y-56280000D01*
X154730000Y-49750000D02*
X154730000Y-51960000D01*
X154730000Y-54040000D02*
X154730000Y-56250000D01*
X154770000Y-49781000D02*
X154770000Y-51960000D01*
X154770000Y-54040000D02*
X154770000Y-56219000D01*
X154810000Y-49812000D02*
X154810000Y-51960000D01*
X154810000Y-54040000D02*
X154810000Y-56188000D01*
X154850000Y-49844000D02*
X154850000Y-51960000D01*
X154850000Y-54040000D02*
X154850000Y-56156000D01*
X154890000Y-49877000D02*
X154890000Y-51960000D01*
X154890000Y-54040000D02*
X154890000Y-56123000D01*
X154930000Y-49911000D02*
X154930000Y-51960000D01*
X154930000Y-54040000D02*
X154930000Y-56089000D01*
X154970000Y-49945000D02*
X154970000Y-51960000D01*
X154970000Y-54040000D02*
X154970000Y-56055000D01*
X155010000Y-49981000D02*
X155010000Y-51960000D01*
X155010000Y-54040000D02*
X155010000Y-56019000D01*
X155050000Y-50018000D02*
X155050000Y-55982000D01*
X155090000Y-50055000D02*
X155090000Y-55945000D01*
X155130000Y-50094000D02*
X155130000Y-55906000D01*
X155170000Y-50133000D02*
X155170000Y-55867000D01*
X155210000Y-50174000D02*
X155210000Y-55826000D01*
X155250000Y-50216000D02*
X155250000Y-55784000D01*
X155290000Y-50259000D02*
X155290000Y-55741000D01*
X155330000Y-50304000D02*
X155330000Y-55696000D01*
X155370000Y-50349000D02*
X155370000Y-55651000D01*
X155410000Y-50396000D02*
X155410000Y-55604000D01*
X155450000Y-50445000D02*
X155450000Y-55555000D01*
X155490000Y-50495000D02*
X155490000Y-55505000D01*
X155530000Y-50547000D02*
X155530000Y-55453000D01*
X155570000Y-50600000D02*
X155570000Y-55400000D01*
X155610000Y-50656000D02*
X155610000Y-55344000D01*
X155650000Y-50713000D02*
X155650000Y-55287000D01*
X155690000Y-50773000D02*
X155690000Y-55227000D01*
X155730000Y-50835000D02*
X155730000Y-55165000D01*
X155770000Y-50899000D02*
X155770000Y-55101000D01*
X155810000Y-50966000D02*
X155810000Y-55034000D01*
X155850000Y-51036000D02*
X155850000Y-54964000D01*
X155890000Y-51110000D02*
X155890000Y-54890000D01*
X155930000Y-51187000D02*
X155930000Y-54813000D01*
X155970000Y-51269000D02*
X155970000Y-54731000D01*
X156010000Y-51356000D02*
X156010000Y-54644000D01*
X156050000Y-51448000D02*
X156050000Y-54552000D01*
X156090000Y-51547000D02*
X156090000Y-54453000D01*
X156130000Y-51654000D02*
X156130000Y-54346000D01*
X156170000Y-51772000D02*
X156170000Y-54228000D01*
X156210000Y-51903000D02*
X156210000Y-54097000D01*
X156250000Y-52053000D02*
X156250000Y-53947000D01*
X156290000Y-52232000D02*
X156290000Y-53768000D01*
X156330000Y-52467000D02*
X156330000Y-53533000D01*
X156370000Y-53000000D02*
G75*
G02*
X148130000Y-53000000I-4120000J0D01*
G01*
X148130000Y-53000000D02*
G75*
G02*
X156370000Y-53000000I4120000J0D01*
G01*
%TO.C,C16*%
X161380000Y-55630000D02*
X166620000Y-55630000D01*
X161380000Y-55967000D02*
X161380000Y-55630000D01*
X161380000Y-58370000D02*
X161380000Y-58033000D01*
X166620000Y-55630000D02*
X166620000Y-55967000D01*
X166620000Y-58033000D02*
X166620000Y-58370000D01*
X166620000Y-58370000D02*
X161380000Y-58370000D01*
%TO.C,C18*%
X164340302Y-67685000D02*
X165140302Y-67685000D01*
X164740302Y-67285000D02*
X164740302Y-68085000D01*
X168750000Y-65920000D02*
X168750000Y-74080000D01*
X168790000Y-65920000D02*
X168790000Y-74080000D01*
X168830000Y-65921000D02*
X168830000Y-74079000D01*
X168870000Y-65922000D02*
X168870000Y-74078000D01*
X168910000Y-65923000D02*
X168910000Y-74077000D01*
X168950000Y-65925000D02*
X168950000Y-74075000D01*
X168990000Y-65927000D02*
X168990000Y-74073000D01*
X169030000Y-65930000D02*
X169030000Y-74070000D01*
X169070000Y-65932000D02*
X169070000Y-74068000D01*
X169110000Y-65936000D02*
X169110000Y-74064000D01*
X169150000Y-65939000D02*
X169150000Y-74061000D01*
X169190000Y-65944000D02*
X169190000Y-74056000D01*
X169230000Y-65948000D02*
X169230000Y-74052000D01*
X169270000Y-65953000D02*
X169270000Y-74047000D01*
X169310000Y-65958000D02*
X169310000Y-74042000D01*
X169350000Y-65964000D02*
X169350000Y-74036000D01*
X169390000Y-65970000D02*
X169390000Y-74030000D01*
X169430000Y-65977000D02*
X169430000Y-74023000D01*
X169470000Y-65983000D02*
X169470000Y-68960000D01*
X169470000Y-71040000D02*
X169470000Y-74017000D01*
X169510000Y-65991000D02*
X169510000Y-68960000D01*
X169510000Y-71040000D02*
X169510000Y-74009000D01*
X169550000Y-65998000D02*
X169550000Y-68960000D01*
X169550000Y-71040000D02*
X169550000Y-74002000D01*
X169590000Y-66007000D02*
X169590000Y-68960000D01*
X169590000Y-71040000D02*
X169590000Y-73993000D01*
X169630000Y-66015000D02*
X169630000Y-68960000D01*
X169630000Y-71040000D02*
X169630000Y-73985000D01*
X169670000Y-66024000D02*
X169670000Y-68960000D01*
X169670000Y-71040000D02*
X169670000Y-73976000D01*
X169710000Y-66033000D02*
X169710000Y-68960000D01*
X169710000Y-71040000D02*
X169710000Y-73967000D01*
X169750000Y-66043000D02*
X169750000Y-68960000D01*
X169750000Y-71040000D02*
X169750000Y-73957000D01*
X169790000Y-66053000D02*
X169790000Y-68960000D01*
X169790000Y-71040000D02*
X169790000Y-73947000D01*
X169830000Y-66064000D02*
X169830000Y-68960000D01*
X169830000Y-71040000D02*
X169830000Y-73936000D01*
X169870000Y-66075000D02*
X169870000Y-68960000D01*
X169870000Y-71040000D02*
X169870000Y-73925000D01*
X169910000Y-66087000D02*
X169910000Y-68960000D01*
X169910000Y-71040000D02*
X169910000Y-73913000D01*
X169950000Y-66099000D02*
X169950000Y-68960000D01*
X169950000Y-71040000D02*
X169950000Y-73901000D01*
X169990000Y-66111000D02*
X169990000Y-68960000D01*
X169990000Y-71040000D02*
X169990000Y-73889000D01*
X170030000Y-66124000D02*
X170030000Y-68960000D01*
X170030000Y-71040000D02*
X170030000Y-73876000D01*
X170070000Y-66137000D02*
X170070000Y-68960000D01*
X170070000Y-71040000D02*
X170070000Y-73863000D01*
X170110000Y-66151000D02*
X170110000Y-68960000D01*
X170110000Y-71040000D02*
X170110000Y-73849000D01*
X170150000Y-66165000D02*
X170150000Y-68960000D01*
X170150000Y-71040000D02*
X170150000Y-73835000D01*
X170190000Y-66180000D02*
X170190000Y-68960000D01*
X170190000Y-71040000D02*
X170190000Y-73820000D01*
X170230000Y-66195000D02*
X170230000Y-68960000D01*
X170230000Y-71040000D02*
X170230000Y-73805000D01*
X170270000Y-66211000D02*
X170270000Y-68960000D01*
X170270000Y-71040000D02*
X170270000Y-73789000D01*
X170310000Y-66227000D02*
X170310000Y-68960000D01*
X170310000Y-71040000D02*
X170310000Y-73773000D01*
X170350000Y-66243000D02*
X170350000Y-68960000D01*
X170350000Y-71040000D02*
X170350000Y-73757000D01*
X170390000Y-66260000D02*
X170390000Y-68960000D01*
X170390000Y-71040000D02*
X170390000Y-73740000D01*
X170430000Y-66278000D02*
X170430000Y-68960000D01*
X170430000Y-71040000D02*
X170430000Y-73722000D01*
X170470000Y-66296000D02*
X170470000Y-68960000D01*
X170470000Y-71040000D02*
X170470000Y-73704000D01*
X170510000Y-66315000D02*
X170510000Y-68960000D01*
X170510000Y-71040000D02*
X170510000Y-73685000D01*
X170550000Y-66334000D02*
X170550000Y-68960000D01*
X170550000Y-71040000D02*
X170550000Y-73666000D01*
X170590000Y-66354000D02*
X170590000Y-68960000D01*
X170590000Y-71040000D02*
X170590000Y-73646000D01*
X170630000Y-66374000D02*
X170630000Y-68960000D01*
X170630000Y-71040000D02*
X170630000Y-73626000D01*
X170670000Y-66395000D02*
X170670000Y-68960000D01*
X170670000Y-71040000D02*
X170670000Y-73605000D01*
X170710000Y-66416000D02*
X170710000Y-68960000D01*
X170710000Y-71040000D02*
X170710000Y-73584000D01*
X170750000Y-66438000D02*
X170750000Y-68960000D01*
X170750000Y-71040000D02*
X170750000Y-73562000D01*
X170790000Y-66461000D02*
X170790000Y-68960000D01*
X170790000Y-71040000D02*
X170790000Y-73539000D01*
X170830000Y-66484000D02*
X170830000Y-68960000D01*
X170830000Y-71040000D02*
X170830000Y-73516000D01*
X170870000Y-66507000D02*
X170870000Y-68960000D01*
X170870000Y-71040000D02*
X170870000Y-73493000D01*
X170910000Y-66532000D02*
X170910000Y-68960000D01*
X170910000Y-71040000D02*
X170910000Y-73468000D01*
X170950000Y-66557000D02*
X170950000Y-68960000D01*
X170950000Y-71040000D02*
X170950000Y-73443000D01*
X170990000Y-66582000D02*
X170990000Y-68960000D01*
X170990000Y-71040000D02*
X170990000Y-73418000D01*
X171030000Y-66608000D02*
X171030000Y-68960000D01*
X171030000Y-71040000D02*
X171030000Y-73392000D01*
X171070000Y-66635000D02*
X171070000Y-68960000D01*
X171070000Y-71040000D02*
X171070000Y-73365000D01*
X171110000Y-66663000D02*
X171110000Y-68960000D01*
X171110000Y-71040000D02*
X171110000Y-73337000D01*
X171150000Y-66691000D02*
X171150000Y-68960000D01*
X171150000Y-71040000D02*
X171150000Y-73309000D01*
X171190000Y-66720000D02*
X171190000Y-68960000D01*
X171190000Y-71040000D02*
X171190000Y-73280000D01*
X171230000Y-66750000D02*
X171230000Y-68960000D01*
X171230000Y-71040000D02*
X171230000Y-73250000D01*
X171270000Y-66781000D02*
X171270000Y-68960000D01*
X171270000Y-71040000D02*
X171270000Y-73219000D01*
X171310000Y-66812000D02*
X171310000Y-68960000D01*
X171310000Y-71040000D02*
X171310000Y-73188000D01*
X171350000Y-66844000D02*
X171350000Y-68960000D01*
X171350000Y-71040000D02*
X171350000Y-73156000D01*
X171390000Y-66877000D02*
X171390000Y-68960000D01*
X171390000Y-71040000D02*
X171390000Y-73123000D01*
X171430000Y-66911000D02*
X171430000Y-68960000D01*
X171430000Y-71040000D02*
X171430000Y-73089000D01*
X171470000Y-66945000D02*
X171470000Y-68960000D01*
X171470000Y-71040000D02*
X171470000Y-73055000D01*
X171510000Y-66981000D02*
X171510000Y-68960000D01*
X171510000Y-71040000D02*
X171510000Y-73019000D01*
X171550000Y-67018000D02*
X171550000Y-72982000D01*
X171590000Y-67055000D02*
X171590000Y-72945000D01*
X171630000Y-67094000D02*
X171630000Y-72906000D01*
X171670000Y-67133000D02*
X171670000Y-72867000D01*
X171710000Y-67174000D02*
X171710000Y-72826000D01*
X171750000Y-67216000D02*
X171750000Y-72784000D01*
X171790000Y-67259000D02*
X171790000Y-72741000D01*
X171830000Y-67304000D02*
X171830000Y-72696000D01*
X171870000Y-67349000D02*
X171870000Y-72651000D01*
X171910000Y-67396000D02*
X171910000Y-72604000D01*
X171950000Y-67445000D02*
X171950000Y-72555000D01*
X171990000Y-67495000D02*
X171990000Y-72505000D01*
X172030000Y-67547000D02*
X172030000Y-72453000D01*
X172070000Y-67600000D02*
X172070000Y-72400000D01*
X172110000Y-67656000D02*
X172110000Y-72344000D01*
X172150000Y-67713000D02*
X172150000Y-72287000D01*
X172190000Y-67773000D02*
X172190000Y-72227000D01*
X172230000Y-67835000D02*
X172230000Y-72165000D01*
X172270000Y-67899000D02*
X172270000Y-72101000D01*
X172310000Y-67966000D02*
X172310000Y-72034000D01*
X172350000Y-68036000D02*
X172350000Y-71964000D01*
X172390000Y-68110000D02*
X172390000Y-71890000D01*
X172430000Y-68187000D02*
X172430000Y-71813000D01*
X172470000Y-68269000D02*
X172470000Y-71731000D01*
X172510000Y-68356000D02*
X172510000Y-71644000D01*
X172550000Y-68448000D02*
X172550000Y-71552000D01*
X172590000Y-68547000D02*
X172590000Y-71453000D01*
X172630000Y-68654000D02*
X172630000Y-71346000D01*
X172670000Y-68772000D02*
X172670000Y-71228000D01*
X172710000Y-68903000D02*
X172710000Y-71097000D01*
X172750000Y-69053000D02*
X172750000Y-70947000D01*
X172790000Y-69232000D02*
X172790000Y-70768000D01*
X172830000Y-69467000D02*
X172830000Y-70533000D01*
X172870000Y-70000000D02*
G75*
G02*
X164630000Y-70000000I-4120000J0D01*
G01*
X164630000Y-70000000D02*
G75*
G02*
X172870000Y-70000000I4120000J0D01*
G01*
%TO.C,D1*%
X120380000Y-129360000D02*
X122620000Y-129360000D01*
X120380000Y-129480000D02*
X122620000Y-129480000D01*
X120380000Y-129600000D02*
X122620000Y-129600000D01*
X121500000Y-124040000D02*
X121500000Y-125960000D01*
X121500000Y-132120000D02*
X121500000Y-130200000D01*
X120380000Y-130200000D02*
X122620000Y-130200000D01*
X122620000Y-125960000D01*
X120380000Y-125960000D01*
X120380000Y-130200000D01*
%TO.C,C1*%
X110780000Y-125410000D02*
X111474000Y-125410000D01*
X110780000Y-130750000D02*
X110780000Y-125410000D01*
X111474000Y-130750000D02*
X110780000Y-130750000D01*
X113526000Y-125410000D02*
X114220000Y-125410000D01*
X114220000Y-125410000D02*
X114220000Y-130750000D01*
X114220000Y-130750000D02*
X113526000Y-130750000D01*
%TO.C,R2*%
X123000000Y-106960000D02*
X123000000Y-107730000D01*
X123000000Y-115040000D02*
X123000000Y-114270000D01*
X124370000Y-107730000D02*
X121630000Y-107730000D01*
X121630000Y-114270000D01*
X124370000Y-114270000D01*
X124370000Y-107730000D01*
%TO.C,J18*%
X213400000Y-91700000D02*
X213400000Y-92300000D01*
X213400000Y-92300000D02*
X214000000Y-92000000D01*
X213890000Y-89390000D02*
X222310000Y-89390000D01*
X213890000Y-90610000D02*
X213890000Y-89390000D01*
X213890000Y-105890000D02*
X216090000Y-105890000D01*
X213890000Y-107110000D02*
X213890000Y-105890000D01*
X214000000Y-92000000D02*
X213400000Y-91700000D01*
X216090000Y-90610000D02*
X213890000Y-90610000D01*
X216090000Y-90610000D02*
X216090000Y-89390000D01*
X216090000Y-93170000D02*
X216090000Y-93330000D01*
X216090000Y-95670000D02*
X216090000Y-95830000D01*
X216090000Y-98170000D02*
X216090000Y-98330000D01*
X216090000Y-100670000D02*
X216090000Y-100830000D01*
X216090000Y-103170000D02*
X216090000Y-103330000D01*
X216090000Y-105890000D02*
X216090000Y-107110000D01*
X217090000Y-90610000D02*
X217090000Y-105890000D01*
X217090000Y-91680000D02*
X220510000Y-91680000D01*
X217090000Y-92000000D02*
X217090000Y-91680000D01*
X217090000Y-92320000D02*
X217090000Y-92000000D01*
X217090000Y-94180000D02*
X220510000Y-94180000D01*
X217090000Y-94500000D02*
X217090000Y-94180000D01*
X217090000Y-94820000D02*
X217090000Y-94500000D01*
X217090000Y-96680000D02*
X220510000Y-96680000D01*
X217090000Y-97000000D02*
X217090000Y-96680000D01*
X217090000Y-97320000D02*
X217090000Y-97000000D01*
X217090000Y-99180000D02*
X220510000Y-99180000D01*
X217090000Y-99500000D02*
X217090000Y-99180000D01*
X217090000Y-99820000D02*
X217090000Y-99500000D01*
X217090000Y-101680000D02*
X220510000Y-101680000D01*
X217090000Y-102000000D02*
X217090000Y-101680000D01*
X217090000Y-102320000D02*
X217090000Y-102000000D01*
X217090000Y-104180000D02*
X220510000Y-104180000D01*
X217090000Y-104500000D02*
X217090000Y-104180000D01*
X217090000Y-104820000D02*
X217090000Y-104500000D01*
X220510000Y-91680000D02*
X220590000Y-92000000D01*
X220510000Y-92320000D02*
X217090000Y-92320000D01*
X220510000Y-94180000D02*
X220590000Y-94500000D01*
X220510000Y-94820000D02*
X217090000Y-94820000D01*
X220510000Y-96680000D02*
X220590000Y-97000000D01*
X220510000Y-97320000D02*
X217090000Y-97320000D01*
X220510000Y-99180000D02*
X220590000Y-99500000D01*
X220510000Y-99820000D02*
X217090000Y-99820000D01*
X220510000Y-101680000D02*
X220590000Y-102000000D01*
X220510000Y-102320000D02*
X217090000Y-102320000D01*
X220510000Y-104180000D02*
X220590000Y-104500000D01*
X220510000Y-104820000D02*
X217090000Y-104820000D01*
X220590000Y-92000000D02*
X220510000Y-92320000D01*
X220590000Y-94500000D02*
X220510000Y-94820000D01*
X220590000Y-97000000D02*
X220510000Y-97320000D01*
X220590000Y-99500000D02*
X220510000Y-99820000D01*
X220590000Y-102000000D02*
X220510000Y-102320000D01*
X220590000Y-104500000D02*
X220510000Y-104820000D01*
X221090000Y-89390000D02*
X221090000Y-90610000D01*
X221090000Y-90610000D02*
X216090000Y-90610000D01*
X221090000Y-105890000D02*
X216090000Y-105890000D01*
X221090000Y-107110000D02*
X221090000Y-105890000D01*
X222310000Y-89390000D02*
X222310000Y-107110000D01*
X222310000Y-107110000D02*
X213890000Y-107110000D01*
%TO.C,Q5*%
X205970000Y-66850000D02*
X209570000Y-66850000D01*
X205958125Y-66841741D02*
G75*
G02*
X206950000Y-62550000I1811875J1841741D01*
G01*
X208550000Y-62550000D02*
G75*
G02*
X209578445Y-66827684I-780000J-2450000D01*
G01*
%TO.C,D4*%
X126880000Y-112200000D02*
X129120000Y-112200000D01*
X126880000Y-112320000D02*
X129120000Y-112320000D01*
X126880000Y-112440000D02*
X129120000Y-112440000D01*
X128000000Y-106880000D02*
X128000000Y-108800000D01*
X128000000Y-114960000D02*
X128000000Y-113040000D01*
X126880000Y-113040000D02*
X129120000Y-113040000D01*
X129120000Y-108800000D01*
X126880000Y-108800000D01*
X126880000Y-113040000D01*
%TO.C,J4*%
X178790000Y-101390000D02*
X180000000Y-101390000D01*
X178790000Y-108110000D02*
X178790000Y-101390000D01*
X180000000Y-101390000D02*
X180000000Y-100890000D01*
X180000000Y-108110000D02*
X178790000Y-108110000D01*
X180000000Y-108610000D02*
X180000000Y-108110000D01*
X180110000Y-108910000D02*
X182610000Y-108910000D01*
X180810000Y-100890000D02*
X180810000Y-101890000D01*
X180810000Y-101890000D02*
X182310000Y-101890000D01*
X180810000Y-107610000D02*
X182310000Y-107610000D01*
X180810000Y-108610000D02*
X180810000Y-107610000D01*
X182610000Y-108910000D02*
X182610000Y-106410000D01*
X178290000Y-108610000D02*
X182310000Y-108610000D01*
X182310000Y-100890000D01*
X178290000Y-100890000D01*
X178290000Y-108610000D01*
%TO.C,J7*%
X178790000Y-112390000D02*
X180000000Y-112390000D01*
X178790000Y-119110000D02*
X178790000Y-112390000D01*
X180000000Y-112390000D02*
X180000000Y-111890000D01*
X180000000Y-119110000D02*
X178790000Y-119110000D01*
X180000000Y-119610000D02*
X180000000Y-119110000D01*
X180110000Y-119910000D02*
X182610000Y-119910000D01*
X180810000Y-111890000D02*
X180810000Y-112890000D01*
X180810000Y-112890000D02*
X182310000Y-112890000D01*
X180810000Y-118610000D02*
X182310000Y-118610000D01*
X180810000Y-119610000D02*
X180810000Y-118610000D01*
X182610000Y-119910000D02*
X182610000Y-117410000D01*
X178290000Y-119610000D02*
X182310000Y-119610000D01*
X182310000Y-111890000D01*
X178290000Y-111890000D01*
X178290000Y-119610000D01*
%TO.C,R1*%
X117000000Y-124040000D02*
X117000000Y-124810000D01*
X117000000Y-132120000D02*
X117000000Y-131350000D01*
X118370000Y-124810000D02*
X115630000Y-124810000D01*
X115630000Y-131350000D01*
X118370000Y-131350000D01*
X118370000Y-124810000D01*
%TO.C,C11*%
X135380000Y-59630000D02*
X140620000Y-59630000D01*
X135380000Y-59967000D02*
X135380000Y-59630000D01*
X135380000Y-62370000D02*
X135380000Y-62033000D01*
X140620000Y-59630000D02*
X140620000Y-59967000D01*
X140620000Y-62033000D02*
X140620000Y-62370000D01*
X140620000Y-62370000D02*
X135380000Y-62370000D01*
%TO.C,C2*%
X138280000Y-108830000D02*
X138974000Y-108830000D01*
X138280000Y-114170000D02*
X138280000Y-108830000D01*
X138974000Y-114170000D02*
X138280000Y-114170000D01*
X141026000Y-108830000D02*
X141720000Y-108830000D01*
X141720000Y-108830000D02*
X141720000Y-114170000D01*
X141720000Y-114170000D02*
X141026000Y-114170000D01*
%TO.C,R15*%
X191000000Y-122580000D02*
X191000000Y-123350000D01*
X191000000Y-130660000D02*
X191000000Y-129890000D01*
X192370000Y-123350000D02*
X189630000Y-123350000D01*
X189630000Y-129890000D01*
X192370000Y-129890000D01*
X192370000Y-123350000D01*
%TO.C,R9*%
X135000000Y-92540000D02*
X135000000Y-93310000D01*
X135000000Y-100620000D02*
X135000000Y-99850000D01*
X133630000Y-99850000D02*
X136370000Y-99850000D01*
X136370000Y-93310000D01*
X133630000Y-93310000D01*
X133630000Y-99850000D01*
%TO.C,C17*%
X165880000Y-59630000D02*
X171120000Y-59630000D01*
X165880000Y-59967000D02*
X165880000Y-59630000D01*
X165880000Y-62370000D02*
X165880000Y-62033000D01*
X171120000Y-59630000D02*
X171120000Y-59967000D01*
X171120000Y-62033000D02*
X171120000Y-62370000D01*
X171120000Y-62370000D02*
X165880000Y-62370000D01*
%TO.C,R6*%
X108000000Y-124040000D02*
X108000000Y-124810000D01*
X108000000Y-132120000D02*
X108000000Y-131350000D01*
X106630000Y-131350000D02*
X109370000Y-131350000D01*
X109370000Y-124810000D01*
X106630000Y-124810000D01*
X106630000Y-131350000D01*
%TO.C,R4*%
X146500000Y-92960000D02*
X146500000Y-93730000D01*
X146500000Y-101040000D02*
X146500000Y-100270000D01*
X147870000Y-93730000D02*
X145130000Y-93730000D01*
X145130000Y-100270000D01*
X147870000Y-100270000D01*
X147870000Y-93730000D01*
%TO.C,C3*%
X116280000Y-108330000D02*
X116974000Y-108330000D01*
X116280000Y-113670000D02*
X116280000Y-108330000D01*
X116974000Y-113670000D02*
X116280000Y-113670000D01*
X119026000Y-108330000D02*
X119720000Y-108330000D01*
X119720000Y-108330000D02*
X119720000Y-113670000D01*
X119720000Y-113670000D02*
X119026000Y-113670000D01*
%TO.C,D2*%
X114320000Y-53500000D02*
X115620000Y-53500000D01*
X123712000Y-56285000D02*
X123712000Y-50715000D01*
X123832000Y-56285000D02*
X123832000Y-50715000D01*
X123952000Y-56285000D02*
X123952000Y-50715000D01*
X126680000Y-53500000D02*
X125380000Y-53500000D01*
X125380000Y-56285000D02*
X115620000Y-56285000D01*
X115620000Y-50715000D01*
X125380000Y-50715000D01*
X125380000Y-56285000D01*
%TO.C,R18*%
X210016250Y-90863750D02*
X210016250Y-91633750D01*
X210016250Y-98943750D02*
X210016250Y-98173750D01*
X208646250Y-98173750D02*
X211386250Y-98173750D01*
X211386250Y-91633750D01*
X208646250Y-91633750D01*
X208646250Y-98173750D01*
%TO.C,R21*%
X163385000Y-79345000D02*
X163385000Y-80115000D01*
X163385000Y-87425000D02*
X163385000Y-86655000D01*
X162015000Y-86655000D02*
X164755000Y-86655000D01*
X164755000Y-80115000D01*
X162015000Y-80115000D01*
X162015000Y-86655000D01*
%TO.C,J2*%
X96780000Y-95880000D02*
X106820000Y-95880000D01*
X96780000Y-98200000D02*
X96780000Y-95880000D01*
X96780000Y-116120000D02*
X96780000Y-98800000D01*
X97400000Y-95880000D02*
X97400000Y-116120000D01*
X98900000Y-95880000D02*
X98900000Y-116120000D01*
X103800000Y-95880000D02*
X103800000Y-116120000D01*
X106820000Y-95880000D02*
X106820000Y-116120000D01*
X106820000Y-116120000D02*
X96780000Y-116120000D01*
X96780000Y-98500000D02*
X96170000Y-98940000D01*
X96170000Y-98060000D01*
X96780000Y-98500000D01*
G36*
X96780000Y-98500000D02*
G01*
X96170000Y-98940000D01*
X96170000Y-98060000D01*
X96780000Y-98500000D01*
G37*
%TO.C,J3*%
X178790000Y-122390000D02*
X180000000Y-122390000D01*
X178790000Y-129110000D02*
X178790000Y-122390000D01*
X180000000Y-122390000D02*
X180000000Y-121890000D01*
X180000000Y-129110000D02*
X178790000Y-129110000D01*
X180000000Y-129610000D02*
X180000000Y-129110000D01*
X180110000Y-129910000D02*
X182610000Y-129910000D01*
X180810000Y-121890000D02*
X180810000Y-122890000D01*
X180810000Y-122890000D02*
X182310000Y-122890000D01*
X180810000Y-128610000D02*
X182310000Y-128610000D01*
X180810000Y-129610000D02*
X180810000Y-128610000D01*
X182610000Y-129910000D02*
X182610000Y-127410000D01*
X178290000Y-129610000D02*
X182310000Y-129610000D01*
X182310000Y-121890000D01*
X178290000Y-121890000D01*
X178290000Y-129610000D01*
%TO.C,U6*%
X162350000Y-49190000D02*
X172570000Y-49190000D01*
X162350000Y-50570000D02*
X172570000Y-50570000D01*
X162350000Y-53810000D02*
X162350000Y-49190000D01*
X165610000Y-49190000D02*
X165610000Y-50570000D01*
X169310000Y-49190000D02*
X169310000Y-50570000D01*
X172570000Y-49190000D02*
X172570000Y-53810000D01*
X172570000Y-53810000D02*
X162350000Y-53810000D01*
%TO.C,J17*%
X178790000Y-67890000D02*
X180000000Y-67890000D01*
X178790000Y-74610000D02*
X178790000Y-67890000D01*
X180000000Y-67890000D02*
X180000000Y-67390000D01*
X180000000Y-74610000D02*
X178790000Y-74610000D01*
X180000000Y-75110000D02*
X180000000Y-74610000D01*
X180110000Y-75410000D02*
X182610000Y-75410000D01*
X180810000Y-67390000D02*
X180810000Y-68390000D01*
X180810000Y-68390000D02*
X182310000Y-68390000D01*
X180810000Y-74110000D02*
X182310000Y-74110000D01*
X180810000Y-75110000D02*
X180810000Y-74110000D01*
X182610000Y-75410000D02*
X182610000Y-72910000D01*
X178290000Y-75110000D02*
X182310000Y-75110000D01*
X182310000Y-67390000D01*
X178290000Y-67390000D01*
X178290000Y-75110000D01*
%TO.C,K3*%
X189200000Y-108600000D02*
X209600000Y-108600000D01*
X189200000Y-109200000D02*
X189200000Y-108600000D01*
X189200000Y-116800000D02*
X189200000Y-110800000D01*
X189200000Y-118500000D02*
X189700000Y-119000000D01*
X189200000Y-118600000D02*
X189600000Y-119000000D01*
X189200000Y-118700000D02*
X189600000Y-119000000D01*
X189200000Y-119000000D02*
X189200000Y-118400000D01*
X189400000Y-119000000D02*
X189200000Y-118800000D01*
X189800000Y-119000000D02*
X189200000Y-118400000D01*
X207400000Y-113400000D02*
X207400000Y-114100000D01*
X207400000Y-114100000D02*
X208600000Y-114100000D01*
X207800000Y-113400000D02*
X208200000Y-114100000D01*
X208000000Y-108500000D02*
X209700000Y-108500000D01*
X208000000Y-113400000D02*
X208000000Y-112300000D01*
X208000000Y-114100000D02*
X208000000Y-115200000D01*
X208600000Y-113400000D02*
X207400000Y-113400000D01*
X208600000Y-114100000D02*
X208600000Y-113400000D01*
X209600000Y-108600000D02*
X209600000Y-119000000D01*
X209600000Y-119000000D02*
X189200000Y-119000000D01*
X209700000Y-108500000D02*
X209700000Y-110000000D01*
%TO.C,J13*%
X127590000Y-127110000D02*
X127590000Y-129610000D01*
X127590000Y-129610000D02*
X130090000Y-129610000D01*
X127890000Y-127000000D02*
X128390000Y-127000000D01*
X127890000Y-127810000D02*
X128890000Y-127810000D01*
X128390000Y-125790000D02*
X150110000Y-125790000D01*
X128390000Y-127000000D02*
X128390000Y-125790000D01*
X128890000Y-127810000D02*
X128890000Y-129310000D01*
X149610000Y-127810000D02*
X149610000Y-129310000D01*
X150110000Y-125790000D02*
X150110000Y-127000000D01*
X150110000Y-127000000D02*
X150610000Y-127000000D01*
X150610000Y-127810000D02*
X149610000Y-127810000D01*
X127890000Y-125290000D02*
X150610000Y-125290000D01*
X150610000Y-129310000D01*
X127890000Y-129310000D01*
X127890000Y-125290000D01*
%TO.C,R7*%
X112500000Y-106880000D02*
X112500000Y-107650000D01*
X112500000Y-114960000D02*
X112500000Y-114190000D01*
X111130000Y-114190000D02*
X113870000Y-114190000D01*
X113870000Y-107650000D01*
X111130000Y-107650000D01*
X111130000Y-114190000D01*
%TO.C,U9*%
X199411250Y-92328750D02*
X199411250Y-93978750D01*
X199411250Y-95978750D02*
X199411250Y-97628750D01*
X199411250Y-97628750D02*
X204611250Y-97628750D01*
X204611250Y-92328750D02*
X199411250Y-92328750D01*
X204611250Y-97628750D02*
X204611250Y-92328750D01*
X199411250Y-93978750D02*
G75*
G02*
X199411250Y-95978750I0J-1000000D01*
G01*
%TO.C,K4*%
X190800000Y-56620000D02*
X190800000Y-55120000D01*
X190900000Y-46120000D02*
X211300000Y-46120000D01*
X190900000Y-56520000D02*
X190900000Y-46120000D01*
X191900000Y-51020000D02*
X191900000Y-51720000D01*
X191900000Y-51720000D02*
X193100000Y-51720000D01*
X192500000Y-51020000D02*
X192500000Y-49920000D01*
X192500000Y-51720000D02*
X192500000Y-52820000D01*
X192500000Y-56620000D02*
X190800000Y-56620000D01*
X192700000Y-51720000D02*
X192300000Y-51020000D01*
X193100000Y-51020000D02*
X191900000Y-51020000D01*
X193100000Y-51720000D02*
X193100000Y-51020000D01*
X210700000Y-46120000D02*
X211300000Y-46720000D01*
X211100000Y-46120000D02*
X211300000Y-46320000D01*
X211300000Y-46120000D02*
X211300000Y-46720000D01*
X211300000Y-46420000D02*
X210900000Y-46120000D01*
X211300000Y-46520000D02*
X210900000Y-46120000D01*
X211300000Y-46620000D02*
X210800000Y-46120000D01*
X211300000Y-48320000D02*
X211300000Y-54320000D01*
X211300000Y-55920000D02*
X211300000Y-56520000D01*
X211300000Y-56520000D02*
X190900000Y-56520000D01*
%TO.C,R11*%
X150880000Y-78500000D02*
X151650000Y-78500000D01*
X158960000Y-78500000D02*
X158190000Y-78500000D01*
X158190000Y-79870000D02*
X151650000Y-79870000D01*
X151650000Y-77130000D01*
X158190000Y-77130000D01*
X158190000Y-79870000D01*
%TO.C,R17*%
X197960000Y-73000000D02*
X198730000Y-73000000D01*
X206040000Y-73000000D02*
X205270000Y-73000000D01*
X198730000Y-71630000D02*
X205270000Y-71630000D01*
X205270000Y-74370000D01*
X198730000Y-74370000D01*
X198730000Y-71630000D01*
%TO.C,D10*%
X186880000Y-52780000D02*
X189120000Y-52780000D01*
X186880000Y-52900000D02*
X189120000Y-52900000D01*
X186880000Y-53020000D02*
X189120000Y-53020000D01*
X188000000Y-48730000D02*
X188000000Y-49380000D01*
X188000000Y-54270000D02*
X188000000Y-53620000D01*
X186880000Y-53620000D02*
X189120000Y-53620000D01*
X189120000Y-49380000D01*
X186880000Y-49380000D01*
X186880000Y-53620000D01*
%TO.C,D5*%
X126380000Y-97700000D02*
X128620000Y-97700000D01*
X126380000Y-97820000D02*
X128620000Y-97820000D01*
X126380000Y-97940000D02*
X128620000Y-97940000D01*
X127500000Y-92380000D02*
X127500000Y-94300000D01*
X127500000Y-100460000D02*
X127500000Y-98540000D01*
X126380000Y-98540000D02*
X128620000Y-98540000D01*
X128620000Y-94300000D01*
X126380000Y-94300000D01*
X126380000Y-98540000D01*
%TD*%
M02*
