%TF.GenerationSoftware,KiCad,Pcbnew,9.0.7*%
%TF.CreationDate,2026-03-10T14:54:00+01:00*%
%TF.ProjectId,QO-100_V1,514f2d31-3030-45f5-9631-2e6b69636164,rev?*%
%TF.SameCoordinates,Original*%
%TF.FileFunction,Copper,L1,Top*%
%TF.FilePolarity,Positive*%
%FSLAX46Y46*%
G04 Gerber Fmt 4.6, Leading zero omitted, Abs format (unit mm)*
G04 Created by KiCad (PCBNEW 9.0.7) date 2026-03-10 14:54:00*
%MOMM*%
%LPD*%
G01*
G04 APERTURE LIST*
G04 Aperture macros list*
%AMRoundRect*
0 Rectangle with rounded corners*
0 $1 Rounding radius*
0 $2 $3 $4 $5 $6 $7 $8 $9 X,Y pos of 4 corners*
0 Add a 4 corners polygon primitive as box body*
4,1,4,$2,$3,$4,$5,$6,$7,$8,$9,$2,$3,0*
0 Add four circle primitives for the rounded corners*
1,1,$1+$1,$2,$3*
1,1,$1+$1,$4,$5*
1,1,$1+$1,$6,$7*
1,1,$1+$1,$8,$9*
0 Add four rect primitives between the rounded corners*
20,1,$1+$1,$2,$3,$4,$5,0*
20,1,$1+$1,$4,$5,$6,$7,0*
20,1,$1+$1,$6,$7,$8,$9,0*
20,1,$1+$1,$8,$9,$2,$3,0*%
G04 Aperture macros list end*
%TA.AperFunction,Conductor*%
%ADD10C,0.200000*%
%TD*%
%TA.AperFunction,ComponentPad*%
%ADD11R,1.100000X1.800000*%
%TD*%
%TA.AperFunction,ComponentPad*%
%ADD12RoundRect,0.275000X-0.275000X-0.625000X0.275000X-0.625000X0.275000X0.625000X-0.275000X0.625000X0*%
%TD*%
%TA.AperFunction,ComponentPad*%
%ADD13RoundRect,0.250000X-0.550000X0.550000X-0.550000X-0.550000X0.550000X-0.550000X0.550000X0.550000X0*%
%TD*%
%TA.AperFunction,ComponentPad*%
%ADD14C,1.600000*%
%TD*%
%TA.AperFunction,ComponentPad*%
%ADD15C,2.200000*%
%TD*%
%TA.AperFunction,ComponentPad*%
%ADD16R,1.800000X1.800000*%
%TD*%
%TA.AperFunction,ComponentPad*%
%ADD17C,1.800000*%
%TD*%
%TA.AperFunction,ComponentPad*%
%ADD18RoundRect,0.190500X-1.079500X-0.444500X1.079500X-0.444500X1.079500X0.444500X-1.079500X0.444500X0*%
%TD*%
%TA.AperFunction,ComponentPad*%
%ADD19RoundRect,0.250000X0.750000X-0.600000X0.750000X0.600000X-0.750000X0.600000X-0.750000X-0.600000X0*%
%TD*%
%TA.AperFunction,ComponentPad*%
%ADD20O,2.000000X1.700000*%
%TD*%
%TA.AperFunction,ComponentPad*%
%ADD21RoundRect,0.275000X0.275000X0.625000X-0.275000X0.625000X-0.275000X-0.625000X0.275000X-0.625000X0*%
%TD*%
%TA.AperFunction,ComponentPad*%
%ADD22RoundRect,0.250000X0.550000X-0.550000X0.550000X0.550000X-0.550000X0.550000X-0.550000X-0.550000X0*%
%TD*%
%TA.AperFunction,ComponentPad*%
%ADD23C,2.800000*%
%TD*%
%TA.AperFunction,ComponentPad*%
%ADD24RoundRect,0.250000X1.150000X1.150000X-1.150000X1.150000X-1.150000X-1.150000X1.150000X-1.150000X0*%
%TD*%
%TA.AperFunction,ComponentPad*%
%ADD25RoundRect,0.250000X-0.550000X-0.550000X0.550000X-0.550000X0.550000X0.550000X-0.550000X0.550000X0*%
%TD*%
%TA.AperFunction,ComponentPad*%
%ADD26RoundRect,0.675000X-0.675000X-0.675000X0.675000X-0.675000X0.675000X0.675000X-0.675000X0.675000X0*%
%TD*%
%TA.AperFunction,ComponentPad*%
%ADD27C,2.700000*%
%TD*%
%TA.AperFunction,ComponentPad*%
%ADD28RoundRect,0.250000X-1.050000X1.050000X-1.050000X-1.050000X1.050000X-1.050000X1.050000X1.050000X0*%
%TD*%
%TA.AperFunction,ComponentPad*%
%ADD29C,2.600000*%
%TD*%
%TA.AperFunction,ComponentPad*%
%ADD30RoundRect,0.250000X-1.050000X-1.050000X1.050000X-1.050000X1.050000X1.050000X-1.050000X1.050000X0*%
%TD*%
%TA.AperFunction,ComponentPad*%
%ADD31R,1.500000X1.500000*%
%TD*%
%TA.AperFunction,ComponentPad*%
%ADD32C,1.500000*%
%TD*%
%TA.AperFunction,ComponentPad*%
%ADD33R,1.905000X2.000000*%
%TD*%
%TA.AperFunction,ComponentPad*%
%ADD34O,1.905000X2.000000*%
%TD*%
%TA.AperFunction,ComponentPad*%
%ADD35RoundRect,0.250000X-0.725000X0.600000X-0.725000X-0.600000X0.725000X-0.600000X0.725000X0.600000X0*%
%TD*%
%TA.AperFunction,ComponentPad*%
%ADD36O,1.950000X1.700000*%
%TD*%
%TA.AperFunction,ComponentPad*%
%ADD37RoundRect,0.250001X0.949999X0.949999X-0.949999X0.949999X-0.949999X-0.949999X0.949999X-0.949999X0*%
%TD*%
%TA.AperFunction,ComponentPad*%
%ADD38C,2.400000*%
%TD*%
%TA.AperFunction,ComponentPad*%
%ADD39RoundRect,0.250000X-0.600000X-0.725000X0.600000X-0.725000X0.600000X0.725000X-0.600000X0.725000X0*%
%TD*%
%TA.AperFunction,ComponentPad*%
%ADD40O,1.700000X1.950000*%
%TD*%
%TA.AperFunction,Conductor*%
%ADD41C,0.508000*%
%TD*%
%TA.AperFunction,Conductor*%
%ADD42C,0.762000*%
%TD*%
%TA.AperFunction,Conductor*%
%ADD43C,1.270000*%
%TD*%
%TA.AperFunction,Conductor*%
%ADD44C,5.080000*%
%TD*%
%TA.AperFunction,Conductor*%
%ADD45C,3.810000*%
%TD*%
%TA.AperFunction,Conductor*%
%ADD46C,2.540000*%
%TD*%
%TA.AperFunction,Conductor*%
%ADD47C,0.254000*%
%TD*%
G04 APERTURE END LIST*
%TO.N,unconnected-(J19-Pin_5-Pad5)*%
D10*
X89000000Y-42000000D02*
X226000000Y-42000000D01*
X226000000Y-141000000D01*
X89000000Y-141000000D01*
X89000000Y-42000000D01*
%TD*%
D11*
%TO.P,Q1,1,E*%
%TO.N,Net-(D8-K)*%
X156385000Y-85785000D03*
D12*
%TO.P,Q1,2,B*%
%TO.N,Net-(Q1-B)*%
X157655000Y-83715000D03*
%TO.P,Q1,3,C*%
%TO.N,/OptoRelais/12V in*%
X158925000Y-85785000D03*
%TD*%
D13*
%TO.P,D9,1,K*%
%TO.N,Net-(D9-K)*%
X212500000Y-110310000D03*
D14*
%TO.P,D9,2,A*%
%TO.N,GND*%
X212500000Y-117930000D03*
%TD*%
D13*
%TO.P,D11,1,K*%
%TO.N,Net-(D11-K)*%
X213516250Y-78363750D03*
D14*
%TO.P,D11,2,A*%
%TO.N,GND*%
X213516250Y-85983750D03*
%TD*%
D15*
%TO.P,K5,11*%
%TO.N,/OptoRelais/Bias-T out*%
X198053750Y-78726250D03*
%TO.P,K5,12*%
%TO.N,/OptoRelais/12V Pluto out*%
X190433750Y-86346250D03*
%TO.P,K5,14*%
%TO.N,/OptoRelais/18V in*%
X190433750Y-78726250D03*
D16*
%TO.P,K5,A1*%
%TO.N,Net-(D11-K)*%
X208213750Y-78726250D03*
D17*
%TO.P,K5,A2*%
%TO.N,GND*%
X208213750Y-86346250D03*
%TD*%
D18*
%TO.P,ACS1,1,GND*%
%TO.N,GND*%
X96000000Y-124960000D03*
%TO.P,ACS1,2,DT*%
%TO.N,ESP32  IO03*%
X96000000Y-127500000D03*
%TO.P,ACS1,3,5V*%
%TO.N,/OptoRelais/5V Pluto out*%
X96000000Y-130040000D03*
%TO.P,ACS1,4,PW1*%
%TO.N,To PA+ by wire*%
X101080000Y-124960000D03*
%TO.P,ACS1,5,PW2*%
%TO.N,/Power Supply and partitors/28V in by wire*%
X101080000Y-130040000D03*
%TD*%
D19*
%TO.P,J16,1,Pin_1*%
%TO.N,/OptoRelais/5V Pluto out*%
X180000000Y-82500000D03*
D20*
%TO.P,J16,2,Pin_2*%
%TO.N,Net-(J13-Pin_6)*%
X180000000Y-80000000D03*
%TD*%
D11*
%TO.P,Q4,1,E*%
%TO.N,Net-(D9-K)*%
X200000000Y-124220000D03*
D21*
%TO.P,Q4,2,B*%
%TO.N,Net-(Q4-B)*%
X198730000Y-126290000D03*
%TO.P,Q4,3,C*%
%TO.N,/OptoRelais/12V Pluto out*%
X197460000Y-124220000D03*
%TD*%
D22*
%TO.P,U7,1*%
%TO.N,Net-(R14-Pad2)*%
X205725000Y-129120000D03*
D14*
%TO.P,U7,2*%
%TO.N,GND*%
X208265000Y-129120000D03*
%TO.P,U7,3*%
X208265000Y-121500000D03*
%TO.P,U7,4*%
%TO.N,Net-(Q4-B)*%
X205725000Y-121500000D03*
%TD*%
%TO.P,C14,1*%
%TO.N,/Power Supply and partitors/5V  Pluto*%
X155500000Y-61000000D03*
%TO.P,C14,2*%
%TO.N,GND*%
X160500000Y-61000000D03*
%TD*%
D23*
%TO.P,K6,11*%
%TO.N,/OptoRelais/5V Pluto out*%
X105500000Y-85000000D03*
%TO.P,K6,12*%
%TO.N,unconnected-(K6-Pad12)*%
X110500000Y-85000000D03*
%TO.P,K6,14*%
%TO.N,/OptoRelais/5V in*%
X100500000Y-85000000D03*
%TO.P,K6,21*%
%TO.N,/OptoRelais/12V Pluto out*%
X105500000Y-77500000D03*
%TO.P,K6,22*%
%TO.N,unconnected-(K6-Pad22)*%
X110500000Y-77500000D03*
%TO.P,K6,24*%
%TO.N,/OptoRelais/12V in*%
X100500000Y-77500000D03*
D24*
%TO.P,K6,A1*%
%TO.N,Net-(D8-K)*%
X125500000Y-85000000D03*
D23*
%TO.P,K6,A2*%
%TO.N,GND*%
X125500000Y-77500000D03*
%TD*%
D14*
%TO.P,R19,1*%
%TO.N,/OptoRelais/12V Pluto out*%
X190016250Y-102983750D03*
%TO.P,R19,2*%
%TO.N,Net-(Q3-B)*%
X200176250Y-102983750D03*
%TD*%
%TO.P,R8,1*%
%TO.N,Net-(D5-K)*%
X113000000Y-101500000D03*
%TO.P,R8,2*%
%TO.N,PA W in*%
X113000000Y-91340000D03*
%TD*%
D25*
%TO.P,C10,1*%
%TO.N,/OptoRelais/12V in*%
X145000000Y-68000000D03*
D14*
%TO.P,C10,2*%
%TO.N,GND*%
X148500000Y-68000000D03*
%TD*%
D22*
%TO.P,D8,1,K*%
%TO.N,Net-(D8-K)*%
X131000000Y-85310000D03*
D14*
%TO.P,D8,2,A*%
%TO.N,GND*%
X131000000Y-77690000D03*
%TD*%
%TO.P,C12,1*%
%TO.N,/OptoRelais/5V in*%
X146500000Y-59000000D03*
%TO.P,C12,2*%
%TO.N,GND*%
X151500000Y-59000000D03*
%TD*%
D22*
%TO.P,D3,1,K*%
%TO.N,Net-(D3-K)*%
X149500000Y-116160000D03*
D14*
%TO.P,D3,2,A*%
%TO.N,GND*%
X149500000Y-106000000D03*
%TD*%
D25*
%TO.P,C15,1*%
%TO.N,/Power Supply and partitors/5V  Pluto*%
X156500000Y-70500000D03*
D14*
%TO.P,C15,2*%
%TO.N,GND*%
X160000000Y-70500000D03*
%TD*%
D22*
%TO.P,D6,1,K*%
%TO.N,Net-(D6-K)*%
X151000000Y-102080000D03*
D14*
%TO.P,D6,2,A*%
%TO.N,GND*%
X151000000Y-91920000D03*
%TD*%
D19*
%TO.P,J6,1,Pin_1*%
%TO.N,GND*%
X180000000Y-60500000D03*
D20*
%TO.P,J6,2,Pin_2*%
%TO.N,/Power Supply and partitors/BIAS-T*%
X180000000Y-58000000D03*
%TD*%
D14*
%TO.P,R10,1*%
%TO.N,Net-(D3-K)*%
X135000000Y-116500000D03*
%TO.P,R10,2*%
%TO.N,PA W ref*%
X135000000Y-106340000D03*
%TD*%
D26*
%TO.P,F2,1*%
%TO.N,/OptoRelais/12V in*%
X100100000Y-67000000D03*
X106860000Y-67000000D03*
D27*
%TO.P,F2,2*%
%TO.N,Net-(D2-K)*%
X114140000Y-67000000D03*
X120900000Y-67000000D03*
%TD*%
D28*
%TO.P,J1,1,Pin_1*%
%TO.N,Net-(D2-A)*%
X103500000Y-53500000D03*
D29*
%TO.P,J1,2,Pin_2*%
%TO.N,GND*%
X103500000Y-58500000D03*
%TD*%
D11*
%TO.P,Q3,1,E*%
%TO.N,Net-(D11-K)*%
X193786250Y-94313750D03*
D21*
%TO.P,Q3,2,B*%
%TO.N,Net-(Q3-B)*%
X192516250Y-96383750D03*
%TO.P,Q3,3,C*%
%TO.N,/OptoRelais/12V Pluto out*%
X191246250Y-94313750D03*
%TD*%
D14*
%TO.P,R3,1*%
%TO.N,GND*%
X123000000Y-91500000D03*
%TO.P,R3,2*%
%TO.N,Net-(D5-K)*%
X123000000Y-101660000D03*
%TD*%
D13*
%TO.P,U8,1*%
%TO.N,Net-(R16-Pad2)*%
X199775000Y-61000000D03*
D14*
%TO.P,U8,2*%
%TO.N,GND*%
X197235000Y-61000000D03*
%TO.P,U8,3*%
X197235000Y-68620000D03*
%TO.P,U8,4*%
%TO.N,Net-(Q5-B)*%
X199775000Y-68620000D03*
%TD*%
D30*
%TO.P,J14,1,Pin_1*%
%TO.N,PA W in*%
X157500000Y-127000000D03*
D29*
%TO.P,J14,2,Pin_2*%
%TO.N,PA W out*%
X162500000Y-127000000D03*
%TO.P,J14,3,Pin_3*%
%TO.N,PA W ref*%
X167500000Y-127000000D03*
%TO.P,J14,4,Pin_4*%
%TO.N,GND*%
X172500000Y-127000000D03*
%TD*%
D14*
%TO.P,C4,1*%
%TO.N,GND*%
X118500000Y-94500000D03*
%TO.P,C4,2*%
%TO.N,Net-(D5-K)*%
X118500000Y-99500000D03*
%TD*%
%TO.P,R5,1*%
%TO.N,GND*%
X145000000Y-105920000D03*
%TO.P,R5,2*%
%TO.N,Net-(D3-K)*%
X145000000Y-116080000D03*
%TD*%
D19*
%TO.P,J5,1,Pin_1*%
%TO.N,GND*%
X180000000Y-95000000D03*
D20*
%TO.P,J5,2,Pin_2*%
%TO.N,/OptoRelais/GPSDO out*%
X180000000Y-92500000D03*
%TD*%
D14*
%TO.P,R14,1*%
%TO.N,/ESP32-S3-DevBoard/GPSDO out*%
X195420000Y-133120000D03*
%TO.P,R14,2*%
%TO.N,Net-(R14-Pad2)*%
X205580000Y-133120000D03*
%TD*%
D13*
%TO.P,U3,1*%
%TO.N,Net-(R21-Pad2)*%
X149885000Y-81385000D03*
D14*
%TO.P,U3,2*%
%TO.N,GND*%
X147345000Y-81385000D03*
%TO.P,U3,3*%
X147345000Y-89005000D03*
%TO.P,U3,4*%
%TO.N,Net-(Q1-B)*%
X149885000Y-89005000D03*
%TD*%
D31*
%TO.P,U1,1,VDD*%
%TO.N,/OptoRelais/5V in*%
X160500000Y-97500000D03*
D32*
%TO.P,U1,2,DATA*%
%TO.N,/IO10*%
X160500000Y-100040000D03*
%TO.P,U1,3,NC*%
%TO.N,unconnected-(U1-NC-Pad3)*%
X160500000Y-102580000D03*
%TO.P,U1,4,GND*%
%TO.N,GND*%
X160500000Y-105120000D03*
%TD*%
D14*
%TO.P,R16,1*%
%TO.N,/ESP32-S3-DevBoard/FAN out*%
X191000000Y-70160000D03*
%TO.P,R16,2*%
%TO.N,Net-(R16-Pad2)*%
X191000000Y-60000000D03*
%TD*%
%TO.P,C5,1*%
%TO.N,GND*%
X141000000Y-94500000D03*
%TO.P,C5,2*%
%TO.N,Net-(D6-K)*%
X141000000Y-99500000D03*
%TD*%
D33*
%TO.P,U4,1,IN*%
%TO.N,/OptoRelais/12V in*%
X136960000Y-52450000D03*
D34*
%TO.P,U4,2,GND*%
%TO.N,GND*%
X139500000Y-52450000D03*
%TO.P,U4,3,OUT*%
%TO.N,/OptoRelais/5V in*%
X142040000Y-52450000D03*
%TD*%
D25*
%TO.P,C13,1*%
%TO.N,/OptoRelais/5V in*%
X150500000Y-53000000D03*
D14*
%TO.P,C13,2*%
%TO.N,GND*%
X154000000Y-53000000D03*
%TD*%
%TO.P,C16,1*%
%TO.N,To PA+ by wire*%
X161500000Y-57000000D03*
%TO.P,C16,2*%
%TO.N,GND*%
X166500000Y-57000000D03*
%TD*%
D25*
%TO.P,C18,1*%
%TO.N,/OptoRelais/18V in*%
X167000000Y-70000000D03*
D14*
%TO.P,C18,2*%
%TO.N,GND*%
X170500000Y-70000000D03*
%TD*%
D22*
%TO.P,D1,1,K*%
%TO.N,Net-(D1-K)*%
X121500000Y-133160000D03*
D14*
%TO.P,D1,2,A*%
%TO.N,GND*%
X121500000Y-123000000D03*
%TD*%
%TO.P,C1,1*%
%TO.N,GND*%
X112500000Y-125580000D03*
%TO.P,C1,2*%
%TO.N,Net-(D1-K)*%
X112500000Y-130580000D03*
%TD*%
%TO.P,R2,1*%
%TO.N,GND*%
X123000000Y-105920000D03*
%TO.P,R2,2*%
%TO.N,Net-(D4-K)*%
X123000000Y-116080000D03*
%TD*%
D35*
%TO.P,J18,1,Pin_1*%
%TO.N,/ESP32-S3-DevBoard/ON{slash}OFF out*%
X215500000Y-92000000D03*
D36*
%TO.P,J18,2,Pin_2*%
%TO.N,/ESP32-S3-DevBoard/Bias-T out*%
X215500000Y-94500000D03*
%TO.P,J18,3,Pin_3*%
%TO.N,/ESP32-S3-DevBoard/GPSDO out*%
X215500000Y-97000000D03*
%TO.P,J18,4,Pin_4*%
%TO.N,/ESP32-S3-DevBoard/FAN out*%
X215500000Y-99500000D03*
%TO.P,J18,5,Pin_5*%
%TO.N,unconnected-(J18-Pin_5-Pad5)*%
X215500000Y-102000000D03*
%TO.P,J18,6,Pin_6*%
%TO.N,unconnected-(J18-Pin_6-Pad6)*%
X215500000Y-104500000D03*
%TD*%
D11*
%TO.P,Q5,1,E*%
%TO.N,Net-(D10-K)*%
X206500000Y-65400000D03*
D12*
%TO.P,Q5,2,B*%
%TO.N,Net-(Q5-B)*%
X207770000Y-63330000D03*
%TO.P,Q5,3,C*%
%TO.N,/OptoRelais/12V Pluto out*%
X209040000Y-65400000D03*
%TD*%
D22*
%TO.P,D4,1,K*%
%TO.N,Net-(D4-K)*%
X128000000Y-116000000D03*
D14*
%TO.P,D4,2,A*%
%TO.N,GND*%
X128000000Y-105840000D03*
%TD*%
D19*
%TO.P,J4,1,Pin_1*%
%TO.N,GND*%
X180000000Y-106000000D03*
D20*
%TO.P,J4,2,Pin_2*%
%TO.N,/OptoRelais/5V Pluto out*%
X180000000Y-103500000D03*
%TD*%
D19*
%TO.P,J7,1,Pin_1*%
%TO.N,GND*%
X180000000Y-117000000D03*
D20*
%TO.P,J7,2,Pin_2*%
%TO.N,/OptoRelais/12V Pluto out*%
X180000000Y-114500000D03*
%TD*%
D14*
%TO.P,R1,1*%
%TO.N,GND*%
X117000000Y-123000000D03*
%TO.P,R1,2*%
%TO.N,Net-(D1-K)*%
X117000000Y-133160000D03*
%TD*%
%TO.P,C11,1*%
%TO.N,/OptoRelais/12V in*%
X135500000Y-61000000D03*
%TO.P,C11,2*%
%TO.N,GND*%
X140500000Y-61000000D03*
%TD*%
%TO.P,C2,1*%
%TO.N,GND*%
X140000000Y-109000000D03*
%TO.P,C2,2*%
%TO.N,Net-(D3-K)*%
X140000000Y-114000000D03*
%TD*%
%TO.P,R15,1*%
%TO.N,/OptoRelais/12V Pluto out*%
X191000000Y-121540000D03*
%TO.P,R15,2*%
%TO.N,Net-(Q4-B)*%
X191000000Y-131700000D03*
%TD*%
%TO.P,R9,1*%
%TO.N,Net-(D6-K)*%
X135000000Y-101660000D03*
%TO.P,R9,2*%
%TO.N,PA W out*%
X135000000Y-91500000D03*
%TD*%
%TO.P,C17,1*%
%TO.N,/OptoRelais/18V in*%
X166000000Y-61000000D03*
%TO.P,C17,2*%
%TO.N,GND*%
X171000000Y-61000000D03*
%TD*%
%TO.P,R6,1*%
%TO.N,Net-(D1-K)*%
X108000000Y-133160000D03*
%TO.P,R6,2*%
%TO.N,/OptoRelais/12V Pluto out*%
X108000000Y-123000000D03*
%TD*%
%TO.P,R4,1*%
%TO.N,GND*%
X146500000Y-91920000D03*
%TO.P,R4,2*%
%TO.N,Net-(D6-K)*%
X146500000Y-102080000D03*
%TD*%
%TO.P,C3,1*%
%TO.N,GND*%
X118000000Y-108500000D03*
%TO.P,C3,2*%
%TO.N,Net-(D4-K)*%
X118000000Y-113500000D03*
%TD*%
D37*
%TO.P,D2,1,K*%
%TO.N,Net-(D2-K)*%
X128120000Y-53500000D03*
D38*
%TO.P,D2,2,A*%
%TO.N,Net-(D2-A)*%
X112880000Y-53500000D03*
%TD*%
D14*
%TO.P,R18,1*%
%TO.N,/ESP32-S3-DevBoard/Bias-T out*%
X210016250Y-99983750D03*
%TO.P,R18,2*%
%TO.N,Net-(R18-Pad2)*%
X210016250Y-89823750D03*
%TD*%
%TO.P,R21,1*%
%TO.N,/ESP32-S3-DevBoard/ON{slash}OFF out*%
X163385000Y-88465000D03*
%TO.P,R21,2*%
%TO.N,Net-(R21-Pad2)*%
X163385000Y-78305000D03*
%TD*%
D28*
%TO.P,J2,1,Pin_1*%
%TO.N,GND*%
X101500000Y-98500000D03*
D29*
%TO.P,J2,2,Pin_2*%
%TO.N,/OptoRelais/12V Pluto out*%
X101500000Y-103500000D03*
%TO.P,J2,3,Pin_3*%
%TO.N,GND*%
X101500000Y-108500000D03*
%TO.P,J2,4,Pin_4*%
%TO.N,/Power Supply and partitors/28V in by wire*%
X101500000Y-113500000D03*
%TD*%
D19*
%TO.P,J3,1,Pin_1*%
%TO.N,GND*%
X180000000Y-127000000D03*
D20*
%TO.P,J3,2,Pin_2*%
%TO.N,/OptoRelais/5V in*%
X180000000Y-124500000D03*
%TD*%
D33*
%TO.P,U6,1,IN*%
%TO.N,To PA+ by wire*%
X164920000Y-52450000D03*
D34*
%TO.P,U6,2,GND*%
%TO.N,GND*%
X167460000Y-52450000D03*
%TO.P,U6,3,OUT*%
%TO.N,/OptoRelais/18V in*%
X170000000Y-52450000D03*
%TD*%
D19*
%TO.P,J17,1,Pin_1*%
%TO.N,unconnected-(J17-Pin_1-Pad1)*%
X180000000Y-72500000D03*
D20*
%TO.P,J17,2,Pin_2*%
%TO.N,GND*%
X180000000Y-70000000D03*
%TD*%
D15*
%TO.P,K3,11*%
%TO.N,/OptoRelais/GPSDO out*%
X197840000Y-110000000D03*
%TO.P,K3,12*%
%TO.N,unconnected-(K3-Pad12)*%
X190220000Y-117620000D03*
%TO.P,K3,14*%
%TO.N,/OptoRelais/5V Pluto out*%
X190220000Y-110000000D03*
D16*
%TO.P,K3,A1*%
%TO.N,Net-(D9-K)*%
X208000000Y-110000000D03*
D17*
%TO.P,K3,A2*%
%TO.N,GND*%
X208000000Y-117620000D03*
%TD*%
D39*
%TO.P,J13,1,Pin_1*%
%TO.N,Net-(D1-K)*%
X130500000Y-127000000D03*
D40*
%TO.P,J13,2,Pin_2*%
%TO.N,Net-(D4-K)*%
X133000000Y-127000000D03*
%TO.P,J13,3,Pin_3*%
%TO.N,Net-(D5-K)*%
X135500000Y-127000000D03*
%TO.P,J13,4,Pin_4*%
%TO.N,Net-(D6-K)*%
X138000000Y-127000000D03*
%TO.P,J13,5,Pin_5*%
%TO.N,Net-(D3-K)*%
X140500000Y-127000000D03*
%TO.P,J13,6,Pin_6*%
%TO.N,Net-(J13-Pin_6)*%
X143000000Y-127000000D03*
%TO.P,J13,7,Pin_7*%
%TO.N,/IO10*%
X145500000Y-127000000D03*
%TO.P,J13,8,Pin_8*%
%TO.N,unconnected-(J13-Pin_8-Pad8)*%
X148000000Y-127000000D03*
%TD*%
D14*
%TO.P,R7,1*%
%TO.N,Net-(D4-K)*%
X112500000Y-116000000D03*
%TO.P,R7,2*%
%TO.N,To PA+ by wire*%
X112500000Y-105840000D03*
%TD*%
D22*
%TO.P,U9,1*%
%TO.N,Net-(R18-Pad2)*%
X200741250Y-98788750D03*
D14*
%TO.P,U9,2*%
%TO.N,GND*%
X203281250Y-98788750D03*
%TO.P,U9,3*%
X203281250Y-91168750D03*
%TO.P,U9,4*%
%TO.N,Net-(Q3-B)*%
X200741250Y-91168750D03*
%TD*%
D15*
%TO.P,K4,11*%
%TO.N,/OptoRelais/FAN out*%
X202660000Y-55120000D03*
%TO.P,K4,12*%
%TO.N,unconnected-(K4-Pad12)*%
X210280000Y-47500000D03*
%TO.P,K4,14*%
%TO.N,/OptoRelais/12V Pluto out*%
X210280000Y-55120000D03*
D16*
%TO.P,K4,A1*%
%TO.N,Net-(D10-K)*%
X192500000Y-55120000D03*
D17*
%TO.P,K4,A2*%
%TO.N,GND*%
X192500000Y-47500000D03*
%TD*%
D14*
%TO.P,R11,1*%
%TO.N,/OptoRelais/12V in*%
X160000000Y-78500000D03*
%TO.P,R11,2*%
%TO.N,Net-(Q1-B)*%
X149840000Y-78500000D03*
%TD*%
%TO.P,R17,1*%
%TO.N,/OptoRelais/12V Pluto out*%
X196920000Y-73000000D03*
%TO.P,R17,2*%
%TO.N,Net-(Q5-B)*%
X207080000Y-73000000D03*
%TD*%
D22*
%TO.P,D10,1,K*%
%TO.N,Net-(D10-K)*%
X188000000Y-55310000D03*
D14*
%TO.P,D10,2,A*%
%TO.N,GND*%
X188000000Y-47690000D03*
%TD*%
D22*
%TO.P,D5,1,K*%
%TO.N,Net-(D5-K)*%
X127500000Y-101500000D03*
D14*
%TO.P,D5,2,A*%
%TO.N,GND*%
X127500000Y-91340000D03*
%TD*%
D41*
%TO.N,GND*%
X117000000Y-123000000D02*
X116500000Y-123000000D01*
X208265000Y-117885000D02*
X208000000Y-117620000D01*
X125500000Y-77500000D02*
X130810000Y-77500000D01*
X123645000Y-87485000D02*
X123645000Y-79355000D01*
X162500000Y-61000000D02*
X166500000Y-57000000D01*
X128000000Y-105840000D02*
X123080000Y-105840000D01*
X116500000Y-123000000D02*
X113920000Y-125580000D01*
X123000000Y-105920000D02*
X120580000Y-105920000D01*
X187655000Y-46845000D02*
X186745000Y-47755000D01*
X208265000Y-121500000D02*
X208265000Y-117885000D01*
D42*
X148500000Y-68000000D02*
X146545001Y-69954999D01*
D41*
X113920000Y-125580000D02*
X112500000Y-125580000D01*
X154000000Y-55500000D02*
X154000000Y-53000000D01*
X120580000Y-105920000D02*
X118000000Y-108500000D01*
D42*
X183245000Y-60500000D02*
X186745000Y-57000000D01*
X170500000Y-70000000D02*
X180000000Y-70000000D01*
D41*
X212500000Y-117930000D02*
X208310000Y-117930000D01*
D42*
X178418000Y-115418000D02*
X180000000Y-117000000D01*
D41*
X176500000Y-102500000D02*
X180000000Y-106000000D01*
X111745000Y-102245000D02*
X108000000Y-98500000D01*
X128794000Y-134415000D02*
X131000000Y-132209000D01*
X167291000Y-132209000D02*
X172500000Y-127000000D01*
D42*
X139500000Y-52450000D02*
X139500000Y-60000000D01*
X180000000Y-106000000D02*
X178418000Y-107582000D01*
D41*
X121500000Y-123000000D02*
X120954000Y-123000000D01*
X186745000Y-47755000D02*
X186745000Y-57000000D01*
X213516250Y-88553750D02*
X203281250Y-98788750D01*
X153000000Y-57500000D02*
X157000000Y-57500000D01*
X208576250Y-85983750D02*
X208213750Y-86346250D01*
D42*
X149000000Y-59000000D02*
X151500000Y-59000000D01*
D41*
X123000000Y-91500000D02*
X127340000Y-91500000D01*
X127500000Y-91340000D02*
X123645000Y-87485000D01*
X122340000Y-91340000D02*
X127500000Y-91340000D01*
X203281250Y-91168750D02*
X203391250Y-91168750D01*
X160500000Y-61000000D02*
X162500000Y-61000000D01*
X144580000Y-91920000D02*
X146500000Y-91920000D01*
X120000000Y-94500000D02*
X123000000Y-91500000D01*
D42*
X146750000Y-61250000D02*
X149000000Y-59000000D01*
D41*
X112500000Y-125580000D02*
X106745000Y-131335000D01*
X203391250Y-91168750D02*
X208213750Y-86346250D01*
X111745000Y-90820161D02*
X112480161Y-90085000D01*
X151500000Y-58000000D02*
X154000000Y-55500000D01*
X186745000Y-57519839D02*
X191025160Y-61799999D01*
X111745000Y-102245000D02*
X111745000Y-90820161D01*
X213516250Y-85983750D02*
X213516250Y-88553750D01*
X95920000Y-124420000D02*
X95285000Y-123785000D01*
X145080000Y-106000000D02*
X145000000Y-105920000D01*
X131000000Y-77690000D02*
X131190000Y-77690000D01*
X127500000Y-91340000D02*
X130660000Y-94500000D01*
X157000000Y-57500000D02*
X160500000Y-61000000D01*
X127340000Y-91500000D02*
X127500000Y-91340000D01*
X106745000Y-133679839D02*
X107480161Y-134415000D01*
X147385000Y-89045000D02*
X147345000Y-89005000D01*
D42*
X179120000Y-105120000D02*
X180000000Y-106000000D01*
D41*
X149500000Y-106000000D02*
X159620000Y-106000000D01*
D42*
X180000000Y-60500000D02*
X183245000Y-60500000D01*
D41*
X180000000Y-95000000D02*
X176500000Y-98500000D01*
D10*
X192310000Y-47690000D02*
X192500000Y-47500000D01*
D41*
X131190000Y-77690000D02*
X134885000Y-81385000D01*
D42*
X171000000Y-61000000D02*
X179500000Y-61000000D01*
X146545001Y-80585001D02*
X147345000Y-81385000D01*
D41*
X216500000Y-112007500D02*
X203281250Y-98788750D01*
D42*
X170500000Y-62000000D02*
X170500000Y-70000000D01*
D41*
X141000000Y-94500000D02*
X142000000Y-94500000D01*
X127500000Y-91340000D02*
X127500000Y-90880000D01*
X180000000Y-117000000D02*
X180000000Y-119500000D01*
X187655000Y-46845000D02*
X188500000Y-47690000D01*
X130709000Y-132209000D02*
X131000000Y-132209000D01*
D42*
X147500000Y-68000000D02*
X148500000Y-68000000D01*
D41*
X121500000Y-123000000D02*
X130709000Y-132209000D01*
X151500000Y-59000000D02*
X153000000Y-57500000D01*
X123080000Y-105840000D02*
X123000000Y-105920000D01*
D42*
X146545001Y-69954999D02*
X146545001Y-80585001D01*
D41*
X131000000Y-132209000D02*
X167291000Y-132209000D01*
X197235000Y-61000000D02*
X197235000Y-68620000D01*
X154080000Y-95000000D02*
X180000000Y-95000000D01*
D42*
X178418000Y-107582000D02*
X178418000Y-115418000D01*
D41*
X151000000Y-91920000D02*
X154080000Y-95000000D01*
D42*
X160500000Y-105120000D02*
X179120000Y-105120000D01*
D41*
X108000000Y-98500000D02*
X101500000Y-98500000D01*
X118000000Y-108500000D02*
X111745000Y-102245000D01*
X112480161Y-90085000D02*
X114085000Y-90085000D01*
X208310000Y-117930000D02*
X208000000Y-117620000D01*
D10*
X188000000Y-47690000D02*
X192310000Y-47690000D01*
D41*
X147345000Y-89005000D02*
X147345000Y-81385000D01*
X106745000Y-131335000D02*
X106745000Y-133679839D01*
D42*
X171000000Y-61000000D02*
X171000000Y-61500000D01*
D41*
X196435001Y-61799999D02*
X197235000Y-61000000D01*
X216500000Y-113930000D02*
X216500000Y-112007500D01*
X213516250Y-85983750D02*
X208576250Y-85983750D01*
X123645000Y-79355000D02*
X125500000Y-77500000D01*
X95285000Y-66715000D02*
X103500000Y-58500000D01*
X191025160Y-61799999D02*
X196435001Y-61799999D01*
X146500000Y-91920000D02*
X151000000Y-91920000D01*
X142000000Y-94500000D02*
X144580000Y-91920000D01*
X160500000Y-61000000D02*
X160000000Y-61500000D01*
X159620000Y-106000000D02*
X160500000Y-105120000D01*
D42*
X140500000Y-61000000D02*
X147500000Y-68000000D01*
D41*
X114085000Y-90085000D02*
X118500000Y-94500000D01*
D42*
X171000000Y-61500000D02*
X170500000Y-62000000D01*
X140500000Y-61000000D02*
X140750000Y-61250000D01*
X160000000Y-61500000D02*
X160000000Y-70500000D01*
D41*
X130660000Y-94500000D02*
X141000000Y-94500000D01*
X166500000Y-57000000D02*
X166500000Y-53410000D01*
D42*
X139500000Y-60000000D02*
X140500000Y-61000000D01*
D41*
X118500000Y-94500000D02*
X120000000Y-94500000D01*
X149500000Y-106000000D02*
X145080000Y-106000000D01*
X203281250Y-98788750D02*
X203281250Y-91168750D01*
X208265000Y-121500000D02*
X208265000Y-129120000D01*
X107480161Y-134415000D02*
X128794000Y-134415000D01*
X212500000Y-117930000D02*
X216500000Y-113930000D01*
X134885000Y-81385000D02*
X147345000Y-81385000D01*
D42*
X140500000Y-61000000D02*
X140500000Y-61500000D01*
D41*
X145000000Y-105920000D02*
X143080000Y-105920000D01*
X166500000Y-53410000D02*
X167460000Y-52450000D01*
X95285000Y-123785000D02*
X95285000Y-66715000D01*
X151500000Y-59000000D02*
X151500000Y-58000000D01*
X188500000Y-47690000D02*
X188810000Y-47690000D01*
X180000000Y-119500000D02*
X172500000Y-127000000D01*
D42*
X179500000Y-61000000D02*
X180000000Y-60500000D01*
D41*
X130810000Y-77500000D02*
X131000000Y-77690000D01*
X176500000Y-98500000D02*
X176500000Y-102500000D01*
X186745000Y-57000000D02*
X186745000Y-57519839D01*
D42*
X140750000Y-61250000D02*
X146750000Y-61250000D01*
D41*
X147100000Y-89250000D02*
X147345000Y-89005000D01*
X143080000Y-105920000D02*
X140000000Y-109000000D01*
D43*
X172500000Y-127000000D02*
X180000000Y-127000000D01*
D41*
%TO.N,Net-(D1-K)*%
X125245000Y-121745000D02*
X130500000Y-127000000D01*
X120245000Y-131905000D02*
X120245000Y-122480161D01*
X121500000Y-133160000D02*
X120245000Y-131905000D01*
X121500000Y-133160000D02*
X117000000Y-133160000D01*
X108000000Y-133160000D02*
X109920000Y-133160000D01*
X115080000Y-133160000D02*
X112500000Y-130580000D01*
X120980161Y-121745000D02*
X125245000Y-121745000D01*
X120245000Y-122480161D02*
X120980161Y-121745000D01*
X109920000Y-133160000D02*
X112500000Y-130580000D01*
X117000000Y-133160000D02*
X115080000Y-133160000D01*
%TO.N,Net-(D3-K)*%
X137500000Y-116500000D02*
X140000000Y-114000000D01*
X145000000Y-116080000D02*
X149420000Y-116080000D01*
X135000000Y-116500000D02*
X137500000Y-116500000D01*
X142920000Y-114000000D02*
X145000000Y-116080000D01*
X149420000Y-116080000D02*
X149500000Y-116160000D01*
X140000000Y-114000000D02*
X142920000Y-114000000D01*
%TO.N,Net-(D4-K)*%
X133000000Y-127000000D02*
X124500000Y-118500000D01*
X120580000Y-116080000D02*
X118000000Y-113500000D01*
X123000000Y-116080000D02*
X127920000Y-116080000D01*
X115500000Y-116000000D02*
X118000000Y-113500000D01*
X123000000Y-116080000D02*
X120580000Y-116080000D01*
X124500000Y-118500000D02*
X124500000Y-117580000D01*
X124500000Y-117580000D02*
X123000000Y-116080000D01*
D43*
X127920000Y-116080000D02*
X128000000Y-116000000D01*
D41*
X112500000Y-116000000D02*
X115500000Y-116000000D01*
%TO.N,Net-(D5-K)*%
X123000000Y-101660000D02*
X127340000Y-101660000D01*
X135500000Y-127000000D02*
X131500000Y-123000000D01*
X118500000Y-99500000D02*
X120840000Y-99500000D01*
X116500000Y-101500000D02*
X118500000Y-99500000D01*
X113000000Y-101500000D02*
X116500000Y-101500000D01*
X131500000Y-123000000D02*
X131500000Y-105500000D01*
X120840000Y-99500000D02*
X123000000Y-101660000D01*
X131500000Y-105500000D02*
X127500000Y-101500000D01*
D43*
X127340000Y-101660000D02*
X127500000Y-101500000D01*
D41*
%TO.N,Net-(D6-K)*%
X138840000Y-101660000D02*
X141000000Y-99500000D01*
X143920000Y-99500000D02*
X146500000Y-102080000D01*
X135000000Y-101660000D02*
X138840000Y-101660000D01*
X141000000Y-99500000D02*
X143920000Y-99500000D01*
X146500000Y-102080000D02*
X151000000Y-102080000D01*
D43*
%TO.N,/OptoRelais/12V in*%
X135500000Y-61000000D02*
X142500000Y-68000000D01*
X109365615Y-67000000D02*
X106860000Y-67000000D01*
X113365615Y-71000000D02*
X109365615Y-67000000D01*
X125500000Y-71000000D02*
X135500000Y-61000000D01*
D44*
X100100000Y-67000000D02*
X100100000Y-77100000D01*
D41*
X160000000Y-78500000D02*
X158925000Y-79575000D01*
D44*
X100100000Y-77100000D02*
X100500000Y-77500000D01*
D45*
X107511000Y-67651000D02*
X106860000Y-67000000D01*
D44*
X100100000Y-67000000D02*
X106860000Y-67000000D01*
D43*
X136960000Y-59540000D02*
X135500000Y-61000000D01*
X145000000Y-68000000D02*
X145313419Y-68313419D01*
D41*
X158925000Y-79575000D02*
X158925000Y-85385000D01*
D43*
X136960000Y-52450000D02*
X136960000Y-59540000D01*
X113365615Y-71000000D02*
X125500000Y-71000000D01*
X142500000Y-68000000D02*
X145000000Y-68000000D01*
D42*
%TO.N,/Power Supply and partitors/5V  Pluto*%
X155500000Y-61000000D02*
X155500000Y-69500000D01*
X155500000Y-69500000D02*
X156500000Y-70500000D01*
D41*
%TO.N,/OptoRelais/5V in*%
X146500000Y-59000000D02*
X146500000Y-57000000D01*
X146500000Y-57000000D02*
X150500000Y-53000000D01*
D44*
%TO.N,Net-(D2-A)*%
X103500000Y-53500000D02*
X112880000Y-53500000D01*
%TO.N,Net-(D2-K)*%
X120900000Y-67000000D02*
X114140000Y-67000000D01*
X128120000Y-59780000D02*
X120900000Y-67000000D01*
X128120000Y-53500000D02*
X128120000Y-59780000D01*
D42*
%TO.N,/OptoRelais/18V in*%
X166000000Y-69000000D02*
X167000000Y-70000000D01*
X170000000Y-57000000D02*
X166000000Y-61000000D01*
X167000000Y-70000000D02*
X174626251Y-77626251D01*
X189333751Y-77626251D02*
X190433750Y-78726250D01*
X170000000Y-52450000D02*
X170000000Y-57000000D01*
X174626251Y-77626251D02*
X189333751Y-77626251D01*
X166000000Y-61000000D02*
X166000000Y-69000000D01*
D41*
%TO.N,PA W in*%
X131065161Y-97000000D02*
X133000000Y-98934839D01*
X157500000Y-127000000D02*
X157500000Y-122056052D01*
X147443948Y-112000000D02*
X133000000Y-112000000D01*
X133000000Y-98934839D02*
X133000000Y-112000000D01*
X131065161Y-97000000D02*
X118660000Y-97000000D01*
X157500000Y-122056052D02*
X147443948Y-112000000D01*
X118660000Y-97000000D02*
X113000000Y-91340000D01*
%TO.N,PA W ref*%
X135000000Y-106340000D02*
X138915000Y-110255000D01*
X148236945Y-110255000D02*
X160745000Y-122763055D01*
X138915000Y-110255000D02*
X148236945Y-110255000D01*
X160745000Y-129745000D02*
X162500000Y-131500000D01*
X162500000Y-131500000D02*
X163000000Y-131500000D01*
X160745000Y-122763055D02*
X160745000Y-129745000D01*
X163000000Y-131500000D02*
X167500000Y-127000000D01*
%TO.N,Net-(D8-K)*%
X151510000Y-90260000D02*
X156385000Y-85385000D01*
X131000000Y-85310000D02*
X125810000Y-85310000D01*
X131000000Y-85310000D02*
X135950000Y-90260000D01*
X135950000Y-90260000D02*
X151510000Y-90260000D01*
X125810000Y-85310000D02*
X125500000Y-85000000D01*
%TO.N,Net-(D9-K)*%
X208310000Y-110310000D02*
X208000000Y-110000000D01*
X208000000Y-110000000D02*
X200000000Y-118000000D01*
X200000000Y-118000000D02*
X200000000Y-124620000D01*
X212500000Y-110310000D02*
X208310000Y-110310000D01*
%TO.N,Net-(D10-K)*%
X206500000Y-63000000D02*
X206500000Y-65000000D01*
X198620000Y-55120000D02*
X192500000Y-55120000D01*
D10*
X188190000Y-55120000D02*
X188000000Y-55310000D01*
D41*
X198620000Y-55120000D02*
X206500000Y-63000000D01*
D10*
X192500000Y-55120000D02*
X188190000Y-55120000D01*
D41*
%TO.N,Net-(D11-K)*%
X208213750Y-80286250D02*
X208213750Y-78726250D01*
X193786250Y-94713750D02*
X208213750Y-80286250D01*
X208213750Y-78726250D02*
X213153750Y-78726250D01*
X213153750Y-78726250D02*
X213516250Y-78363750D01*
%TO.N,/OptoRelais/GPSDO out*%
X182500000Y-92500000D02*
X188761250Y-98761250D01*
X188761250Y-98761250D02*
X188761250Y-103503589D01*
X179950000Y-92450000D02*
X180000000Y-92500000D01*
X195257661Y-110000000D02*
X197840000Y-110000000D01*
X188761250Y-103503589D02*
X195257661Y-110000000D01*
X180000000Y-92500000D02*
X182500000Y-92500000D01*
%TO.N,/ESP32-S3-DevBoard/GPSDO out*%
X217209000Y-123265839D02*
X206099839Y-134375000D01*
X206099839Y-134375000D02*
X196675000Y-134375000D01*
X215500000Y-97000000D02*
X217209000Y-98709000D01*
X217209000Y-98709000D02*
X217209000Y-123265839D01*
X196675000Y-134375000D02*
X195420000Y-133120000D01*
%TO.N,/ESP32-S3-DevBoard/Bias-T out*%
X215500000Y-94500000D02*
X210016250Y-99983750D01*
%TO.N,/OptoRelais/12V Pluto out*%
X180500000Y-114500000D02*
X187540000Y-121540000D01*
D46*
X105500000Y-77500000D02*
X110129000Y-82129000D01*
D41*
X210280000Y-55120000D02*
X210280000Y-63760000D01*
D46*
X111689208Y-82129000D02*
X113371000Y-83810792D01*
D41*
X190433750Y-93401250D02*
X190433750Y-86346250D01*
D46*
X99730210Y-95729000D02*
X98729000Y-96730210D01*
D41*
X190016250Y-95943750D02*
X191246250Y-94713750D01*
X209040000Y-65000000D02*
X209040000Y-72814839D01*
X210280000Y-63760000D02*
X209040000Y-65000000D01*
D10*
X180000000Y-114500000D02*
X180500000Y-114500000D01*
X196920000Y-74221314D02*
X190433750Y-80707564D01*
D41*
X198175000Y-74255000D02*
X196920000Y-73000000D01*
X207599839Y-74255000D02*
X198175000Y-74255000D01*
X187540000Y-121540000D02*
X191000000Y-121540000D01*
D10*
X190433750Y-80707564D02*
X190433750Y-86346250D01*
D41*
X108000000Y-110000000D02*
X101500000Y-103500000D01*
X108000000Y-123000000D02*
X108000000Y-110000000D01*
D46*
X113371000Y-86189208D02*
X103831208Y-95729000D01*
D41*
X209040000Y-72814839D02*
X207599839Y-74255000D01*
D46*
X98729000Y-100729000D02*
X101500000Y-103500000D01*
D10*
X196920000Y-73000000D02*
X196920000Y-74221314D01*
D46*
X110129000Y-82129000D02*
X111689208Y-82129000D01*
D41*
X191246250Y-94713750D02*
X191246250Y-94213750D01*
D46*
X98729000Y-96730210D02*
X98729000Y-100729000D01*
D41*
X197460000Y-124620000D02*
X194380000Y-121540000D01*
X190016250Y-102983750D02*
X190016250Y-95943750D01*
D46*
X113371000Y-83810792D02*
X113371000Y-86189208D01*
D41*
X191246250Y-94213750D02*
X190433750Y-93401250D01*
D46*
X103831208Y-95729000D02*
X99730210Y-95729000D01*
D41*
X194380000Y-121540000D02*
X191000000Y-121540000D01*
%TO.N,Net-(Q1-B)*%
X157615000Y-84115000D02*
X152000000Y-78500000D01*
X154775000Y-84115000D02*
X157655000Y-84115000D01*
X149885000Y-89005000D02*
X154775000Y-84115000D01*
X157655000Y-84115000D02*
X157615000Y-84115000D01*
X152000000Y-78500000D02*
X149840000Y-78500000D01*
%TO.N,Net-(Q3-B)*%
X193176250Y-95983750D02*
X192516250Y-95983750D01*
X201016250Y-106983750D02*
X201996250Y-106003750D01*
X192516250Y-98483750D02*
X201016250Y-106983750D01*
X201996250Y-92423750D02*
X200741250Y-91168750D01*
X192516250Y-95983750D02*
X192516250Y-98483750D01*
X201996250Y-106003750D02*
X201996250Y-92423750D01*
X200176250Y-102983750D02*
X193176250Y-95983750D01*
%TO.N,Net-(Q4-B)*%
X205725000Y-121500000D02*
X201335000Y-125890000D01*
X201335000Y-125890000D02*
X198730000Y-125890000D01*
X192920000Y-131700000D02*
X191000000Y-131700000D01*
X198730000Y-125890000D02*
X192920000Y-131700000D01*
D10*
%TO.N,Net-(Q5-B)*%
X207080000Y-70200000D02*
X205500000Y-68620000D01*
X207080000Y-73000000D02*
X207080000Y-70200000D01*
D41*
X205500000Y-68620000D02*
X205640000Y-68620000D01*
X199775000Y-68620000D02*
X205500000Y-68620000D01*
X207770000Y-64757500D02*
X207770000Y-63730000D01*
X207770000Y-66490000D02*
X207770000Y-64757500D01*
X205640000Y-68620000D02*
X207770000Y-66490000D01*
%TO.N,Net-(R14-Pad2)*%
X205725000Y-132845000D02*
X206000000Y-133120000D01*
X205725000Y-132975000D02*
X205580000Y-133120000D01*
X205725000Y-129120000D02*
X205725000Y-132975000D01*
%TO.N,Net-(R21-Pad2)*%
X148585000Y-77980161D02*
X148585000Y-80085000D01*
X148585000Y-80085000D02*
X149885000Y-81385000D01*
X162325000Y-77245000D02*
X149320161Y-77245000D01*
X163385000Y-78305000D02*
X162325000Y-77245000D01*
X149320161Y-77245000D02*
X148585000Y-77980161D01*
%TO.N,/OptoRelais/5V Pluto out*%
X96375000Y-121894030D02*
X98026000Y-123545030D01*
D47*
X178672000Y-83278000D02*
X178672000Y-92994000D01*
D41*
X105500000Y-85000000D02*
X96375000Y-94125000D01*
D47*
X178672000Y-92994000D02*
X179500000Y-93822000D01*
D43*
X183720000Y-103500000D02*
X190220000Y-110000000D01*
D47*
X180996342Y-93822000D02*
X181328000Y-94153658D01*
D41*
X96360970Y-129500000D02*
X95920000Y-129500000D01*
D47*
X181328000Y-94153658D02*
X181328000Y-102172000D01*
D41*
X98026000Y-129974000D02*
X97960000Y-130040000D01*
X97960000Y-130040000D02*
X96000000Y-130040000D01*
D47*
X179500000Y-93822000D02*
X180996342Y-93822000D01*
X181328000Y-102172000D02*
X180000000Y-103500000D01*
X179950000Y-82000000D02*
X178672000Y-83278000D01*
D43*
X180000000Y-103500000D02*
X183720000Y-103500000D01*
D41*
X98026000Y-123545030D02*
X98026000Y-129974000D01*
X96375000Y-94125000D02*
X96375000Y-121894030D01*
%TO.N,To PA+ by wire*%
X111245000Y-107095000D02*
X112500000Y-105840000D01*
X107814839Y-124960000D02*
X101080000Y-124960000D01*
X164920000Y-53580000D02*
X161500000Y-57000000D01*
X111245000Y-121529839D02*
X111245000Y-107095000D01*
X111245000Y-121529839D02*
X107814839Y-124960000D01*
X164920000Y-52450000D02*
X164920000Y-53580000D01*
D10*
%TO.N,/Power Supply and partitors/28V in by wire*%
X100540000Y-130040000D02*
X101080000Y-130040000D01*
X101500000Y-113500000D02*
X99000000Y-116000000D01*
X99000000Y-128500000D02*
X100540000Y-130040000D01*
X99000000Y-116000000D02*
X99000000Y-128500000D01*
%TD*%
M02*
