M48
; DRILL file {KiCad 9.0.7} date 2026-03-10T14:54:44+0100
; FORMAT={-:-/ absolute / metric / decimal}
; #@! TF.CreationDate,2026-03-10T14:54:44+01:00
; #@! TF.GenerationSoftware,Kicad,Pcbnew,9.0.7
; #@! TF.FileFunction,Plated,1,2,PTH
FMAT,2
METRIC
; #@! TA.AperFunction,Plated,PTH,ComponentDrill
T1C0.750
; #@! TA.AperFunction,Plated,PTH,ComponentDrill
T2C0.800
; #@! TA.AperFunction,Plated,PTH,ComponentDrill
T3C0.950
; #@! TA.AperFunction,Plated,PTH,ComponentDrill
T4C1.000
; #@! TA.AperFunction,Plated,PTH,ComponentDrill
T5C1.100
; #@! TA.AperFunction,Plated,PTH,ComponentDrill
T6C1.200
; #@! TA.AperFunction,Plated,PTH,ComponentDrill
T7C1.300
; #@! TA.AperFunction,Plated,PTH,ComponentDrill
T8C1.500
; #@! TA.AperFunction,Plated,PTH,ComponentDrill
T9C1.700
%
G90
G05
T1
X156.385Y-85.385
X157.655Y-84.115
X158.925Y-85.385
X191.246Y-94.714
X192.516Y-95.984
X193.786Y-94.714
X197.46Y-124.62
X198.73Y-125.89
X200.0Y-124.62
X206.5Y-65.0
X207.77Y-63.73
X209.04Y-65.0
T2
X96.0Y-124.96
X96.0Y-127.5
X96.0Y-130.04
X101.08Y-124.96
X101.08Y-130.04
X108.0Y-123.0
X108.0Y-133.16
X112.5Y-105.84
X112.5Y-116.0
X112.5Y-125.58
X112.5Y-130.58
X113.0Y-91.34
X113.0Y-101.5
X117.0Y-123.0
X117.0Y-133.16
X118.0Y-108.5
X118.0Y-113.5
X118.5Y-94.5
X118.5Y-99.5
X121.5Y-123.0
X121.5Y-133.16
X123.0Y-91.5
X123.0Y-101.66
X123.0Y-105.92
X123.0Y-116.08
X127.5Y-91.34
X127.5Y-101.5
X128.0Y-105.84
X128.0Y-116.0
X131.0Y-77.69
X131.0Y-85.31
X135.0Y-91.5
X135.0Y-101.66
X135.0Y-106.34
X135.0Y-116.5
X135.5Y-61.0
X140.0Y-109.0
X140.0Y-114.0
X140.5Y-61.0
X141.0Y-94.5
X141.0Y-99.5
X145.0Y-68.0
X145.0Y-105.92
X145.0Y-116.08
X146.5Y-59.0
X146.5Y-91.92
X146.5Y-102.08
X147.345Y-81.385
X147.345Y-89.005
X148.5Y-68.0
X149.5Y-106.0
X149.5Y-116.16
X149.84Y-78.5
X149.885Y-81.385
X149.885Y-89.005
X150.5Y-53.0
X151.0Y-91.92
X151.0Y-102.08
X151.5Y-59.0
X154.0Y-53.0
X155.5Y-61.0
X156.5Y-70.5
X160.0Y-70.5
X160.0Y-78.5
X160.5Y-61.0
X160.5Y-97.5
X160.5Y-100.04
X160.5Y-102.58
X160.5Y-105.12
X161.5Y-57.0
X163.385Y-78.305
X163.385Y-88.465
X166.0Y-61.0
X166.5Y-57.0
X167.0Y-70.0
X170.5Y-70.0
X171.0Y-61.0
X188.0Y-47.69
X188.0Y-55.31
X190.016Y-102.984
X191.0Y-60.0
X191.0Y-70.16
X191.0Y-121.54
X191.0Y-131.7
X195.42Y-133.12
X196.92Y-73.0
X197.235Y-61.0
X197.235Y-68.62
X199.775Y-61.0
X199.775Y-68.62
X200.176Y-102.984
X200.741Y-91.169
X200.741Y-98.789
X203.281Y-91.169
X203.281Y-98.789
X205.58Y-133.12
X205.725Y-121.5
X205.725Y-129.12
X207.08Y-73.0
X208.265Y-121.5
X208.265Y-129.12
X210.016Y-89.824
X210.016Y-99.984
X212.5Y-110.31
X212.5Y-117.93
X213.516Y-78.364
X213.516Y-85.984
T3
X130.5Y-127.0
X133.0Y-127.0
X135.5Y-127.0
X138.0Y-127.0
X140.5Y-127.0
X143.0Y-127.0
X145.5Y-127.0
X148.0Y-127.0
X215.5Y-92.0
X215.5Y-94.5
X215.5Y-97.0
X215.5Y-99.5
X215.5Y-102.0
X215.5Y-104.5
T4
X180.0Y-58.0
X180.0Y-60.5
X180.0Y-70.0
X180.0Y-72.5
X180.0Y-80.0
X180.0Y-82.5
X180.0Y-92.5
X180.0Y-95.0
X180.0Y-103.5
X180.0Y-106.0
X180.0Y-114.5
X180.0Y-117.0
X180.0Y-124.5
X180.0Y-127.0
X192.5Y-47.5
X192.5Y-55.12
X208.0Y-110.0
X208.0Y-117.62
X208.214Y-78.726
X208.214Y-86.346
T5
X136.96Y-52.45
X139.5Y-52.45
X142.04Y-52.45
X164.92Y-52.45
X167.46Y-52.45
X170.0Y-52.45
T6
X112.88Y-53.5
X128.12Y-53.5
X190.22Y-110.0
X190.22Y-117.62
X190.434Y-78.726
X190.434Y-86.346
X197.84Y-110.0
X198.054Y-78.726
X202.66Y-55.12
X210.28Y-47.5
X210.28Y-55.12
T7
X101.5Y-98.5
X101.5Y-103.5
X101.5Y-108.5
X101.5Y-113.5
X103.5Y-53.5
X103.5Y-58.5
X157.5Y-127.0
X162.5Y-127.0
X167.5Y-127.0
X172.5Y-127.0
T8
X100.5Y-77.5
X100.5Y-85.0
X105.5Y-77.5
X105.5Y-85.0
X110.5Y-77.5
X110.5Y-85.0
X125.5Y-77.5
X125.5Y-85.0
T9
X100.1Y-67.0
X106.86Y-67.0
X114.14Y-67.0
X120.9Y-67.0
M30
